<svg id="b15fa921-0564-4cab-8593-4ee713eb0d9c" data-name="Слой 1" xmlns="http://www.w3.org/2000/svg" xmlns:xlink="http://www.w3.org/1999/xlink" viewBox="0 0 249.5 73.5"><defs><style>.a3053e91-aa79-41b5-8aed-623df1254180{fill:none;}.\32 aeff131-a9be-4d5c-a3b9-3270c3a2412d{fill:#120037;}.\37 0fc8a8c-b3f0-4ecf-9bf5-077b484d0ef9{clip-path:url(#978f8264-e6f9-4b7a-bf4e-1e2b42a62b97);}.\32 a251d02-0bed-480a-8585-cacabac4f145{fill:#370735;}.\38 4a0e3f5-90c4-4dc7-80e9-a32bb6862862{fill:#2b0034;}.\31 3cc6e6f-5318-48be-b98c-113cbd0dc6c1{fill:#240034;}.d9858730-daca-4be5-a549-c9a0afe2736e{fill:#190033;}.bf55f5ca-4b2f-4a15-bc2d-3707da591ada{fill:#220034;}.\31 2c00195-26c0-483b-9eed-344c3a0bf5cf{fill:#310038;}.c44c7a42-3b04-4810-8af5-fba857dffa3e{fill:#57173f;}.cbe377d6-5b9a-4e98-add1-855488f4f7d3{fill:#671e42;}.\39 4d1e43b-1103-4975-88e4-f0fb56a3163c{fill:#702a47;}.\37 ab7831a-81e9-4b1f-aeb3-6d3f4cf71dfc{fill:#130032;}.\34 9d738a5-266c-4c67-aadd-27204547bcf8{fill:#220032;}.\32 b353232-ee12-4acc-94a3-d2e9db6087c5{fill:#200032;}.\30 a5c8432-150c-4676-a652-40b6c8998a63{fill:#270034;}.\37 c07531e-d62c-485c-8280-d9a0af258f55{fill:#48123b;}.\35 ffcb7a5-d2ee-4c3b-b65f-cafba33b2d51{fill:#6a2142;}.b6a8a460-b385-458e-b1b8-06c56b803b15{fill:#742b47;}.\39 207e631-961a-4380-abfc-010f5cc56fac{fill:#702b49;}.\31 de6ea44-5209-4d2f-85a6-8be2fe92daef{fill:#662a4b;}.\32 f8abdaa-ca61-4cb3-9064-c92f1e3269a3{fill:#59264d;}.e4fa4adf-2c0d-4d68-81a8-36ffb34e69c6{fill:#412250;}.\38 b1c974a-29dc-401e-801d-e6be9f419691{fill:#100534;}.\31 ba2b7f6-ced1-4626-8a0a-6ad8691fb817{fill:#100034;}.\38 0f3abe9-0c38-4876-9b7a-73d53def092b{fill:#120032;}.\34 a358ae4-c2a9-4112-b1ae-dab820c339d2{fill:#150032;}.\33 26b9d26-6d6d-4d54-9a86-376aab47da9b{fill:#180032;}.fcb53945-47a3-4888-aa91-e4fc7f09148e{fill:#2d0339;}.b1752a4c-38a0-4885-9ded-54a68503b796{fill:#3e1340;}.b4926fba-90db-40a4-b2f7-2ecdba90f394{fill:#722e49;}.c2c0b7ba-d1fc-4f66-840f-c518a9d59c04{fill:#692d4d;}.\34 e551795-fa04-427e-bdba-67885b08624b{fill:#5f2b4e;}.\36 233740f-8a00-42da-b535-878027c7ae9c{fill:#482651;}.\36 4fab06c-773a-4ce4-aa26-c7f244ec2432{fill:#392051;}.bbd35cb8-1087-45ce-aa7d-29d7cd4cf319{fill:#3c1c54;}.d9d5528e-4e45-44c3-8ad7-645ff49c040f{fill:#481a56;}.df0dea74-42d2-4d57-8599-31be5bd5aa0f{fill:#7f1f5c;}.\31 ccd54d9-49ed-46ac-80fd-7a9de1df042e{fill:#110e39;}.bdf2ab87-335f-46f5-ae37-508aa9b8b76a{fill:#120c35;}.\35 1d89503-1550-4e0d-94eb-f7d7f5dbcc00{fill:#100c35;}.ee1c7fcc-07c2-4a2a-83ab-584dc34b2012{fill:#110534;}.\36 ce034f6-c9ac-4c91-b306-306bedb4b4cd{fill:#0f0032;}.\30 67855b1-1be7-477d-a009-7f9aeab1cd5c{fill:#160032;}.\37 54d2e7f-1127-4870-8a88-ed95d70e11ad{fill:#1c0c37;}.\35 83f3b87-61fa-48c3-bcd4-ac2ed92c0837{fill:#240e3b;}.\32 5c2885d-da2c-47e2-99ae-667719dedf20{fill:#2d1540;}.\39 5b25197-1518-47f1-8174-f2d87f3eb89a{fill:#5b1f4a;}.a616ddf7-ea03-4d87-85b9-4bad25d13b8d{fill:#a32753;}.c23d4559-2def-4237-83da-0022c28ecdb8{fill:#9a2d59;}.edba1c37-94e5-487f-bcd7-b414746a82ef{fill:#b62a5e;}.\35 2d05221-b3d7-4606-b27a-5f46bd2fc0d3{fill:#4b1a58;}.\33 9ec7f3f-48e0-4fa1-9c87-6b3004dfb5b0{fill:#731c5c;}.\30 fabc5d4-a46e-4076-9897-a8b0151ee239{fill:#9c285e;}.ec22d1a8-1371-4e7a-9f9d-8997144ef9ab{fill:#12133c;}.\34 e0627d2-df96-455d-8edf-492140fa6a4d{fill:#16163c;}.d330b1d3-e806-43f5-acb4-a66dadccbdc6{fill:#12113b;}.dbe17cda-d627-41c7-b1a3-13e09561cdbd{fill:#0d0737;}.\31 4564814-66d5-47e5-8786-2157160a8608{fill:#050535;}.\31 145be82-18e5-460d-9dd7-07aafa45eeb5{fill:#0a0534;}.\30 68a95bf-460b-4ace-af73-4fbd662d7a32{fill:#121238;}.ecfd99db-48c2-4e3b-a400-75d5dfcafd36{fill:#1a1239;}.\32 5f277dc-022a-4c1b-890b-1f8611926f25{fill:#21173c;}.\32 cf6aaf5-f967-477e-9288-ba02d2341036{fill:#29153e;}.\38 52b1866-4f75-4df6-bd09-b90181f953bc{fill:#2d1641;}.ee579583-65e5-45a2-9bfd-05f4e2498b41{fill:#671a49;}.\30 10951e4-a3c5-401d-bc37-6baff7f88493{fill:#76164d;}.ebdda5f4-d52b-4315-8323-29330a341c6d{fill:#db255a;}.\39 6814736-e44b-4a01-a39f-a5209ce5c150{fill:#991755;}.d128a31b-54a3-48b6-ad21-35eb9f5f6b03{fill:#781358;}.\39 82bd9c8-527a-494a-9d9d-dc3e536c4bad{fill:#141843;}.\35 8a3a279-cf57-40f9-b5e4-e1aa15b1d06a{fill:#171a43;}.cef8169a-6da0-4f24-b6fe-083f44389a42{fill:#141842;}.ab1ee936-9521-4c35-be87-ea82c297aa93{fill:#10113c;}.\31 cfba172-86e4-4607-8c1d-4b2d60b4d5ea{fill:#04073a;}.\30 0bc276e-b33d-48d6-9331-dc6d0f2501e0{fill:#0d1039;}.\34 98f051a-9c2c-4b1b-aed2-86cc9137bd62{fill:#11123a;}.\39 635ece3-ba0b-4679-80e5-808e21951748{fill:#16183b;}.\31 75313b6-bf27-44e8-9c77-2c0a2afc8fba{fill:#181c3c;}.\36 a4901b8-28db-46ea-ba6c-d391cf0b209b{fill:#211e40;}.e54cfbf4-345f-421e-8c1a-3927b42c691a{fill:#291d43;}.b7d37650-cb20-4537-9ac9-196047c90deb{fill:#301c44;}.d4d32467-9080-4c76-948d-a940bcbaa154{fill:#351c47;}.\35 9abfaec-3b4e-44d9-995a-bb4455e19579{fill:#2b1247;}.\36 0574a57-09a7-43d9-969a-d003740ead09{fill:#2e104b;}.\37 25452a6-ce6d-4f45-95b3-cbe2e8036e32{fill:#4b104e;}.\34 be581fc-5158-4836-86e8-163c2db3fa66{fill:#171642;}.f01b3949-233a-4a93-ab9b-f121912c0775{fill:#16173f;}.d5c424e1-fc55-452e-9976-e171c61f013c{fill:#161641;}.\39 9619501-5caa-4c03-ad20-ff66c9ab5db5{fill:#121643;}.d8653b4f-3aa4-4f30-ad07-750de23a59ac{fill:#061141;}.\30 6ec1320-4033-40b2-acc8-683abe416cd6{fill:#05103e;}.b99c4e51-7f0c-47bb-8f52-dd6e3af1fc2b{fill:#09103e;}.\33 9775f83-1aff-4d3b-b45c-a7edd9fb018f{fill:#10113b;}.\39 f37116b-784f-438e-aa69-44995887eb32{fill:#16173c;}.\37 9e8b5b3-6d12-4d14-87a3-0dfc3214d65a{fill:#171742;}.\38 8d91865-9cdc-4756-af26-c22e6867e2be{fill:#231946;}.\34 5adf214-38f4-45c4-b4dd-31ea2a482de2{fill:#31184a;}.de8f65c0-b49a-4d6b-bbbe-92f2bd062b1d{fill:#40184b;}.a0b6e3b8-eaca-4541-aa58-076df93fbfe4{fill:#45134d;}.c5bfbaae-4b7f-44aa-abdc-4109cee32a38{fill:#451551;}.\37 9c4691d-83da-44d5-ab6a-d75bbd798044{fill:#160c3b;}.\35 2fd22c0-2af6-4c8a-b856-78cce87380f9{fill:#19163e;}.\39 a71e9df-5f0d-4042-8033-2a57e124d8a5{fill:#14113c;}.\39 7434e0a-662d-4c4a-bfc0-96ca906e7b14{fill:#11113e;}.\35 af0187d-f29c-4ce4-ba42-09361742167b{fill:#01053b;}.\34 679ae00-e5cf-404b-99c7-82147284ddac{fill:#0c1244;}.fd7ea6a7-8368-44ea-b193-c8bb8e81a666{fill:#091143;}.\35 3cd459d-78d7-47b9-ac88-4200ad0a0867{fill:#091040;}.\30 c819841-b3e0-44c3-a367-e298c5add210{fill:#0d0e3f;}.\39 0cdcda6-6f1b-48d9-ab46-6dc6fde89a64{fill:#11113f;}.\32 0e1c899-482b-437a-82ec-0e8a21b233b7{fill:#121241;}.\34 e3dd053-1c27-4826-93d3-6de4b50d8a26{fill:#161643;}.\31 b528667-31a0-48f6-97ae-b5509dfe4e92{fill:#211a49;}.d63be77d-439c-4455-8d04-caedb016fd0f{fill:#23184b;}.f3eab989-52fd-4721-a7cd-5bba2ccfbbc9{fill:#2c164d;}.\37 da7a89f-c8df-4fc1-a1c2-4f96e6ffc0d4{fill:#3c114d;}.acd19ed0-7bfc-4389-a36d-800c7311fce4{fill:#040032;}.c438b644-fbdd-4a44-a7cb-fa236c79887c{fill:#0c0035;}.\32 0965838-8b6e-4769-8e26-2e3f41f0ae93{fill:#110539;}.\30 bcf9580-936e-4024-8667-901dc85c3347{fill:#0e0035;}.\30 b768eb3-0edb-4042-b672-1b682a6e62f9{fill:#090038;}.\36 6b3c4b2-df61-43dc-be12-ca3ddb73543e{fill:#15003a;}.ff589bda-7cd8-4f38-91e8-3a587e341456{fill:#190c40;}.a87fd902-11f0-4c24-9910-e418e1e52887{fill:#17053e;}.\36 0bbcae5-4411-42a1-b49d-f0afee22d7d7{fill:#0b073f;}.\36 8546b7b-e2dc-417c-9424-e34dbb85a4c2{fill:#110e3f;}.\38 1d9f055-0ac0-4083-b4d1-4716ff674647{fill:#131241;}.ab7e4d3f-4c7c-4bda-b483-69b0a96d4848{fill:#201943;}.f84bb6b6-d322-4f27-8031-b823b4a7bcee{fill:#362046;}.\31 d29594a-d249-4810-95c9-e515bf84e24f{fill:#65344e;}.c8214797-cd59-408f-b61a-8811cacf2ab8{fill:#602c51;}.\35 ebc3d16-3bf5-4bef-abe6-48ef6038ff15{fill:#150034;}.\31 c7889cd-aad2-4f74-adca-d6d595b28d99{fill:#0e0033;}.\37 7b73dfa-3de7-4e6b-9595-f735b0653083{fill:#0f0037;}.e1141bea-eaaf-4082-bdca-d0c890a4190c{fill:#150038;}.\38 c8dca99-26d1-4efa-a988-a466a9e3abca{fill:#160037;}.cf30cdf8-10f9-4bf9-8169-fb0043e6ad44{fill:#1f0039;}.\32 369a495-6040-4513-b2f8-a46d4c116aa6{fill:#190039;}.f1de6d73-ba63-4bac-a8a2-f43c6c415ed2{fill:#1e003a;}.\37 3a24600-f8b2-4b86-a8f0-eb83582365c7{fill:#1b003e;}.f8da5401-d412-4c2d-8810-3299772d53a9{fill:#15003f;}.dbe28160-56d1-4816-af48-b403e971c140{fill:#130e3f;}.\38 e8e0265-61c0-4dcc-963c-94838ac0b987{fill:#1d1745;}.\39 07873c7-169e-4581-b5b7-2b7d6515d352{fill:#291f46;}.\38 76f02c6-0238-4510-98fb-414182c1d4c9{fill:#2f244d;}.\30 3ecb6a7-ab4a-459e-96ff-37030095b51b{fill:#532f4e;}.\32 f775963-0122-4a0b-9d68-67f4db37c415{fill:#31033a;}.\38 1e1ae2b-58c3-46a5-949f-e54cc50e6bfa{fill:#2b003c;}.\38 34eebf2-e5c2-41e6-93f6-f1175084adc7{fill:#330e46;}.\37 8274515-362b-4513-ad23-aaa670def7c2{fill:#211043;}.\38 d68de56-d514-427b-b5db-fff9fcf79bb1{fill:#26194a;}.\38 0e503c3-14b8-471f-b00e-2e12a30292d0{fill:#1d1142;}.a3206238-f617-4774-8663-f5bc6864d4b5{fill:#281848;}.\37 0fb6805-9c35-4151-bd98-40c02be75631{fill:#260c3e;}.\31 da2c314-66e5-4b61-8256-1d7cb2136a0d{fill:#2c0c40;}.e1e31ae5-d15d-4ea9-9900-0cca0ac258e8{fill:#2d003f;}.\36 38d4d69-4a0f-4feb-88cc-ad7f99a4496b{fill:#270742;}.\32 7971231-b2f2-4244-87fe-aa4de9af3ba6{fill:#351346;}.c56dc8eb-5fe0-454c-aa32-cded14511a96{fill:#291849;}.aa60da66-80b5-402b-be28-a1a8b222836d{fill:#3b2552;}.\33 688f07b-f9c7-467e-b2b4-5e5866b77ec3{fill:#2f2655;}.\30 b1d1640-0006-46e3-9db0-e717710f7afe{fill:#371147;}.\35 7736808-9ee4-4922-b680-4423f2c18574{fill:#271648;}.\36 88b6ebe-358e-4bee-85d2-bb3f565fec44{fill:#281d4a;}.\36 65bd8ef-7747-44ae-8735-6e4a4bd5ad13{fill:#342c4f;}.\39 89efc28-833c-479e-9beb-bb26d52ce81b{fill:#392b55;}.\32 8fcefd6-c5f3-473f-a854-787d434bdea1{fill:#3c2a56;}.e8034fe6-4239-4a3a-886e-acf9c7689a43{fill:#2f1648;}.\33 6b099d8-b425-4f2e-9ac7-991511a95566{fill:#622149;}.\38 73b102c-17e6-4412-b44e-9274672230d9{fill:#414;}.\36 f8aac12-9fa0-45fe-9e88-62c54016ca7b{fill:#5c1849;}.f6b1741c-17ef-45a5-be63-b3014d0eb0ce{fill:#46184a;}.\38 e6eff96-88e5-45d9-a0b0-98f54c23b9df{fill:#632f54;}.\34 ebc1f81-1c48-404d-a59d-cd9d469e46b8{fill:#643a5d;}.\31 0858565-79a4-4ea1-ac16-2e74b6d8a7bb{fill:#39334e;}.c4ea42a3-4223-4062-af4e-26c3c7defe46{fill:#352d51;}.\37 1e6eadf-6795-4bbf-820b-6330389e6983{fill:#372a53;}.\32 dd4070c-afd0-46a0-b150-c4dabce5e289{fill:#301c52;}.\30 71bc5e8-ecdc-4170-a044-06f13f039f5f{fill:#561f50;}.d0032088-6afa-43b0-80c9-24f69c441422{fill:#69234b;}.\37 c406331-c075-4395-943f-a770085ed357{fill:#ad3c51;}.a730a7e9-1efc-4f3b-a9df-e2a84d78fbd4{fill:#651f4e;}.b97370c0-b4d2-4321-8696-29f146b48340{fill:#82495f;}.\39 265f18b-d188-4b9c-bf6b-60b69c54133d{fill:#261252;}.d123a05e-14f9-4ae3-9290-41820fa5df78{fill:#1e004e;}.\37 8d70b6c-d730-4766-8169-cdca484801ae{fill:#180047;}.b8b83b52-3f82-4c58-b959-b9e986b306a8{fill:#180044;}.df631184-fd18-4da6-b2d7-1ed6f3954008{fill:#200048;}.ebe8920d-1074-49d0-93dd-4c1e6433b262{fill:#310048;}</style><clipPath id="978f8264-e6f9-4b7a-bf4e-1e2b42a62b97" transform="translate(-579.3 -500.55)"><rect class="a3053e91-aa79-41b5-8aed-623df1254180" x="585.01" y="504.48" width="238.1" height="68.03"/></clipPath></defs><title>bg</title><rect class="2aeff131-a9be-4d5c-a3b9-3270c3a2412d" x="5.71" y="3.93" width="238.1" height="68.03"/><g class="70fc8a8c-b3f0-4ecf-9bf5-077b484d0ef9"><polygon class="2a251d02-0bed-480a-8585-cacabac4f145" points="13.69 73.5 8.79 68.6 3.89 73.5 13.69 73.5"/><polygon class="84a0e3f5-90c4-4dc7-80e9-a32bb6862862" points="0 68.72 0 73.5 4.37 73.5 9.15 68.72 0 68.72"/><polygon class="13cc6e6f-5318-48be-b98c-113cbd0dc6c1" points="0 59.81 0 68.96 9.15 68.96 0 59.81"/><polygon class="d9858730-daca-4be5-a549-c9a0afe2736e" points="35.38 73.5 30.49 68.6 25.59 73.5 35.38 73.5"/><polygon class="13cc6e6f-5318-48be-b98c-113cbd0dc6c1" points="26.07 73.5 30.85 68.72 8.43 68.72 13.21 73.5 26.07 73.5"/><polygon class="bf55f5ca-4b2f-4a15-bc2d-3707da591ada" points="30.85 68.96 8.43 68.96 19.64 57.75 30.85 68.96"/><polygon class="12c00195-26c0-483b-9eed-344c3a0bf5cf" points="0 57.87 0 60.29 8.79 69.08 20 57.87 0 57.87"/><polygon class="c44c7a42-3b04-4810-8af5-fba857dffa3e" points="0 58.12 20 58.12 8.79 46.91 0 55.7 0 58.12"/><polygon class="cbe377d6-5b9a-4e98-add1-855488f4f7d3" points="0 47.03 0 56.18 9.15 47.03 0 47.03"/><polygon class="94d1e43b-1103-4975-88e4-f0fb56a3163c" points="0 38.12 0 47.27 9.15 47.27 0 38.12"/><polygon class="7ab7831a-81e9-4b1f-aeb3-6d3f4cf71dfc" points="57.08 73.5 52.18 68.6 47.29 73.5 57.08 73.5"/><polygon class="49d738a5-266c-4c67-aadd-27204547bcf8" points="47.77 73.5 52.55 68.72 30.13 68.72 34.9 73.5 47.77 73.5"/><polygon class="2b353232-ee12-4acc-94a3-d2e9db6087c5" points="52.55 68.96 30.13 68.96 41.34 57.75 52.55 68.96"/><polygon class="0a5c8432-150c-4676-a652-40b6c8998a63" points="30.49 69.08 19.28 57.87 41.7 57.87 30.49 69.08"/><polygon class="7c07531e-d62c-485c-8280-d9a0af258f55" points="41.7 58.12 19.28 58.12 30.49 46.91 41.7 58.12"/><polygon class="5ffcb7a5-d2ee-4c3b-b65f-cafba33b2d51" points="19.64 58.24 8.43 47.03 30.85 47.03 19.64 58.24"/><polygon class="b6a8a460-b385-458e-b1b8-06c56b803b15" points="30.85 47.27 8.43 47.27 19.64 36.06 30.85 47.27"/><polygon class="9207e631-961a-4380-abfc-010f5cc56fac" points="0 36.18 0 38.6 8.79 47.39 20 36.18 0 36.18"/><polygon class="1de6ea44-5209-4d2f-85a6-8be2fe92daef" points="0 36.42 20 36.42 8.79 25.21 0 34 0 36.42"/><polygon class="2f8abdaa-ca61-4cb3-9064-c92f1e3269a3" points="0 25.33 0 34.48 9.15 25.33 0 25.33"/><polygon class="e4fa4adf-2c0d-4d68-81a8-36ffb34e69c6" points="0 16.42 0 25.57 9.15 25.57 0 16.42"/><polygon class="8b1c974a-29dc-401e-801d-e6be9f419691" points="78.78 73.5 73.88 68.6 68.98 73.5 78.78 73.5"/><polygon class="1ba2b7f6-ced1-4626-8a0a-6ad8691fb817" points="69.46 73.5 74.24 68.72 51.82 68.72 56.6 73.5 69.46 73.5"/><polygon class="80f3abe9-0c38-4876-9b7a-73d53def092b" points="74.24 68.96 51.82 68.96 63.03 57.75 74.24 68.96"/><polygon class="4a358ae4-c2a9-4112-b1ae-dab820c339d2" points="52.18 69.08 40.97 57.87 63.39 57.87 52.18 69.08"/><polygon class="326b9d26-6d6d-4d54-9a86-376aab47da9b" points="63.39 58.12 40.97 58.12 52.18 46.91 63.39 58.12"/><polygon class="fcb53945-47a3-4888-aa91-e4fc7f09148e" points="41.34 58.24 30.13 47.03 52.55 47.03 41.34 58.24"/><polygon class="b1752a4c-38a0-4885-9ded-54a68503b796" points="52.55 47.27 30.13 47.27 41.34 36.06 52.55 47.27"/><polygon class="b4926fba-90db-40a4-b2f7-2ecdba90f394" points="30.49 47.39 19.28 36.18 41.7 36.18 30.49 47.39"/><polygon class="c2c0b7ba-d1fc-4f66-840f-c518a9d59c04" points="41.7 36.42 19.28 36.42 30.49 25.21 41.7 36.42"/><polygon class="4e551795-fa04-427e-bdba-67885b08624b" points="19.64 36.54 8.43 25.33 30.85 25.33 19.64 36.54"/><polygon class="6233740f-8a00-42da-b535-878027c7ae9c" points="30.85 25.57 8.43 25.57 19.64 14.36 30.85 25.57"/><polygon class="64fab06c-773a-4ce4-aa26-c7f244ec2432" points="0 14.48 0 16.9 8.79 25.69 20 14.48 0 14.48"/><polygon class="bbd35cb8-1087-45ce-aa7d-29d7cd4cf319" points="0 14.72 20 14.72 8.79 3.51 0 12.3 0 14.72"/><polygon class="d9d5528e-4e45-44c3-8ad7-645ff49c040f" points="0 3.63 0 12.78 9.15 3.63 0 3.63"/><polygon class="df0dea74-42d2-4d57-8599-31be5bd5aa0f" points="0 3.87 9.15 3.87 5.28 0 0 0 0 3.87"/><polygon class="1ccd54d9-49ed-46ac-80fd-7a9de1df042e" points="100.47 73.5 95.58 68.6 90.68 73.5 100.47 73.5"/><polygon class="bdf2ab87-335f-46f5-ae37-508aa9b8b76a" points="91.16 73.5 95.94 68.72 73.52 68.72 78.3 73.5 91.16 73.5"/><polygon class="51d89503-1550-4e0d-94eb-f7d7f5dbcc00" points="95.94 68.96 73.52 68.96 84.73 57.75 95.94 68.96"/><polygon class="ee1c7fcc-07c2-4a2a-83ab-584dc34b2012" points="73.88 69.08 62.67 57.87 85.09 57.87 73.88 69.08"/><polygon class="6ce034f6-c9ac-4c91-b306-306bedb4b4cd" points="85.09 58.12 62.67 58.12 73.88 46.91 85.09 58.12"/><polygon class="067855b1-1be7-477d-a009-7f9aeab1cd5c" points="63.03 58.24 51.82 47.03 74.24 47.03 63.03 58.24"/><polygon class="754d2e7f-1127-4870-8a88-ed95d70e11ad" points="74.24 47.27 51.82 47.27 63.03 36.06 74.24 47.27"/><polygon class="583f3b87-61fa-48c3-bcd4-ac2ed92c0837" points="52.18 47.39 40.97 36.18 63.39 36.18 52.18 47.39"/><polygon class="25c2885d-da2c-47e2-99ae-667719dedf20" points="63.39 36.42 40.97 36.42 52.18 25.21 63.39 36.42"/><polygon class="95b25197-1518-47f1-8174-f2d87f3eb89a" points="41.34 36.54 30.13 25.33 52.55 25.33 41.34 36.54"/><polygon class="a616ddf7-ea03-4d87-85b9-4bad25d13b8d" points="52.55 25.57 30.13 25.57 41.34 14.36 52.55 25.57"/><polygon class="c23d4559-2def-4237-83da-0022c28ecdb8" points="30.49 25.69 19.28 14.48 41.7 14.48 30.49 25.69"/><polygon class="edba1c37-94e5-487f-bcd7-b414746a82ef" points="41.7 14.72 19.28 14.72 30.49 3.51 41.7 14.72"/><polygon class="52d05221-b3d7-4606-b27a-5f46bd2fc0d3" points="19.64 14.84 8.43 3.63 30.85 3.63 19.64 14.84"/><polygon class="39ec7f3f-48e0-4fa1-9c87-6b3004dfb5b0" points="12.3 0 8.43 3.87 30.85 3.87 26.98 0 12.3 0"/><polygon class="0fabc5d4-a46e-4076-9897-a8b0151ee239" points="4.8 0 8.79 3.99 12.78 0 4.8 0"/><polygon class="ec22d1a8-1371-4e7a-9f9d-8997144ef9ab" points="122.17 73.5 117.27 68.6 112.38 73.5 122.17 73.5"/><polygon class="4e0627d2-df96-455d-8edf-492140fa6a4d" points="112.86 73.5 117.64 68.72 95.22 68.72 99.99 73.5 112.86 73.5"/><polygon class="d330b1d3-e806-43f5-acb4-a66dadccbdc6" points="117.64 68.96 95.22 68.96 106.43 57.75 117.64 68.96"/><polygon class="dbe17cda-d627-41c7-b1a3-13e09561cdbd" points="95.58 69.08 84.37 57.87 106.79 57.87 95.58 69.08"/><polygon class="14564814-66d5-47e5-8786-2157160a8608" points="106.79 58.12 84.37 58.12 95.58 46.91 106.79 58.12"/><polygon class="1145be82-18e5-460d-9dd7-07aafa45eeb5" points="84.73 58.24 73.52 47.03 95.94 47.03 84.73 58.24"/><polygon class="068a95bf-460b-4ace-af73-4fbd662d7a32" points="95.94 47.27 73.52 47.27 84.73 36.06 95.94 47.27"/><polygon class="ecfd99db-48c2-4e3b-a400-75d5dfcafd36" points="73.88 47.39 62.67 36.18 85.09 36.18 73.88 47.39"/><polygon class="25f277dc-022a-4c1b-890b-1f8611926f25" points="85.09 36.42 62.67 36.42 73.88 25.21 85.09 36.42"/><polygon class="2cf6aaf5-f967-477e-9288-ba02d2341036" points="63.03 36.54 51.82 25.33 74.24 25.33 63.03 36.54"/><polygon class="852b1866-4f75-4df6-bd09-b90181f953bc" points="74.24 25.57 51.82 25.57 63.03 14.36 74.24 25.57"/><polygon class="ee579583-65e5-45a2-9bfd-05f4e2498b41" points="52.18 25.69 40.97 14.48 63.39 14.48 52.18 25.69"/><polygon class="010951e4-a3c5-401d-bc37-6baff7f88493" points="63.39 14.72 40.97 14.72 52.18 3.51 63.39 14.72"/><polygon class="ebdda5f4-d52b-4315-8323-29330a341c6d" points="41.34 14.84 30.13 3.63 52.55 3.63 41.34 14.84"/><polygon class="96814736-e44b-4a01-a39f-a5209ce5c150" points="34 0 30.13 3.87 52.55 3.87 48.67 0 34 0"/><polygon class="d128a31b-54a3-48b6-ad21-35eb9f5f6b03" points="26.49 0 30.49 3.99 34.48 0 26.49 0"/><polygon class="982bd9c8-527a-494a-9d9d-dc3e536c4bad" points="143.87 73.5 138.97 68.6 134.07 73.5 143.87 73.5"/><polygon class="58a3a279-cf57-40f9-b5e4-e1aa15b1d06a" points="134.56 73.5 139.33 68.72 116.91 68.72 121.69 73.5 134.56 73.5"/><polygon class="cef8169a-6da0-4f24-b6fe-083f44389a42" points="139.33 68.96 116.91 68.96 128.12 57.75 139.33 68.96"/><polygon class="ab1ee936-9521-4c35-be87-ea82c297aa93" points="117.27 69.08 106.06 57.87 128.48 57.87 117.27 69.08"/><polygon class="1cfba172-86e4-4607-8c1d-4b2d60b4d5ea" points="128.48 58.12 106.06 58.12 117.27 46.91 128.48 58.12"/><polygon class="00bc276e-b33d-48d6-9331-dc6d0f2501e0" points="106.43 58.24 95.22 47.03 117.64 47.03 106.43 58.24"/><polygon class="498f051a-9c2c-4b1b-aed2-86cc9137bd62" points="117.64 47.27 95.22 47.27 106.43 36.06 117.64 47.27"/><polygon class="9635ece3-ba0b-4679-80e5-808e21951748" points="95.58 47.39 84.37 36.18 106.79 36.18 95.58 47.39"/><polygon class="175313b6-bf27-44e8-9c77-2c0a2afc8fba" points="106.79 36.42 84.37 36.42 95.58 25.21 106.79 36.42"/><polygon class="6a4901b8-28db-46ea-ba6c-d391cf0b209b" points="84.73 36.54 73.52 25.33 95.94 25.33 84.73 36.54"/><polygon class="e54cfbf4-345f-421e-8c1a-3927b42c691a" points="95.94 25.57 73.52 25.57 84.73 14.36 95.94 25.57"/><polygon class="b7d37650-cb20-4537-9ac9-196047c90deb" points="73.88 25.69 62.67 14.48 85.09 14.48 73.88 25.69"/><polygon class="d4d32467-9080-4c76-948d-a940bcbaa154" points="85.09 14.72 62.67 14.72 73.88 3.51 85.09 14.72"/><polygon class="59abfaec-3b4e-44d9-995a-bb4455e19579" points="63.03 14.84 51.82 3.63 74.24 3.63 63.03 14.84"/><polygon class="60574a57-09a7-43d9-969a-d003740ead09" points="55.7 0 51.82 3.87 74.24 3.87 70.37 0 55.7 0"/><polygon class="725452a6-ce6d-4f45-95b3-cbe2e8036e32" points="48.19 0 52.18 3.99 56.18 0 48.19 0"/><polygon class="4be581fc-5158-4836-86e8-163c2db3fa66" points="165.56 73.5 160.67 68.6 155.77 73.5 165.56 73.5"/><polygon class="f01b3949-233a-4a93-ab9b-f121912c0775" points="156.25 73.5 161.03 68.72 138.61 68.72 143.39 73.5 156.25 73.5"/><polygon class="d5c424e1-fc55-452e-9976-e171c61f013c" points="161.03 68.96 138.61 68.96 149.82 57.75 161.03 68.96"/><polygon class="99619501-5caa-4c03-ad20-ff66c9ab5db5" points="138.97 69.08 127.76 57.87 150.18 57.87 138.97 69.08"/><polygon class="d8653b4f-3aa4-4f30-ad07-750de23a59ac" points="150.18 58.12 127.76 58.12 138.97 46.91 150.18 58.12"/><polygon class="06ec1320-4033-40b2-acc8-683abe416cd6" points="128.12 58.24 116.91 47.03 139.33 47.03 128.12 58.24"/><polygon class="b99c4e51-7f0c-47bb-8f52-dd6e3af1fc2b" points="139.33 47.27 116.91 47.27 128.12 36.06 139.33 47.27"/><polygon class="39775f83-1aff-4d3b-b45c-a7edd9fb018f" points="117.27 47.39 106.06 36.18 128.48 36.18 117.27 47.39"/><polygon class="ec22d1a8-1371-4e7a-9f9d-8997144ef9ab" points="128.48 36.42 106.06 36.42 117.27 25.21 128.48 36.42"/><polygon class="9f37116b-784f-438e-aa69-44995887eb32" points="106.43 36.54 95.22 25.33 117.64 25.33 106.43 36.54"/><polygon class="79e8b5b3-6d12-4d14-87a3-0dfc3214d65a" points="117.64 25.57 95.22 25.57 106.43 14.36 117.64 25.57"/><polygon class="88d91865-9cdc-4756-af26-c22e6867e2be" points="95.58 25.69 84.37 14.48 106.79 14.48 95.58 25.69"/><polygon class="45adf214-38f4-45c4-b4dd-31ea2a482de2" points="106.79 14.72 84.37 14.72 95.58 3.51 106.79 14.72"/><polygon class="de8f65c0-b49a-4d6b-bbbe-92f2bd062b1d" points="84.73 14.84 73.52 3.63 95.94 3.63 84.73 14.84"/><polygon class="a0b6e3b8-eaca-4541-aa58-076df93fbfe4" points="77.39 0 73.52 3.87 95.94 3.87 92.06 0 77.39 0"/><polygon class="c5bfbaae-4b7f-44aa-abdc-4109cee32a38" points="69.89 0 73.88 3.99 77.87 0 69.89 0"/><polygon class="79c4691d-83da-44d5-ab6a-d75bbd798044" points="187.26 73.5 182.36 68.6 177.47 73.5 187.26 73.5"/><polygon class="52fd22c0-2af6-4c8a-b856-78cce87380f9" points="177.95 73.5 182.73 68.72 160.31 68.72 165.08 73.5 177.95 73.5"/><polygon class="9a71e9df-5f0d-4042-8033-2a57e124d8a5" points="182.73 68.96 160.31 68.96 171.52 57.75 182.73 68.96"/><polygon class="97434e0a-662d-4c4a-bfc0-96ca906e7b14" points="160.67 69.08 149.46 57.87 171.88 57.87 160.67 69.08"/><polygon class="5af0187d-f29c-4ce4-ba42-09361742167b" points="171.88 58.12 149.46 58.12 160.67 46.91 171.88 58.12"/><polygon class="4679ae00-e5cf-404b-99c7-82147284ddac" points="149.82 58.24 138.61 47.03 161.03 47.03 149.82 58.24"/><polygon class="fd7ea6a7-8368-44ea-b193-c8bb8e81a666" points="161.03 47.27 138.61 47.27 149.82 36.06 161.03 47.27"/><polygon class="53cd459d-78d7-47b9-ac88-4200ad0a0867" points="138.97 47.39 127.76 36.18 150.18 36.18 138.97 47.39"/><polygon class="0c819841-b3e0-44c3-a367-e298c5add210" points="150.18 36.42 127.76 36.42 138.97 25.21 150.18 36.42"/><polygon class="90cdcda6-6f1b-48d9-ab46-6dc6fde89a64" points="128.12 36.54 116.91 25.33 139.33 25.33 128.12 36.54"/><polygon class="20e1c899-482b-437a-82ec-0e8a21b233b7" points="139.33 25.57 116.91 25.57 128.12 14.36 139.33 25.57"/><polygon class="4e3dd053-1c27-4826-93d3-6de4b50d8a26" points="117.27 25.69 106.06 14.48 128.48 14.48 117.27 25.69"/><polygon class="1b528667-31a0-48f6-97ae-b5509dfe4e92" points="128.48 14.72 106.06 14.72 117.27 3.51 128.48 14.72"/><polygon class="d63be77d-439c-4455-8d04-caedb016fd0f" points="106.43 14.84 95.22 3.63 117.64 3.63 106.43 14.84"/><polygon class="f3eab989-52fd-4721-a7cd-5bba2ccfbbc9" points="99.09 0 95.22 3.87 117.64 3.87 113.76 0 99.09 0"/><polygon class="7da7a89f-c8df-4fc1-a1c2-4f96e6ffc0d4" points="91.58 0 95.58 3.99 99.57 0 91.58 0"/><polygon class="acd19ed0-7bfc-4389-a36d-800c7311fce4" points="208.96 73.5 204.06 68.6 199.16 73.5 208.96 73.5"/><polygon class="c438b644-fbdd-4a44-a7cb-fa236c79887c" points="199.65 73.5 204.42 68.72 182 68.72 186.78 73.5 199.65 73.5"/><polygon class="c438b644-fbdd-4a44-a7cb-fa236c79887c" points="204.42 68.96 182 68.96 193.21 57.75 204.42 68.96"/><polygon class="20965838-8b6e-4769-8e26-2e3f41f0ae93" points="182.36 69.08 171.15 57.87 193.57 57.87 182.36 69.08"/><polygon class="0bcf9580-936e-4024-8667-901dc85c3347" points="193.57 58.12 171.15 58.12 182.36 46.91 193.57 58.12"/><polygon class="0b768eb3-0edb-4042-b672-1b682a6e62f9" points="171.52 58.24 160.31 47.03 182.73 47.03 171.52 58.24"/><polygon class="66b3c4b2-df61-43dc-be12-ca3ddb73543e" points="182.73 47.27 160.31 47.27 171.52 36.06 182.73 47.27"/><polygon class="ff589bda-7cd8-4f38-91e8-3a587e341456" points="160.67 47.39 149.46 36.18 171.88 36.18 160.67 47.39"/><polygon class="a87fd902-11f0-4c24-9910-e418e1e52887" points="171.88 36.42 149.46 36.42 160.67 25.21 171.88 36.42"/><polygon class="60bbcae5-4411-42a1-b49d-f0afee22d7d7" points="149.82 36.54 138.61 25.33 161.03 25.33 149.82 36.54"/><polygon class="68546b7b-e2dc-417c-9424-e34dbb85a4c2" points="161.03 25.57 138.61 25.57 149.82 14.36 161.03 25.57"/><polygon class="81d9f055-0ac0-4083-b4d1-4716ff674647" points="138.97 25.69 127.76 14.48 150.18 14.48 138.97 25.69"/><polygon class="ab7e4d3f-4c7c-4bda-b483-69b0a96d4848" points="150.18 14.72 127.76 14.72 138.97 3.51 150.18 14.72"/><polygon class="f84bb6b6-d322-4f27-8031-b823b4a7bcee" points="128.12 14.84 116.91 3.63 139.33 3.63 128.12 14.84"/><polygon class="1d29594a-d249-4810-95c9-e515bf84e24f" points="120.79 0 116.91 3.87 139.33 3.87 135.46 0 120.79 0"/><polygon class="c8214797-cd59-408f-b61a-8811cacf2ab8" points="113.28 0 117.27 3.99 121.27 0 113.28 0"/><polygon class="5ebc3d16-3bf5-4bef-abe6-48ef6038ff15" points="230.66 73.5 225.76 68.6 220.86 73.5 230.66 73.5"/><polygon class="1c7889cd-aad2-4f74-adca-d6d595b28d99" points="221.34 73.5 226.12 68.72 203.7 68.72 208.48 73.5 221.34 73.5"/><polygon class="77b73dfa-3de7-4e6b-9595-f735b0653083" points="226.12 68.96 203.7 68.96 214.91 57.75 226.12 68.96"/><polygon class="c438b644-fbdd-4a44-a7cb-fa236c79887c" points="204.06 69.08 192.85 57.87 215.27 57.87 204.06 69.08"/><polygon class="e1141bea-eaaf-4082-bdca-d0c890a4190c" points="215.27 58.12 192.85 58.12 204.06 46.91 215.27 58.12"/><polygon class="8c8dca99-26d1-4efa-a988-a466a9e3abca" points="193.21 58.24 182 47.03 204.42 47.03 193.21 58.24"/><polygon class="cf30cdf8-10f9-4bf9-8169-fb0043e6ad44" points="204.42 47.27 182 47.27 193.21 36.06 204.42 47.27"/><polygon class="2369a495-6040-4513-b2f8-a46d4c116aa6" points="182.36 47.39 171.15 36.18 193.57 36.18 182.36 47.39"/><polygon class="f1de6d73-ba63-4bac-a8a2-f43c6c415ed2" points="193.57 36.42 171.15 36.42 182.36 25.21 193.57 36.42"/><polygon class="73a24600-f8b2-4b86-a8f0-eb83582365c7" points="171.52 36.54 160.31 25.33 182.73 25.33 171.52 36.54"/><polygon class="f8da5401-d412-4c2d-8810-3299772d53a9" points="182.73 25.57 160.31 25.57 171.52 14.36 182.73 25.57"/><polygon class="dbe28160-56d1-4816-af48-b403e971c140" points="160.67 25.69 149.46 14.48 171.88 14.48 160.67 25.69"/><polygon class="8e8e0265-61c0-4dcc-963c-94838ac0b987" points="171.88 14.72 149.46 14.72 160.67 3.51 171.88 14.72"/><polygon class="907873c7-169e-4581-b5b7-2b7d6515d352" points="149.82 14.84 138.61 3.63 161.03 3.63 149.82 14.84"/><polygon class="876f02c6-0238-4510-98fb-414182c1d4c9" points="142.48 0 138.61 3.87 161.03 3.87 157.16 0 142.48 0"/><polygon class="03ecb6a7-ab4a-459e-96ff-37030095b51b" points="134.98 0 138.97 3.99 142.97 0 134.98 0"/><polygon class="2f775963-0122-4a0b-9d68-67f4db37c415" points="249.5 70.65 247.46 68.6 242.56 73.5 249.5 73.5 249.5 70.65"/><polygon class="81e1ae2b-58c3-46a5-949f-e54cc50e6bfa" points="243.04 73.5 247.82 68.72 225.4 68.72 230.17 73.5 243.04 73.5"/><polygon class="834eebf2-e5c2-41e6-93f6-f1175084adc7" points="247.82 68.96 225.4 68.96 236.6 57.75 247.82 68.96"/><polygon class="78274515-362b-4513-ad23-aaa670def7c2" points="225.76 69.08 214.55 57.87 236.97 57.87 225.76 69.08"/><polygon class="8d68de56-d514-427b-b5db-fff9fcf79bb1" points="236.97 58.12 214.55 58.12 225.76 46.91 236.97 58.12"/><polygon class="80e503c3-14b8-471f-b00e-2e12a30292d0" points="214.91 58.24 203.7 47.03 226.12 47.03 214.91 58.24"/><polygon class="a3206238-f617-4774-8663-f5bc6864d4b5" points="226.12 47.27 203.7 47.27 214.91 36.06 226.12 47.27"/><polygon class="70fb6805-9c35-4151-bd98-40c02be75631" points="204.06 47.39 192.85 36.18 215.27 36.18 204.06 47.39"/><polygon class="1da2c314-66e5-4b61-8256-1d7cb2136a0d" points="215.27 36.42 192.85 36.42 204.06 25.21 215.27 36.42"/><polygon class="81e1ae2b-58c3-46a5-949f-e54cc50e6bfa" points="193.21 36.54 182 25.33 204.42 25.33 193.21 36.54"/><polygon class="e1e31ae5-d15d-4ea9-9900-0cca0ac258e8" points="204.42 25.57 182 25.57 193.21 14.36 204.42 25.57"/><polygon class="638d4d69-4a0f-4feb-88cc-ad7f99a4496b" points="182.36 25.69 171.15 14.48 193.57 14.48 182.36 25.69"/><polygon class="27971231-b2f2-4244-87fe-aa4de9af3ba6" points="193.57 14.72 171.15 14.72 182.36 3.51 193.57 14.72"/><polygon class="c56dc8eb-5fe0-454c-aa32-cded14511a96" points="171.52 14.84 160.31 3.63 182.73 3.63 171.52 14.84"/><polygon class="aa60da66-80b5-402b-be28-a1a8b222836d" points="164.18 0 160.31 3.87 182.73 3.87 178.85 0 164.18 0"/><polygon class="3688f07b-f9c7-467e-b2b4-5e5866b77ec3" points="156.67 0 160.67 3.99 164.66 0 156.67 0"/><polygon class="0b1d1640-0006-46e3-9db0-e717710f7afe" points="249.5 57.87 236.24 57.87 247.46 69.08 249.5 67.04 249.5 57.87"/><polygon class="57736808-9ee4-4922-b680-4423f2c18574" points="249.5 48.95 247.46 46.91 236.24 58.12 249.5 58.12 249.5 48.95"/><polygon class="688b6ebe-358e-4bee-85d2-bb3f565fec44" points="236.6 58.24 225.4 47.03 247.82 47.03 236.6 58.24"/><polygon class="665bd8ef-7747-44ae-8735-6e4a4bd5ad13" points="247.82 47.27 225.4 47.27 236.6 36.06 247.82 47.27"/><polygon class="989efc28-833c-479e-9beb-bb26d52ce81b" points="225.76 47.39 214.55 36.18 236.97 36.18 225.76 47.39"/><polygon class="28fcefd6-c5f3-473f-a854-787d434bdea1" points="236.97 36.42 214.55 36.42 225.76 25.21 236.97 36.42"/><polygon class="e8034fe6-4239-4a3a-886e-acf9c7689a43" points="214.91 36.54 203.7 25.33 226.12 25.33 214.91 36.54"/><polygon class="36b099d8-b425-4f2e-9ac7-991511a95566" points="226.12 25.57 203.7 25.57 214.91 14.36 226.12 25.57"/><polygon class="873b102c-17e6-4412-b44e-9274672230d9" points="204.06 25.69 192.85 14.48 215.27 14.48 204.06 25.69"/><polygon class="6f8aac12-9fa0-45fe-9e88-62c54016ca7b" points="215.27 14.72 192.85 14.72 204.06 3.51 215.27 14.72"/><polygon class="f6b1741c-17ef-45a5-be63-b3014d0eb0ce" points="193.21 14.84 182 3.63 204.42 3.63 193.21 14.84"/><polygon class="8e6eff96-88e5-45d9-a0b0-98f54c23b9df" points="185.88 0 182 3.87 204.42 3.87 200.55 0 185.88 0"/><polygon class="4ebc1f81-1c48-404d-a59d-cd9d469e46b8" points="178.37 0 182.36 3.99 186.36 0 178.37 0"/><polygon class="10858565-79a4-4ea1-ac16-2e74b6d8a7bb" points="249.5 36.18 236.24 36.18 247.46 47.39 249.5 45.34 249.5 36.18"/><polygon class="c4ea42a3-4223-4062-af4e-26c3c7defe46" points="249.5 27.25 247.46 25.21 236.24 36.42 249.5 36.42 249.5 27.25"/><polygon class="71e6eadf-6795-4bbf-820b-6330389e6983" points="236.6 36.54 225.4 25.33 247.82 25.33 236.6 36.54"/><polygon class="2dd4070c-afd0-46a0-b150-c4dabce5e289" points="247.82 25.57 225.4 25.57 236.6 14.36 247.82 25.57"/><polygon class="071bc5e8-ecdc-4170-a044-06f13f039f5f" points="225.76 25.69 214.55 14.48 236.97 14.48 225.76 25.69"/><polygon class="d0032088-6afa-43b0-80c9-24f69c441422" points="236.97 14.72 214.55 14.72 225.76 3.51 236.97 14.72"/><polygon class="7c406331-c075-4395-943f-a770085ed357" points="214.91 14.84 203.7 3.63 226.12 3.63 214.91 14.84"/><polygon class="a730a7e9-1efc-4f3b-a9df-e2a84d78fbd4" points="207.57 0 203.7 3.87 226.12 3.87 222.25 0 207.57 0"/><polygon class="b97370c0-b4d2-4321-8696-29f146b48340" points="200.07 0 204.06 3.99 208.06 0 200.07 0"/><polygon class="9265f18b-d188-4b9c-bf6b-60b69c54133d" points="249.5 14.48 236.24 14.48 247.46 25.69 249.5 23.65 249.5 14.48"/><polygon class="d123a05e-14f9-4ae3-9290-41820fa5df78" points="249.5 5.56 247.46 3.51 236.24 14.72 249.5 14.72 249.5 5.56"/><polygon class="78d70b6c-d730-4766-8169-cdca484801ae" points="236.6 14.84 225.4 3.63 247.82 3.63 236.6 14.84"/><polygon class="b8b83b52-3f82-4c58-b959-b9e986b306a8" points="229.27 0 225.4 3.87 247.82 3.87 243.94 0 229.27 0"/><polygon class="df631184-fd18-4da6-b2d7-1ed6f3954008" points="221.76 0 225.76 3.99 229.75 0 221.76 0"/><polygon class="ebe8920d-1074-49d0-93dd-4c1e6433b262" points="249.5 0 243.46 0 247.46 3.99 249.5 1.95 249.5 0"/></g></svg>