<svg id="c364b800-33f8-4c60-96c0-e8ea5d8734d4" data-name="Слой 1" xmlns="http://www.w3.org/2000/svg" viewBox="0 0 503 580.81">
    <title>hexagon-share</title>
    <polygon class="hex-border" points="251.5 2.89 500.5 146.65 500.5 434.17 251.5 577.93 2.5 434.17 2.5 146.65 251.5 2.89" />
    <path d="M640.1,428.72A131,131,0,0,0,580.86,287.1a5.06,5.06,0,0,0-5.31,8.62,120.92,120.92,0,0,1,55,129.5A35.47,35.47,0,1,0,640.1,428.72ZM623.3,485.19a25.3,25.3,0,1,1,25.3-25.3A25.33,25.33,0,0,1,623.3,485.19Z" transform="translate(-260.5 -93.59)" />
    <path d="M558.4,511.4a121.36,121.36,0,0,1-132.49-26.68,35.41,35.41,0,1,0-8.1,6.16,131.41,131.41,0,0,0,144.47,29.87A5.06,5.06,0,1,0,558.4,511.4Zm-183-51.51a25.3,25.3,0,1,1,25.3,25.3A25.33,25.33,0,0,1,375.4,459.89Z" transform="translate(-260.5 -93.59)" />
    <path d="M385.52,395.2l0.36,0a5.06,5.06,0,0,0,5-4.71A120.8,120.8,0,0,1,478,282.67a35.36,35.36,0,1,0-1.45-10.1A130.89,130.89,0,0,0,380.83,389.8,5.05,5.05,0,0,0,385.52,395.2ZM512,247.4a25.3,25.3,0,1,1-25.3,25.3A25.33,25.33,0,0,1,512,247.4Z" transform="translate(-260.5 -93.59)" />
</svg>
