<?xml version="1.0" encoding="utf-8"?>
<!-- Generator: Adobe Illustrator 19.2.1, SVG Export Plug-In . SVG Version: 6.00 Build 0)  -->
<svg version="1.1" id="_x36_e34e486-b052-4aad-b137-23c6dbe8c015"
	 xmlns="http://www.w3.org/2000/svg" xmlns:xlink="http://www.w3.org/1999/xlink" x="0px" y="0px" viewBox="0 0 503 580.8"
	 style="enable-background:new 0 0 503 580.81;" xml:space="preserve">
<style type="text/css">
	.st0{fill:#FFFFFF;stroke:#FFFFFF;stroke-width:10;stroke-miterlimit:10;}
	.st1{fill:none;stroke:#FFFFFF;stroke-width:5;stroke-miterlimit:10;}
	.st2{fill:#FFFFFF;}
</style>
  <polygon class="hex-border" points="251.5 2.89 500.5 146.65 500.5 434.17 251.5 577.93 2.5 434.17 2.5 146.65 251.5 2.89" />
<circle class="st0" cx="134" cy="237.5" r="29.4"/>
<circle class="st0" cx="351" cy="161.8" r="29.4"/>
<circle class="st0" cx="351" cy="414.2" r="29.4"/>
<circle class="st0" cx="351" cy="289.7" r="29.4"/>
<circle class="st0" cx="134" cy="343.5" r="29.4"/>
<g>
	<g>
		<line class="st1" x1="163.4" y1="237.5" x2="306.1" y2="169.2"/>
		<g>
			<path class="st2" d="M302.7,170.8l-7.4-4.9l0.2-0.3l13.3-0.9c4.3-1,8.6-2,12.9-3c-3.4,2.7-7,5.4-10.4,8.2l-9,9.8H302L302.7,170.8
				z"/>
		</g>
	</g>
</g>
<g>
	<g>
		<line class="st1" x1="163.4" y1="343.5" x2="310" y2="185.4"/>
		<g>
			<path class="st2" d="M307.4,188.1l-8.7-1.8l0.1-0.3l12-5.7c3.6-2.5,7.2-5,10.9-7.6c-2.3,3.8-4.5,7.6-6.7,11.4l-4.8,12.4l-0.3,0.1
				L307.4,188.1z"/>
		</g>
	</g>
</g>
<g>
	<g>
		<line class="st1" x1="163.4" y1="237.5" x2="304.9" y2="271.4"/>
		<g>
			<path class="st2" d="M301.2,270.5l-2.7-8.4l0.3-0.1l10.9,7.7c4,1.9,7.9,3.9,11.9,5.8c-4.4-0.1-8.8-0.2-13.2-0.3l-13.1,1.9
				l-0.3-0.2L301.2,270.5z"/>
		</g>
	</g>
</g>
<g>
	<g>
		<line class="st1" x1="163.4" y1="343.5" x2="305" y2="305.8"/>
		<g>
			<path class="st2" d="M301.4,306.8l-6.4-6.1l0.2-0.3l13.2,1.6c4.4-0.2,8.8-0.4,13.2-0.6c-4,2-7.8,4-11.8,6.1l-10.7,7.9l-0.3-0.1
				L301.4,306.8z"/>
		</g>
	</g>
</g>
<g>
	<g>
		<line class="st1" x1="163.4" y1="343.5" x2="305.9" y2="407.2"/>
		<g>
			<path class="st2" d="M302.5,405.7l-1.1-8.8l0.3-0.1l9.3,9.5c3.5,2.6,7.1,5.2,10.6,7.8c-4.3-0.9-8.7-1.8-13-2.7l-13.3-0.6
				l-0.2-0.3L302.5,405.7z"/>
		</g>
	</g>
</g>
<g>
	<g>
		<line class="st1" x1="163.4" y1="237.5" x2="309.6" y2="388.4"/>
		<g>
			<path class="st2" d="M307,385.7l2.3-8.6l0.3,0.1l5,12.3c2.4,3.8,4.6,7.5,7,11.3c-3.7-2.4-7.3-4.9-11-7.3l-12.1-5.5l-0.1-0.3
				L307,385.7z"/>
		</g>
	</g>
</g>
</svg>
