<svg id="68011550-0f63-4e0e-86f6-533b58b7ea07" data-name="Слой 1" xmlns="http://www.w3.org/2000/svg" viewBox="0 0 503 580.81">
    <title>hexagon-edit</title>
    <polygon class="hex-border" points="251.5 2.89 500.5 146.65 500.5 434.17 251.5 577.93 2.5 434.17 2.5 146.65 251.5 2.89" />
    <path d="M634.16,261.82c-19.77-19.77-48.61-33.51-65.23-16.89L400.82,413a4.8,4.8,0,0,0-1.27,2.24h0l-19.28,75-14.37,33.52a4.82,4.82,0,0,0,1,5.32,4.88,4.88,0,0,0,3.43,1.41,5.12,5.12,0,0,0,1.92-.38l33.53-14.37,74.94-19.27v0a4.8,4.8,0,0,0,2.23-1.26L651.08,327.08C667.69,310.46,654,281.6,634.16,261.82ZM461.63,468.4c-3.7-1.72-8.56-2.71-13.62-3.74-4.5-.92-11.3-2.31-12.82-3.83s-2.91-8.32-3.83-12.82c-1-5.07-2-9.94-3.76-13.64L559.14,302.83l34,34Zm-52.72-49.77,133-133L552.29,296,419.87,428.41a38,38,0,0,0-7.5,1c-1,.19-2.42.47-3.59,0.65A79.42,79.42,0,0,1,408.91,418.64ZM548.76,278.77l19.87-19.87,68.47,68.47-19.87,19.87ZM403.39,439.18c2.72,1.3,6.39.57,10.84-.3,1.29-.25,3.2-0.63,4.47-0.77,1.26,2.5,2.38,8,3.16,11.82,1.49,7.27,2.89,14.14,6.48,17.73s10.46,5,17.74,6.48c4.1,0.83,10.14,2.07,12.31,3.44a41.8,41.8,0,0,1,0,5.4c-0.13,3.47-.25,6.61.53,9.12L405.7,505.77l-15.45-15.46Zm-16.89,61.08,9.25,9.25-16.19,6.94Zm90.78-13.08a64.73,64.73,0,0,1-9.29.59c0-1.34,0-3.18.07-4.42a39.7,39.7,0,0,0-.16-7.52L600,343.71l10.37,10.37ZM644.23,320.23l-0.29.29-68.47-68.47,0.29-.29c11.4-11.38,34.53-.11,51.54,16.89,9.23,9.23,16.35,19.88,19.56,29.23C650.2,307.63,649.31,315.15,644.23,320.23Z" transform="translate(-260.5 -93.59)" />
</svg>
