<svg id="a6eac8b0-9c2e-430e-ba01-b2563f5c7d52" data-name="Слой 1" xmlns="http://www.w3.org/2000/svg" viewBox="0 0 503 580.81">
    <title>hexagon-upload</title>
    <polygon class="hex-border" points="251.5 2.89 500.5 146.65 500.5 434.17 251.5 577.93 2.5 434.17 2.5 146.65 251.5 2.89" />
    <path d="M591.92,345.18a80.21,80.21,0,0,0-160.07,0,76.55,76.55,0,0,0,9.67,152.49H558a6,6,0,0,0,0-12H441.52a64.55,64.55,0,0,1-3.51-129,6,6,0,0,0,5.68-6c0-.12,0-0.24,0-0.36a68.21,68.21,0,0,1,136.42,0c0,0.12,0,.24,0,0.33a6,6,0,0,0,5.7,6,64.53,64.53,0,0,1,37.43,114.56,6,6,0,1,0,7.57,9.31A76.53,76.53,0,0,0,591.92,345.18Z" transform="translate(-260.5 -93.59)" />
    <path d="M505.89,378v76.51a6,6,0,0,0,12,0V378A6,6,0,0,0,505.89,378Z" transform="translate(-260.5 -93.59)" />
    <path d="M546.21,389.13a6,6,0,0,0,4.24-10.24l-34.32-34.32a6,6,0,0,0-8.49,0l-34.32,34.32a6,6,0,0,0,8.49,8.49l30.07-30.07L542,387.37A6,6,0,0,0,546.21,389.13Z" transform="translate(-260.5 -93.59)" />
</svg>
