<svg id="6e34e486-b052-4aad-b137-23c6dbe8c015" data-name="c364b800-33f8-4c60-96c0-e8ea5d8734d4" xmlns="http://www.w3.org/2000/svg" viewBox="0 0 503 580.81">
  <defs>
    <style>
    .\34 621ac9e-364f-4392-840d-3ef123363334 {
      fill: none;
      stroke: #fff;
      stroke-miterlimit: 10;
      stroke-width: 10px;
    }

    </style>
  </defs>
  <polygon class="hex-border" points="251.5 2.89 500.5 146.65 500.5 434.17 251.5 577.93 2.5 434.17 2.5 146.65 251.5 2.89" />

  <path d="M379.6,335.1a131,131,0,0,0-59.2-141.6,5.09,5.09,0,1,0-5.3,8.7,120.93,120.93,0,0,1,55,129.5A35.2,35.2,0,1,0,379.6,335.1Zm-16.8,56.5a25.3,25.3,0,1,1,25.3-25.3h0A25.27,25.27,0,0,1,362.8,391.6Z" transform="translate(-2.5 -2.89)" />
  <path d="M297.9,417.8a121.27,121.27,0,0,1-132.5-26.7,35.61,35.61,0,1,0-8.1,6.1,131.55,131.55,0,0,0,144.5,29.9,5,5,0,0,0,2.7-6.6A5.08,5.08,0,0,0,297.9,417.8Zm-183-51.5a25.3,25.3,0,1,1,25.3,25.3h0a25.27,25.27,0,0,1-25.3-25.3h0Z" transform="translate(-2.5 -2.89)" />
  <path d="M125,301.6h0.4a5.1,5.1,0,0,0,5-4.7,120.75,120.75,0,0,1,87.1-107.8,35.53,35.53,0,1,0-1.4-10.1,130.82,130.82,0,0,0-95.7,117.2,4.9,4.9,0,0,0,4.6,5.4h0ZM251.5,153.8a25.3,25.3,0,1,1-25.3,25.3h0A25.27,25.27,0,0,1,251.5,153.8Z" transform="translate(-2.5 -2.89)" />
  <line class="4621ac9e-364f-4392-840d-3ef123363334" x1="195.1" y1="258.71" x2="325.5" y2="258.71" />
  <line class="4621ac9e-364f-4392-840d-3ef123363334" x1="173.4" y1="281.11" x2="216.8" y2="281.11" />
  <line class="4621ac9e-364f-4392-840d-3ef123363334" x1="270.8" y1="302.81" x2="325.5" y2="302.81" />
  <line class="4621ac9e-364f-4392-840d-3ef123363334" x1="226.5" y1="281.11" x2="325.5" y2="281.11" />
  <line class="4621ac9e-364f-4392-840d-3ef123363334" x1="172.9" y1="302.81" x2="262.3" y2="302.81" />
  <line class="4621ac9e-364f-4392-840d-3ef123363334" x1="173.2" y1="327.81" x2="325.7" y2="327.81" />

</svg>
