<?xml version="1.0" encoding="iso-8859-1"?>
<svg version="1.1" id="Layer_1" xmlns="http://www.w3.org/2000/svg" xmlns:xlink="http://www.w3.org/1999/xlink" x="0px" y="0px"
	 viewBox="0 0 512.001 512.001" style="enable-background:new 0 0 512.001 512.001;" xml:space="preserve">
<g>
	<g>
		<path d="M460.028,422.122H71.115V34.32c0-9.205-7.463-16.668-16.668-16.668S37.78,25.115,37.78,34.32v387.801H16.668
			C7.463,422.122,0,429.584,0,438.789s7.463,16.668,16.668,16.668H37.78v22.224c0,9.205,7.463,16.668,16.668,16.668
			s16.668-7.463,16.668-16.668v-22.224h388.913c9.205,0,16.668-7.463,16.668-16.668S469.233,422.122,460.028,422.122z"/>
	</g>
</g>
<g>
	<g>
		<path d="M457.91,37.867c-29.825,0-54.09,24.265-54.09,54.09c0,16.539,7.468,31.357,19.201,41.287L378.801,241.4
			c-14.053,0.501-26.758,6.379-36.107,15.648l-61.197-31.024c0.419-2.708,0.639-5.481,0.639-8.305
			c0-29.825-24.265-54.089-54.09-54.089s-54.089,24.264-54.089,54.089c0,13.095,4.68,25.117,12.452,34.484l-17.262,26.987
			c-4.374-1.145-8.959-1.759-13.687-1.759c-29.825,0-54.09,24.265-54.09,54.09s24.265,54.089,54.09,54.089
			c29.825,0,54.09-24.264,54.09-54.089c0-13.03-4.633-24.998-12.335-34.345l17.32-27.077c4.32,1.116,8.848,1.709,13.512,1.709
			c15.002,0,28.593-6.143,38.401-16.041l60.939,30.893c-0.469,2.859-0.723,5.789-0.723,8.779c0,29.825,24.264,54.089,54.089,54.089
			s54.09-24.264,54.09-54.089c0-18.613-9.452-35.06-23.806-44.795l42.835-104.765c1.336,0.099,2.68,0.167,4.04,0.167
			c29.825,0,54.09-24.264,54.09-54.089S487.735,37.867,457.91,37.867z M155.461,352.276c-11.444,0-20.755-9.309-20.755-20.753
			s9.311-20.755,20.755-20.755s20.755,9.311,20.755,20.755S166.905,352.276,155.461,352.276z M228.046,238.474
			c-11.444,0-20.753-9.311-20.753-20.755s9.309-20.753,20.753-20.753s20.755,9.309,20.755,20.753
			C248.801,228.896,239.696,238.474,228.046,238.474z M380.752,316.194c-11.444,0-20.753-9.309-20.753-20.753
			s9.309-20.755,20.753-20.755s20.755,9.311,20.755,20.755S392.196,316.194,380.752,316.194z M457.91,112.711
			c-11.444,0-20.755-9.309-20.755-20.753c0-11.444,9.311-20.755,20.755-20.755s20.755,9.311,20.755,20.755
			C478.665,103.401,469.354,112.711,457.91,112.711z"/>
	</g>
</g>
<g>
</g>
<g>
</g>
<g>
</g>
<g>
</g>
<g>
</g>
<g>
</g>
<g>
</g>
<g>
</g>
<g>
</g>
<g>
</g>
<g>
</g>
<g>
</g>
<g>
</g>
<g>
</g>
<g>
</g>
</svg>
