<svg id="b09cb858-56b8-41a8-9374-584b283107a3" data-name="6e34e486-b052-4aad-b137-23c6dbe8c015" xmlns="http://www.w3.org/2000/svg" viewBox="0 0 285.8 321.2"><defs><style>.\34 909243a-fa8d-4e0d-9e63-8ebfecc41920,.a1307f6d-1be2-4d72-8445-129eab0c6946{stroke:#000;stroke-miterlimit:10;}.\34 909243a-fa8d-4e0d-9e63-8ebfecc41920{stroke-width:10px;}.a1307f6d-1be2-4d72-8445-129eab0c6946{fill:none;stroke-width:5px;}</style></defs><title>ml</title><circle class="4909243a-fa8d-4e0d-9e63-8ebfecc41920" cx="34.4" cy="110.1" r="29.4"/><circle class="4909243a-fa8d-4e0d-9e63-8ebfecc41920" cx="251.4" cy="34.4" r="29.4"/><circle class="4909243a-fa8d-4e0d-9e63-8ebfecc41920" cx="251.4" cy="286.8" r="29.4"/><circle class="4909243a-fa8d-4e0d-9e63-8ebfecc41920" cx="251.4" cy="162.3" r="29.4"/><circle class="4909243a-fa8d-4e0d-9e63-8ebfecc41920" cx="34.4" cy="216.1" r="29.4"/><line class="a1307f6d-1be2-4d72-8445-129eab0c6946" x1="63.8" y1="110.1" x2="206.5" y2="41.8"/><path d="M302.7,170.8l-7.4-4.9,0.2-.3,13.3-.9,12.9-3c-3.4,2.7-7,5.4-10.4,8.2l-9,9.8H302Z" transform="translate(-99.6 -127.4)"/><line class="a1307f6d-1be2-4d72-8445-129eab0c6946" x1="63.8" y1="216.1" x2="210.4" y2="58"/><path d="M307.4,188.1l-8.7-1.8,0.1-.3,12-5.7c3.6-2.5,7.2-5,10.9-7.6-2.3,3.8-4.5,7.6-6.7,11.4l-4.8,12.4-0.3.1Z" transform="translate(-99.6 -127.4)"/><line class="a1307f6d-1be2-4d72-8445-129eab0c6946" x1="63.8" y1="110.1" x2="205.3" y2="144"/><path d="M301.2,270.5l-2.7-8.4,0.3-.1,10.9,7.7c4,1.9,7.9,3.9,11.9,5.8l-13.2-.3-13.1,1.9-0.3-.2Z" transform="translate(-99.6 -127.4)"/><line class="a1307f6d-1be2-4d72-8445-129eab0c6946" x1="63.8" y1="216.1" x2="205.4" y2="178.4"/><path d="M301.4,306.8l-6.4-6.1,0.2-.3,13.2,1.6,13.2-.6c-4,2-7.8,4-11.8,6.1l-10.7,7.9-0.3-.1Z" transform="translate(-99.6 -127.4)"/><line class="a1307f6d-1be2-4d72-8445-129eab0c6946" x1="63.8" y1="216.1" x2="206.3" y2="279.8"/><path d="M302.5,405.7l-1.1-8.8,0.3-.1,9.3,9.5c3.5,2.6,7.1,5.2,10.6,7.8l-13-2.7-13.3-.6-0.2-.3Z" transform="translate(-99.6 -127.4)"/><line class="a1307f6d-1be2-4d72-8445-129eab0c6946" x1="63.8" y1="110.1" x2="210" y2="261"/><path d="M307,385.7l2.3-8.6,0.3,0.1,5,12.3c2.4,3.8,4.6,7.5,7,11.3-3.7-2.4-7.3-4.9-11-7.3L298.5,388l-0.1-.3Z" transform="translate(-99.6 -127.4)"/></svg>