<?xml version="1.0" encoding="utf-8"?>
<!-- Generator: Adobe Illustrator 19.2.1, SVG Export Plug-In . SVG Version: 6.00 Build 0)  -->
<svg version="1.1" id="_x36_a23c297-6b96-4400-979d-da1c3ee400df"
	 xmlns="http://www.w3.org/2000/svg" xmlns:xlink="http://www.w3.org/1999/xlink" x="0px" y="0px" viewBox="0 0 15.9 16.8"
	 style="enable-background:new 0 0 15.9 16.8;" xml:space="preserve">
<title>record</title>
<g>
	<path d="M6,12.3C6,12.3,6,12.3,6,12.3H2.4c-0.2,0-0.5-0.1-0.6-0.3L0,8.8c-0.1-0.2-0.1-0.5,0-0.7l1.8-3.2c0.1-0.2,0.3-0.4,0.6-0.4H6
		c0.2,0,0.5,0.1,0.6,0.3l1.8,3.3c0.1,0.2,0.1,0.4,0,0.6L6.6,12C6.5,12.2,6.2,12.3,6,12.3z M2.9,10.9h2.7l1.4-2.5L5.6,5.9H2.9
		L1.5,8.4L2.9,10.9z"/>
</g>
<g>
	<path d="M9.9,7.5c-0.3,0-0.5-0.2-0.6-0.4L7.6,4.1c-0.1-0.2-0.1-0.5,0-0.7l1.8-3.1C9.5,0.1,9.7,0,9.9,0h3.5c0.2-0.1,0.6,0.1,0.7,0.4
		l1.7,3.1c0.1,0.2,0.1,0.5,0,0.7L14,7.2c-0.1,0.2-0.3,0.3-0.6,0.4H9.9z M10.3,6.1H13l1.4-2.4L13,1.4h-2.7L8.9,3.8L10.3,6.1z"/>
</g>
<g>
	<path d="M9.9,16.8c-0.3,0-0.5-0.1-0.6-0.4l-1.7-3.1c-0.1-0.2-0.1-0.5,0-0.7l1.8-3.1c0.1-0.2,0.3-0.3,0.6-0.4h3.5
		c0.2,0,0.5,0.1,0.6,0.4l1.7,3.1c0.1,0.2,0.1,0.5,0,0.7L14,16.5c-0.1,0.2-0.3,0.3-0.6,0.4H9.9z M10.3,15.5H13l1.3-2.3L13,10.7h-2.7
		l-1.4,2.4L10.3,15.5z"/>
</g>
</svg>
