<svg xmlns="http://www.w3.org/2000/svg">
    <g transform="scale(1 -1) translate(0 -700)">
        <path d="M371,243 C371,243,511,582,511,582 C511,582,517,582,517,582 C517,582,508,461,508,461 C508,461,508,0,508,0 C508,0,561,0,561,0 C571.666671753,0,578.833328247,1.833328247,582.5,5.5 C586.166671753,9.166671753,588,16.333328247,588,27 C588,27,588,700,588,700 C588,700,528,700,528,700 C518,700,510.333328247,697.833328247,505,693.5 C499.666671753,689.166671753,495,682.333328247,491,673 C491,673,365,374,365,374 C365,374,342,291,342,291 C342,291,336,291,336,291 C336,291,314,374,314,374 C314,374,186,700,186,700 C186,700,119,700,119,700 C108.333328247,700,101.166671753,698.166671753,97.5,694.5 C93.833328247,690.833328247,92,683.666671753,92,673 C92,673,92,0,92,0 C92,0,147,0,147,0 C157.666671753,0,164.833328247,1.833328247,168.5,5.5 C172.166671753,9.166671753,174,16.333328247,174,27 C174,27,169,461,169,461 C169,461,161,582,161,582 C161,582,167,582,167,582 C167,582,306,216,306,216 C306,216,338,216,338,216 C346.666671753,216,353.166671753,218,357.5,222 C361.833328247,226,366.333328247,233,371,243Z" />
    </g>
</svg>
