<svg xmlns="http://www.w3.org/2000/svg">
    <g transform="scale(1 -1) translate(0 -700)">
        <path d="M165,115 C165,115,165,585,165,585 C165,605.666671753,167.666671753,620.333328247,173,629 C178.333328247,637.666671753,191.333328247,642,212,642 C212,642,267,642,267,642 C287.666671753,642,300.666671753,637.666671753,306,629 C311.333328247,620.333328247,314,605.666671753,314,585 C314,585,314,115,314,115 C314,94.333328247,311.333328247,79.666671753,306,71 C300.666671753,62.333328247,287.666671753,58,267,58 C267,58,212,58,212,58 C191.333328247,58,178.333328247,62.333328247,173,71 C167.666671753,79.666671753,165,94.333328247,165,115Z M90,605 C90,605,90,95,90,95 C90,60.333328247,97.166671753,35.833328247,111.5,21.5 C125.833328247,7.166671753,150.333328247,0,185,0 C185,0,294,0,294,0 C328.666671753,0,353.166671753,7.166671753,367.5,21.5 C381.833328247,35.833328247,389,60.333328247,389,95 C389,95,389,605,389,605 C389,639.666671753,381.833328247,664.166671753,367.5,678.5 C353.166671753,692.833328247,328.666671753,700,294,700 C294,700,185,700,185,700 C150.333328247,700,125.833328247,692.833328247,111.5,678.5 C97.166671753,664.166671753,90,639.666671753,90,605Z" />
    </g>
</svg>
