<svg xmlns="http://www.w3.org/2000/svg">
    <g transform="scale(1 -1) translate(0 -700)">
        <path d="M162,642 C162,642,334,642,334,642 C344.666671753,642,351.5,643.833328247,354.5,647.5 C357.5,651.166671753,359,658.333328247,359,669 C359,669,359,700,359,700 C359,700,113,700,113,700 C102.333328247,700,95.166671753,698.166671753,91.5,694.5 C87.833328247,690.833328247,86,683.666671753,86,673 C86,673,86,361,86,361 C86,350.333328247,87.833328247,343.166671753,91.5,339.5 C95.166671753,335.833328247,102.333328247,334,113,334 C113,334,245,334,245,334 C265.666671753,334,278.666671753,329.666671753,284,321 C289.333328247,312.333328247,292,297.666671753,292,277 C292,277,292,115,292,115 C292,94.333328247,289.333328247,79.666671753,284,71 C278.666671753,62.333328247,265.666671753,58,245,58 C245,58,81,58,81,58 C85,38.666671753,91.166671753,24.166671753,99.5,14.5 C107.833328247,4.833328247,121.666671753,0,141,0 C141,0,277,0,277,0 C311.666671753,0,336.166671753,7.166671753,350.5,21.5 C364.833328247,35.833328247,372,60.333328247,372,95 C372,95,372,297,372,297 C372,331.666671753,364.833328247,356.166671753,350.5,370.5 C336.166671753,384.833328247,311.666671753,392,277,392 C277,392,161,392,161,392 C161,392,162,642,162,642Z" />
    </g>
</svg>
