<svg xmlns="http://www.w3.org/2000/svg">
    <g transform="scale(1 -1) translate(0 -700)">
        <path d="M360,429 C360,429,360,605,360,605 C360,639.666671753,352.833328247,664.166671753,338.5,678.5 C324.166671753,692.833328247,299.666671753,700,265,700 C265,700,146,700,146,700 C126.666671753,700,112.833328247,695.166671753,104.5,685.5 C96.166671753,675.833328247,90,661.333328247,86,642 C86,642,233,642,233,642 C253.666671753,642,266.666671753,637.666671753,272,629 C277.333328247,620.333328247,280,605.666671753,280,585 C280,585,280,449,280,449 C280,437,279.5,427.333328247,278.5,420 C277.5,412.666671753,275.333328247,407,272,403 C268.666671753,399,263.833328247,396.166671753,257.5,394.5 C251.166671753,392.833328247,243,392,233,392 C233,392,175,392,175,392 C156.333328247,392,141,390.666671753,129,388 C117,385.333328247,107.333328247,380.5,100,373.5 C92.666671753,366.5,87.5,356.833328247,84.5,344.5 C81.5,332.166671753,80,316.333328247,80,297 C80,297,80,95,80,95 C80,60.333328247,87.166671753,35.833328247,101.5,21.5 C115.833328247,7.166671753,140.333328247,0,175,0 C175,0,333,0,333,0 C343.666671753,0,350.833328247,1.833328247,354.5,5.5 C358.166671753,9.166671753,360,16.333328247,360,27 C360,27,360,58,360,58 C360,58,207,58,207,58 C186.333328247,58,173.333328247,62.333328247,168,71 C162.666671753,79.666671753,160,94.333328247,160,115 C160,115,160,277,160,277 C160,289,160.5,298.666671753,161.5,306 C162.5,313.333328247,164.666671753,319,168,323 C171.333328247,327,176.166671753,329.833328247,182.5,331.5 C188.833328247,333.166671753,197,334,207,334 C207,334,265,334,265,334 C283.666671753,334,299,335.333328247,311,338 C323,340.666671753,332.666671753,345.5,340,352.5 C347.333328247,359.5,352.5,369.166671753,355.5,381.5 C358.5,393.833328247,360,409.666671753,360,429Z" />
    </g>
</svg>
