<svg xmlns="http://www.w3.org/2000/svg">
    <g transform="scale(1 -1) translate(0 -700)">
        <path d="M258,585 C258,585,258,449,258,449 C258,429.666671753,255.333328247,415.5,250,406.5 C244.666671753,397.5,233,392.666671753,215,392 C215,392,152,392,152,392 C141.333328247,392,134.166671753,390.166671753,130.5,386.5 C126.833328247,382.833328247,125,375.666671753,125,365 C125,365,125,334,125,334 C125,334,209,334,209,334 C229.666671753,334,244.333328247,329.666671753,253,321 C261.666671753,312.333328247,266,297.666671753,266,277 C266,277,266,115,266,115 C266,94.333328247,263.333328247,79.666671753,258,71 C252.666671753,62.333328247,239.666671753,58,219,58 C219,58,72,58,72,58 C76,38.666671753,82.166671753,24.166671753,90.5,14.5 C98.833328247,4.833328247,112.666671753,0,132,0 C132,0,251,0,251,0 C285.666671753,0,310.166671753,7.166671753,324.5,21.5 C338.833328247,35.833328247,346,60.333328247,346,95 C346,95,346,277,346,277 C346,328.333328247,327.666671753,358.666671753,291,368 C291,368,291,369,291,369 C310.333328247,373.666671753,323,383,329,397 C335,411,338,431.666671753,338,459 C338,459,338,605,338,605 C338,639.666671753,330.833328247,664.166671753,316.5,678.5 C302.166671753,692.833328247,277.666671753,700,243,700 C243,700,124,700,124,700 C104.666671753,700,90.833328247,695.166671753,82.5,685.5 C74.166671753,675.833328247,68,661.333328247,64,642 C64,642,211,642,211,642 C231.666671753,642,244.666671753,637.666671753,250,629 C255.333328247,620.333328247,258,605.666671753,258,585Z" />
    </g>
</svg>
