<svg xmlns="http://www.w3.org/2000/svg">
    <g transform="scale(1 -1) translate(0 -700)">
        <path d="M173,308 C173,308,232,308,232,308 C242.666671753,308,249.5,309.833328247,252.5,313.5 C255.5,317.166671753,257,324.333328247,257,335 C257,335,257,366,257,366 C257,366,205,366,205,366 C184.333328247,366,171.333328247,370.333328247,166,379 C160.666671753,387.666671753,158,402.333328247,158,423 C158,423,158,589,158,589 C158,609.666671753,160.666671753,624.333328247,166,633 C171.333328247,641.666671753,184.333328247,646,205,646 C205,646,250,646,250,646 C270.666671753,646,283.666671753,641.666671753,289,633 C294.333328247,624.333328247,297,609.666671753,297,589 C297,589,297,115,297,115 C297,94.333328247,294.333328247,79.666671753,289,71 C283.666671753,62.333328247,270.666671753,58,250,58 C250,58,92,58,92,58 C96,38.666671753,102.166671753,24.166671753,110.5,14.5 C118.833328247,4.833328247,132.666671753,0,152,0 C152,0,282,0,282,0 C316.666671753,0,341.166671753,7.166671753,355.5,21.5 C369.833328247,35.833328247,377,60.333328247,377,95 C377,95,377,605,377,605 C377,639.666671753,369.833328247,664.166671753,355.5,678.5 C341.166671753,692.833328247,316.666671753,700,282,700 C282,700,173,700,173,700 C138.333328247,700,113.833328247,692.833328247,99.5,678.5 C85.166671753,664.166671753,78,639.666671753,78,605 C78,605,78,403,78,403 C78,368.333328247,85.166671753,343.833328247,99.5,329.5 C113.833328247,315.166671753,138.333328247,308,173,308Z" />
    </g>
</svg>
