<svg xmlns="http://www.w3.org/2000/svg">
    <g transform="scale(1 -1) translate(0 -700)">
        <path d="M172,700 C172,700,119,700,119,700 C108.333328247,700,101.166671753,698.166671753,97.5,694.5 C93.833328247,690.833328247,92,683.666671753,92,673 C92,673,92,0,92,0 C92,0,145,0,145,0 C155.666671753,0,162.833328247,1.833328247,166.5,5.5 C170.166671753,9.166671753,172,16.333328247,172,27 C172,27,172,700,172,700Z M462,0 C462,0,272,369,272,369 C272,369,446,700,446,700 C446,700,404,700,404,700 C393.333328247,700,383.333328247,697.833328247,374,693.5 C364.666671753,689.166671753,357.666671753,682.333328247,353,673 C353,673,212,399,212,399 C212,399,212,328,212,328 C212,328,361,27,361,27 C365.666671753,17.666671753,372.666671753,10.833328247,382,6.5 C391.333328247,2.166671753,401.333328247,0,412,0 C412,0,462,0,462,0Z" />
    </g>
</svg>
