<svg xmlns="http://www.w3.org/2000/svg">
    <g transform="scale(1 -1) translate(0 -700)">
        <path d="M315,277 C315,277,315,115,315,115 C315,94.333328247,312.333328247,79.666671753,307,71 C301.666671753,62.333328247,288.666671753,58,268,58 C268,58,216,58,216,58 C195.333328247,58,182.333328247,62.333328247,177,71 C171.666671753,79.666671753,169,94.333328247,169,115 C169,115,169,277,169,277 C169,297.666671753,171.666671753,312.333328247,177,321 C182.333328247,329.666671753,195.333328247,334,216,334 C216,334,268,334,268,334 C288.666671753,334,301.666671753,329.666671753,307,321 C312.333328247,312.333328247,315,297.666671753,315,277Z M315,589 C315,589,315,449,315,449 C315,428.333328247,312.333328247,413.666671753,307,405 C301.666671753,396.333328247,288.666671753,392,268,392 C268,392,216,392,216,392 C195.333328247,392,182.333328247,396.333328247,177,405 C171.666671753,413.666671753,169,428.333328247,169,449 C169,449,169,589,169,589 C169,609.666671753,171.666671753,624.333328247,177,633 C182.333328247,641.666671753,195.333328247,646,216,646 C216,646,268,646,268,646 C288.666671753,646,301.666671753,641.666671753,307,633 C312.333328247,624.333328247,315,609.666671753,315,589Z M89,277 C89,277,89,95,89,95 C89,60.333328247,95.333328247,35.833328247,108,21.5 C120.666671753,7.166671753,144.333328247,0,179,0 C179,0,308,0,308,0 C342.666671753,0,365.833328247,7.166671753,377.5,21.5 C389.166671753,35.833328247,395,60.333328247,395,95 C395,95,395,277,395,277 C395,328.333328247,376.666671753,358.666671753,340,368 C340,368,340,369,340,369 C359.333328247,373.666671753,373.333328247,383,382,397 C390.666671753,411,395,431.666671753,395,459 C395,459,395,605,395,605 C395,639.666671753,388.666671753,664.166671753,376,678.5 C363.333328247,692.833328247,339.666671753,700,305,700 C305,700,179,700,179,700 C144.333328247,700,120.666671753,692.833328247,108,678.5 C95.333328247,664.166671753,89,639.666671753,89,605 C89,605,89,459,89,459 C89,431.666671753,93.333328247,411,102,397 C110.666671753,383,124.666671753,373.666671753,144,369 C144,369,144,368,144,368 C107.333328247,358.666671753,89,328.333328247,89,277Z" />
    </g>
</svg>
