<svg xmlns="http://www.w3.org/2000/svg">
    <g transform="scale(1 -1) translate(0 -700)">
        <path d="M378,27 C378,27,378,700,378,700 C378,700,325,700,325,700 C314.333328247,700,307.166671753,698.166671753,303.5,694.5 C299.833328247,690.833328247,298,683.666671753,298,673 C298,673,298,392,298,392 C298,392,195,392,195,392 C185,392,176.833328247,392.833328247,170.5,394.5 C164.166671753,396.166671753,159.333328247,399,156,403 C152.666671753,407,150.5,412.666671753,149.5,420 C148.5,427.333328247,148,437,148,449 C148,449,148,700,148,700 C148,700,95,700,95,700 C84.333328247,700,77.166671753,698.166671753,73.5,694.5 C69.833328247,690.833328247,68,683.666671753,68,673 C68,673,68,429,68,429 C68,409.666671753,69.5,393.833328247,72.5,381.5 C75.5,369.166671753,80.666671753,359.5,88,352.5 C95.333328247,345.5,105,340.666671753,117,338 C129,335.333328247,144.333328247,334,163,334 C163,334,298,334,298,334 C298,334,298,0,298,0 C298,0,351,0,351,0 C361.666671753,0,368.833328247,1.833328247,372.5,5.5 C376.166671753,9.166671753,378,16.333328247,378,27Z" />
    </g>
</svg>
