<svg xmlns="http://www.w3.org/2000/svg">
    <g transform="scale(1 -1) translate(0 -700)">
        <path d="M304,392 C304,392,235,392,235,392 C224.333328247,392,217.5,390.166671753,214.5,386.5 C211.5,382.833328247,210,375.666671753,210,365 C210,365,210,334,210,334 C210,334,272,334,272,334 C292.666671753,334,305.666671753,329.666671753,311,321 C316.333328247,312.333328247,319,297.666671753,319,277 C319,277,319,115,319,115 C319,94.333328247,316.333328247,79.666671753,311,71 C305.666671753,62.333328247,292.666671753,58,272,58 C272,58,217,58,217,58 C196.333328247,58,183.333328247,62.333328247,178,71 C172.666671753,79.666671753,170,94.333328247,170,115 C170,115,170,585,170,585 C170,605.666671753,172.666671753,620.333328247,178,629 C183.333328247,637.666671753,196.333328247,642,217,642 C217,642,384,642,384,642 C380,661.333328247,373.833328247,675.833328247,365.5,685.5 C357.166671753,695.166671753,343.333328247,700,324,700 C324,700,185,700,185,700 C150.333328247,700,125.833328247,692.833328247,111.5,678.5 C97.166671753,664.166671753,90,639.666671753,90,605 C90,605,90,95,90,95 C90,60.333328247,97.166671753,35.833328247,111.5,21.5 C125.833328247,7.166671753,150.333328247,0,185,0 C185,0,304,0,304,0 C338.666671753,0,363.166671753,7.166671753,377.5,21.5 C391.833328247,35.833328247,399,60.333328247,399,95 C399,95,399,297,399,297 C399,331.666671753,391.833328247,356.166671753,377.5,370.5 C363.166671753,384.833328247,338.666671753,392,304,392Z" />
    </g>
</svg>
