<svg xmlns="http://www.w3.org/2000/svg">
    <g transform="scale(1 -1) translate(0 -700)">
        <path d="M322,700 C322,700,80,700,80,700 C69.333328247,700,62.166671753,698.166671753,58.5,694.5 C54.833328247,690.833328247,53,683.666671753,53,673 C53,673,53,642,53,642 C53,642,269,642,269,642 C269,642,98,0,98,0 C98,0,174,0,174,0 C174,0,346,642,346,642 C346,642,346,673,346,673 C345.333328247,683.666671753,343.666671753,690.833328247,341,694.5 C338.333328247,698.166671753,332,700,322,700Z" />
    </g>
</svg>
