<?xml version="1.0" encoding="utf-8"?>
<svg version="1.1" xmlns="http://www.w3.org/2000/svg" xmlns:xlink="http://www.w3.org/1999/xlink" x="0px" y="0px" viewBox="0 0 490 490" style="enable-background:new 0 0 490 490;" xml:space="preserve">
    <style type="text/css">
    .st0 {
        fill: url(#SVGID_1_);
    }

    .st1 {
        fill: url(#SVGID_2_);
    }

    .st2 {
        stroke: #000000;
        stroke-miterlimit: 10;
    }

    .st3 {
        fill: none;
        <!-- stroke: #000000;
        --> stroke-miterlimit: 10;
    }

    .st4 {
        fill: cyan;
        stroke: darkcyan;
        stroke-width: 5;
        stroke-miterlimit: 10;
    }

    #water {
        fill: cyan;
    }
    </style>
    <g>
        <radialGradient id="SVGID_1_" cx="145.589" cy="245" r="177.9704" gradientUnits="userSpaceOnUse">
            <stop offset="0" style="stop-color:#777;stop-opacity:0" />
            <stop offset="0.3" style="stop-color:#fff;stop-opacity:0.1" />
            <stop offset="1" style="stop-color:#fff;stop-opacity:0.9" />
        </radialGradient>
        <path id="st0" class="st0" d="M266.6,444.2c0-11.8-9.6-21.4-21.4-21.4c-110,0-199.3-89.2-199.3-199.3c0-109.2,87.8-197.9,196.7-199.2
    C122,25.7,24.5,124,24.5,245c0,121.9,98.8,220.7,220.7,220.7C257,465.7,266.6,456.1,266.6,444.2z" />
        <radialGradient id="SVGID_2_" cx="344.411" cy="245" r="177.9704" gradientUnits="userSpaceOnUse">
            <stop offset="0" style="stop-color:#777;stop-opacity:0" />
            <stop offset="0.3" style="stop-color:#fff;stop-opacity:0.1" />
            <stop offset="1" style="stop-color:#fff;stop-opacity:0.9" />
        </radialGradient>
        <path id="st1" class="st1" d="M244.8,24.3c-11.8,0-21.4,9.6-21.4,21.4s9.6,21.4,21.4,21.4c110,0,199.3,89.2,199.3,199.3
    c0,109.2-87.8,197.9-196.7,199.2C368,464.3,465.5,366,465.5,245C465.5,123.1,366.7,24.3,244.8,24.3z" />
    </g>
    <g style="fill: white;">
        <g>
            <path d="M199.2,149.8L199.2,149.8l2.7,0c4.5,0,8.2,3.7,8.2,8.2v62.1l-43.5,81.4c-5.7,10.6-5.4,23.6,0.8,34
      c6.2,10.3,17.5,16.7,29.6,16.7H293c12,0,23.4-6.4,29.6-16.7c6.2-10.3,6.5-23.3,0.8-34l-43.5-81.4V158c0-4.5,3.7-8.2,8.2-8.2h2.3
       M314.5,330.7c-4.5,7.5-12.8,12.2-21.5,12.2H197c-8.8,0-17-4.7-21.5-12.2c-4.5-7.5-4.7-17-0.6-24.7l44.6-83.5V158
      c0-4.5,3.7-8.2,8.2-8.2h34.6c4.5,0,8.2,3.7,8.2,8.2v64.4l44.6,83.5C319.2,313.7,319,323.2,314.5,330.7z" />
            <path id="water" d="M211.7,257.8c-9.5,17.8-19,35.6-28.5,53.4c-2.6,4.9-2.5,10.8,0.4,15.5c2.8,4.7,8,7.6,13.5,7.6H293
      c5.5,0,10.6-2.9,13.5-7.6c2.8-4.7,3-10.6,0.4-15.5l-28.5-53.4c-10.5-6.2-16.8-5.8-20.6-4.2c-3.3,1.4-3.5,3.1-7.1,4.3
      c-6.4,2.1-11.2-1.7-18.1-3.1C227.7,253.9,220.9,253.8,211.7,257.8z" />
        </g>
        <path d="M293.3,150.4h-96.7c-3.5,0-6.3-2.9-6.3-6.3v0c0-3.5,2.9-6.3,6.3-6.3h96.7c3.5,0,6.3,2.8,6.3,6.3v0
    C299.7,147.6,296.8,150.4,293.3,150.4z" />
    </g>
    <g>
        <path id="m1" class="st3" d="M270,296c-12-14-21-30-24-49c-4-24,3-47,14-68c9-31,0-66-21-90" />
    </g>
    <g>
        <path id="m2" class="st3" d="M198.8,332.6c33.3-29.1,55.3-59,60.5-83.4c2.5-14.5,2.8-28-4.4-37.9c-6.7-8.8-16.6-14.7-20.4-24.5
    C228,158,246.8,114,272.1,71.4" />
    </g>
    <g>
        <path id="m3" class="st3" d="M238.2,297c-17-33-18-75,1-107c31-33,36-84,13-123" />
    </g>
    <circle class="st4" r="10">
        <animate attributeName="r" begin="0s" dur="5s" repeatCount="indefinite" from="10" to="0" values="0; 10; 8; 5; 0" keyTimes="0; 0.2; 0.8; 0.9; 1" />
        <animateMotion dur="5s" repeatCount="indefinite">
            <mpath xlink:href="#m1" />
        </animateMotion>
    </circle>
    <circle class="st4" r="12">
        <animate attributeName="r" begin="0s" dur="4s" repeatCount="indefinite" from="12" to="0" values="0; 12; 8; 5; 0" keyTimes="0; 0.2; 0.8; 0.9; 1" />
        <animateMotion dur="4s" repeatCount="indefinite">
            <mpath xlink:href="#m2" />
        </animateMotion>
    </circle>
    <circle class="st4" r="15">
        <animate attributeName="r" begin="0s" dur="3s" repeatCount="indefinite" from="15" to="0" values="0; 15; 8; 5; 0" keyTimes="0; 0.2; 0.8; 0.9; 1" />
        <animateMotion dur="3s" repeatCount="indefinite">
            <mpath xlink:href="#m3" />
        </animateMotion>
    </circle>
    <animateTransform xlink:href="#st0" attributeName="transform" attributeType="XML" type="rotate" from="0 245 245" to="-360 245 245" dur="1s" begin="0s" repeatCount="indefinite" fill="freeze" />
    <animateTransform xlink:href="#st1" attributeName="transform" attributeType="XML" type="rotate" from="0 245 245" to="-360 245 245" dur="1s" begin="0s" repeatCount="indefinite" fill="freeze" />
</svg>
