<svg id="9f3ecdb8-307f-49f1-9c48-ad213804119a" data-name="Слой 1" xmlns="http://www.w3.org/2000/svg" viewBox="0 0 309 700"><title>digit-6</title><path d="M304,308H235c-10.7,0-17.5,1.8-20.5,5.5S210,324.3,210,335v31h62c20.7,0,33.7,4.3,39,13s8,23.3,8,44V585c0,20.7-2.7,35.3-8,44s-18.3,13-39,13H217c-20.7,0-33.7-4.3-39-13s-8-23.3-8-44V115c0-20.7,2.7-35.3,8-44s18.3-13,39-13H384q-6-28.95-18.5-43.5C357.2,4.8,343.3,0,324,0H185q-52,0-73.5,21.5T90,95V605q0,52.05,21.5,73.5T185,700H304q52.05,0,73.5-21.5T399,605V403q0-52.05-21.5-73.5T304,308Z" transform="translate(-90)"/></svg>