<svg xmlns="http://www.w3.org/2000/svg"><path d="M304 308h-69c-10.7 0-17.5 1.8-20.5 5.5S210 324.3 210 335v31h62c20.7 0 33.7 4.3 39 13 5.3 8.7 8 23.3 8 44v162c0 20.7-2.7 35.3-8 44-5.3 8.7-18.3 13-39 13h-55c-20.7 0-33.7-4.3-39-13-5.3-8.7-8-23.3-8-44V115c0-20.7 2.7-35.3 8-44 5.3-8.7 18.3-13 39-13h167c-4-19.3-10.2-33.8-18.5-43.5C357.2 4.8 343.3 0 324 0H185c-34.7 0-59.2 7.2-73.5 21.5C97.2 35.8 90 60.3 90 95v510c0 34.7 7.2 59.2 21.5 73.5 14.3 14.3 38.8 21.5 73.5 21.5h119c34.7 0 59.2-7.2 73.5-21.5 14.3-14.3 21.5-38.8 21.5-73.5V403c0-34.7-7.2-59.2-21.5-73.5-14.3-14.3-38.8-21.5-73.5-21.5z"/></svg>