<svg xmlns="http://www.w3.org/2000/svg"><path d="M258 115v136c0 19.3-2.7 33.5-8 42.5s-17 13.8-35 14.5h-63c-10.7 0-17.8 1.8-21.5 5.5-3.7 3.7-5.5 10.8-5.5 21.5v31h84c20.7 0 35.3 4.3 44 13 8.7 8.7 13 23.3 13 44v162c0 20.7-2.7 35.3-8 44-5.3 8.7-18.3 13-39 13H72c4 19.3 10.2 33.8 18.5 43.5 8.3 9.7 22.2 14.5 41.5 14.5h119c34.7 0 59.2-7.2 73.5-21.5 14.3-14.3 21.5-38.8 21.5-73.5V423c0-51.3-18.3-81.7-55-91v-1c19.3-4.7 32-14 38-28s9-34.7 9-62V95c0-34.7-7.2-59.2-21.5-73.5C302.2 7.2 277.7 0 243 0H124c-19.3 0-33.2 4.8-41.5 14.5C74.2 24.2 68 38.7 64 58h147c20.7 0 33.7 4.3 39 13 5.3 8.7 8 23.3 8 44z"/></svg>