<svg xmlns="http://www.w3.org/2000/svg"><path d="M360 271V95c0-34.7-7.2-59.2-21.5-73.5C324.2 7.2 299.7 0 265 0H146c-19.3 0-33.2 4.8-41.5 14.5C96.2 24.2 90 38.7 86 58h147c20.7 0 33.7 4.3 39 13 5.3 8.7 8 23.3 8 44v136c0 12-.5 21.7-1.5 29-1 7.3-3.2 13-6.5 17s-8.2 6.8-14.5 8.5c-6.3 1.7-14.5 2.5-24.5 2.5h-58c-18.7 0-34 1.3-46 4s-21.7 7.5-29 14.5c-7.3 7-12.5 16.7-15.5 29S80 383.7 80 403v202c0 34.7 7.2 59.2 21.5 73.5 14.3 14.3 38.8 21.5 73.5 21.5h158c10.7 0 17.8-1.8 21.5-5.5 3.7-3.7 5.5-10.8 5.5-21.5v-31H207c-20.7 0-33.7-4.3-39-13-5.3-8.7-8-23.3-8-44V423c0-12 .5-21.7 1.5-29 1-7.3 3.2-13 6.5-17s8.2-6.8 14.5-8.5c6.3-1.7 14.5-2.5 24.5-2.5h58c18.7 0 34-1.3 46-4s21.7-7.5 29-14.5c7.3-7 12.5-16.7 15.5-29s4.5-28.2 4.5-47.5z"/></svg>