<svg xmlns="http://www.w3.org/2000/svg"><path d="M162 58h172c10.7 0 17.5-1.8 20.5-5.5S359 41.7 359 31V0H113c-10.7 0-17.8 1.8-21.5 5.5C87.8 9.2 86 16.3 86 27v312c0 10.7 1.8 17.8 5.5 21.5 3.7 3.7 10.8 5.5 21.5 5.5h132c20.7 0 33.7 4.3 39 13 5.3 8.7 8 23.3 8 44v162c0 20.7-2.7 35.3-8 44-5.3 8.7-18.3 13-39 13H81c4 19.3 10.2 33.8 18.5 43.5 8.3 9.7 22.2 14.5 41.5 14.5h136c34.7 0 59.2-7.2 73.5-21.5 14.3-14.3 21.5-38.8 21.5-73.5V403c0-34.7-7.2-59.2-21.5-73.5-14.3-14.3-38.8-21.5-73.5-21.5H161l1-250z"/></svg>