<svg xmlns="http://www.w3.org/2000/svg"><path d="M315 423v162c0 20.7-2.7 35.3-8 44-5.3 8.7-18.3 13-39 13h-52c-20.7 0-33.7-4.3-39-13-5.3-8.7-8-23.3-8-44V423c0-20.7 2.7-35.3 8-44 5.3-8.7 18.3-13 39-13h52c20.7 0 33.7 4.3 39 13 5.3 8.7 8 23.3 8 44zm0-312v140c0 20.7-2.7 35.3-8 44-5.3 8.7-18.3 13-39 13h-52c-20.7 0-33.7-4.3-39-13-5.3-8.7-8-23.3-8-44V111c0-20.7 2.7-35.3 8-44 5.3-8.7 18.3-13 39-13h52c20.7 0 33.7 4.3 39 13 5.3 8.7 8 23.3 8 44zM89 423v182c0 34.7 6.3 59.2 19 73.5 12.7 14.3 36.3 21.5 71 21.5h129c34.7 0 57.8-7.2 69.5-21.5 11.7-14.3 17.5-38.8 17.5-73.5V423c0-51.3-18.3-81.7-55-91v-1c19.3-4.7 33.3-14 42-28 8.7-14 13-34.7 13-62V95c0-34.7-6.3-59.2-19-73.5C363.3 7.2 339.7 0 305 0H179c-34.7 0-58.3 7.2-71 21.5C95.3 35.8 89 60.3 89 95v146c0 27.3 4.3 48 13 62s22.7 23.3 42 28v1c-36.7 9.3-55 39.7-55 91z"/></svg>