<svg xmlns="http://www.w3.org/2000/svg"><path d="M173 392h59c10.7 0 17.5-1.8 20.5-5.5s4.5-10.8 4.5-21.5v-31h-52c-20.7 0-33.7-4.3-39-13-5.3-8.7-8-23.3-8-44V111c0-20.7 2.7-35.3 8-44 5.3-8.7 18.3-13 39-13h45c20.7 0 33.7 4.3 39 13 5.3 8.7 8 23.3 8 44v474c0 20.7-2.7 35.3-8 44-5.3 8.7-18.3 13-39 13H92c4 19.3 10.2 33.8 18.5 43.5 8.3 9.7 22.2 14.5 41.5 14.5h130c34.7 0 59.2-7.2 73.5-21.5 14.3-14.3 21.5-38.8 21.5-73.5V95c0-34.7-7.2-59.2-21.5-73.5C341.2 7.2 316.7 0 282 0H173c-34.7 0-59.2 7.2-73.5 21.5C85.2 35.8 78 60.3 78 95v202c0 34.7 7.2 59.2 21.5 73.5 14.3 14.3 38.8 21.5 73.5 21.5z"/></svg>