<svg id="c8a28821-1309-45c8-b545-e09a54f2e2ff" data-name="31c0447e-f6fc-4442-9ac6-51376a42e5df" xmlns="http://www.w3.org/2000/svg" viewBox="0 0 26.03 29.5"><defs><style>.\34 e8a4114-4864-4b9c-a204-6c1ba9d7f6ab{fill:#999;}.\32 85cfb2a-448d-4f03-ad82-a1d3cedaf488{font-size:5.29px;fill:#9a9a9a;stroke:#9a9a9a;stroke-miterlimit:10;stroke-width:0.3px;font-family:Arial;}.\37 d04e764-4138-410e-8e5d-e9775a284c9b{fill:#ffd57f;}</style></defs><title>7z</title><path class="4e8a4114-4864-4b9c-a204-6c1ba9d7f6ab" d="M19.2,0H3.2V1.8h1V1H18.5V7.9h6.9V28.5H4.2V6.8h-1V29.5H26.3V7.2Zm0.3,6.9V1.7l5.25,5.2H19.5Z" transform="translate(-0.27)"/><text class="285cfb2a-448d-4f03-ad82-a1d3cedaf488" transform="translate(0.15 6.06)">7Z</text><polyline class="7d04e764-4138-410e-8e5d-e9775a284c9b" points="16.45 22.79 13.92 22.79 13.92 20.79 11.39 20.79 11.39 18.79 13.92 18.79 13.92 20.79 16.45 20.79"/><polyline class="7d04e764-4138-410e-8e5d-e9775a284c9b" points="16.45 14.8 13.92 14.8 13.92 16.8 16.45 16.8 16.45 18.79 13.92 18.79 13.92 16.8 11.39 16.8 11.39 14.8 13.92 14.8 13.92 12.8 11.39 12.8 11.39 10.8 13.92 10.8 13.92 12.8 16.45 12.8"/><path class="7d04e764-4138-410e-8e5d-e9775a284c9b" d="M16.09,23.47H12.37a0.71,0.71,0,0,0-.72.71v1.1a0.72,0.72,0,0,0,.72.72h3.72a0.71,0.71,0,0,0,.71-0.72v-1.1A0.71,0.71,0,0,0,16.09,23.47Zm-0.86,1.79h-2a0.53,0.53,0,0,1-.53-0.53,0.53,0.53,0,0,1,.53-0.53h2a0.53,0.53,0,0,1,.53.53A0.53,0.53,0,0,1,15.23,25.26Z" transform="translate(-0.27)"/></svg>