<svg id="b99cf7a2-88a4-42a2-8f83-26fb0ecfbe8b" data-name="31c0447e-f6fc-4442-9ac6-51376a42e5df" xmlns="http://www.w3.org/2000/svg" viewBox="0 0 26.19 29.5"><defs><style>.\33 749ee95-1de3-4d9b-a7a2-73ff02accc55{fill:#999;}.c4a2de82-e108-4917-9b97-79e42f16d3b9{font-size:5.29px;fill:#9a9a9a;stroke:#9a9a9a;stroke-miterlimit:10;stroke-width:0.3px;font-family:Arial;}.\37 8596faf-08d4-4f9a-8e6f-f947f2e465d6{fill:#aad0ff;}</style></defs><title>aac</title><path class="3749ee95-1de3-4d9b-a7a2-73ff02accc55" d="M19.2,0H3.2V1.8h1V1H18.5V7.9h6.9V28.5H4.2V6.8h-1V29.5H26.3V7.2Zm0.3,6.9V1.7l5.25,5.2H19.5Z" transform="translate(-0.11)"/><text class="c4a2de82-e108-4917-9b97-79e42f16d3b9" transform="translate(0.31 6.06)">AAC</text><path class="78596faf-08d4-4f9a-8e6f-f947f2e465d6" d="M22.13,11.27v9.85a2.76,2.76,0,1,1-2.76-2.76,2.68,2.68,0,0,1,1.18.27V14l-7.88,1.68v7a2.76,2.76,0,1,1-2.76-2.76,2.68,2.68,0,0,1,1.18.27V13.63Z" transform="translate(-0.11)"/></svg>