<svg id="b00a989c-a081-4ab2-a548-12f7c68fbfe0" data-name="31c0447e-f6fc-4442-9ac6-51376a42e5df" xmlns="http://www.w3.org/2000/svg" viewBox="0 0 26.19 29.5"><defs><style>.\32 3f56349-01d2-4108-8a3e-690ca5778628{fill:#999;}.\30 5fbae76-6653-4bc4-aae2-8deba5c64d25{font-size:5.29px;fill:#9a9a9a;stroke:#9a9a9a;stroke-miterlimit:10;stroke-width:0.3px;font-family:Arial;}.\39 7091f0d-44d2-492d-88e2-edf54894f954{fill:#aad0ff;}</style></defs><title>ape</title><path class="23f56349-01d2-4108-8a3e-690ca5778628" d="M19.2,0H3.2V1.8h1V1H18.5V7.9h6.9V28.5H4.2V6.8h-1V29.5H26.3V7.2Zm0.3,6.9V1.7l5.25,5.2H19.5Z" transform="translate(-0.11)"/><text class="05fbae76-6653-4bc4-aae2-8deba5c64d25" transform="translate(0.31 6.06)">APE</text><path class="97091f0d-44d2-492d-88e2-edf54894f954" d="M22.13,11.27v9.85a2.76,2.76,0,1,1-2.76-2.76,2.68,2.68,0,0,1,1.18.27V14l-7.88,1.68v7a2.76,2.76,0,1,1-2.76-2.76,2.68,2.68,0,0,1,1.18.27V13.63Z" transform="translate(-0.11)"/></svg>