<svg id="974db689-9f46-4bf1-971a-e3a264f9596d" data-name="31c0447e-f6fc-4442-9ac6-51376a42e5df" xmlns="http://www.w3.org/2000/svg" viewBox="0 0 26.19 29.5"><defs><style>.\33 ded7b0f-6297-422b-b762-025d7ab37d43{fill:#999;}.ce05e7d7-deb0-4048-bc2a-6965957bcfb8{font-size:5.29px;fill:#9a9a9a;stroke:#9a9a9a;stroke-miterlimit:10;stroke-width:0.3px;font-family:Arial;}.ce93fda0-74d6-42aa-b23b-e506705dd361{fill:#ffd57f;}</style></defs><title>arj</title><path class="3ded7b0f-6297-422b-b762-025d7ab37d43" d="M19.2,0H3.2V1.8h1V1H18.5V7.9h6.9V28.5H4.2V6.8h-1V29.5H26.3V7.2Zm0.3,6.9V1.7l5.25,5.2H19.5Z" transform="translate(-0.11)"/><text class="ce05e7d7-deb0-4048-bc2a-6965957bcfb8" transform="translate(0.31 6.06)">ARJ</text><polyline class="ce93fda0-74d6-42aa-b23b-e506705dd361" points="16.61 22.79 14.08 22.79 14.08 20.79 11.55 20.79 11.55 18.79 14.08 18.79 14.08 20.79 16.61 20.79"/><polyline class="ce93fda0-74d6-42aa-b23b-e506705dd361" points="16.61 14.8 14.08 14.8 14.08 16.8 16.61 16.8 16.61 18.79 14.08 18.79 14.08 16.8 11.55 16.8 11.55 14.8 14.08 14.8 14.08 12.8 11.55 12.8 11.55 10.8 14.08 10.8 14.08 12.8 16.61 12.8"/><path class="ce93fda0-74d6-42aa-b23b-e506705dd361" d="M16.09,23.47H12.37a0.71,0.71,0,0,0-.72.71v1.1a0.72,0.72,0,0,0,.72.72h3.72a0.71,0.71,0,0,0,.71-0.72v-1.1A0.71,0.71,0,0,0,16.09,23.47Zm-0.86,1.79h-2a0.53,0.53,0,0,1-.53-0.53,0.53,0.53,0,0,1,.53-0.53h2a0.53,0.53,0,0,1,.53.53A0.53,0.53,0,0,1,15.23,25.26Z" transform="translate(-0.11)"/></svg>