<svg id="9fc3c119-c492-477b-a582-e233ed1d4e15" data-name="31c0447e-f6fc-4442-9ac6-51376a42e5df" xmlns="http://www.w3.org/2000/svg" viewBox="0 0 26.03 29.5"><defs><style>.eab55016-8be5-4fce-968d-3d982b02b4d7{fill:#91a0f9;}.daf4086e-dd0b-4ed8-a19f-e9f70c5fa58f{fill:#999;}.\30 17aa629-c6cc-4607-991a-5d39c7ff76aa{font-size:5.29px;fill:#9a9a9a;stroke:#9a9a9a;stroke-miterlimit:10;stroke-width:0.3px;font-family:Arial;}</style></defs><title>cif</title><path class="eab55016-8be5-4fce-968d-3d982b02b4d7" d="M13.67,13.35L14,13H10.45L6.93,17H10.5ZM11.35,17h6.7l-1.82-2.12L14.7,13.14l-2.31,2.68ZM7,17.68l6.66,7-3.18-7H7Zm11.28,0h-7.1l3.53,7.77,0,0,3.36-7.41Zm-2.47,7,6.65-7H19ZM22.47,17L19,13H15.41L18.9,17h3.57Z" transform="translate(-0.27)"/><path class="daf4086e-dd0b-4ed8-a19f-e9f70c5fa58f" d="M19.2,0H3.2V1.8h1V1H18.5V7.9h6.9V28.5H4.2V6.8h-1V29.5H26.3V7.2Zm0.3,6.9V1.7l5.25,5.2H19.5Z" transform="translate(-0.27)"/><text class="017aa629-c6cc-4607-991a-5d39c7ff76aa" transform="translate(0.15 6.06)">CIF</text></svg>