<svg id="9064c702-29a6-4f85-a1cf-246987ca7ff5" data-name="31c0447e-f6fc-4442-9ac6-51376a42e5df" xmlns="http://www.w3.org/2000/svg" viewBox="0 0 26.03 29.5"><defs><style>.b5daddc5-756f-4e89-bb36-a552ad3aaf5b{fill:#999;}.c90bf96a-16a2-4c05-8abe-078464a7fa15{font-size:5.29px;fill:#9a9a9a;stroke:#9a9a9a;stroke-miterlimit:10;stroke-width:0.3px;font-family:Arial;}.e639957f-c287-4138-9818-3ec4db276e15{fill:#a3efc2;}</style></defs><title>csv</title><path class="b5daddc5-756f-4e89-bb36-a552ad3aaf5b" d="M19.2,0H3.2V1.8h1V1H18.5V7.9h6.9V28.5H4.2V6.8h-1V29.5H26.3V7.2Zm0.3,6.9V1.7l5.25,5.2H19.5Z" transform="translate(-0.27)"/><text class="c90bf96a-16a2-4c05-8abe-078464a7fa15" transform="translate(0.15 6.06)">CSV</text><rect class="e639957f-c287-4138-9818-3ec4db276e15" x="12.44" y="22.23" width="4.39" height="2.04"/><rect class="e639957f-c287-4138-9818-3ec4db276e15" x="7.08" y="22.23" width="4.39" height="2.04"/><rect class="e639957f-c287-4138-9818-3ec4db276e15" x="12.44" y="19.23" width="4.39" height="2.04"/><rect class="e639957f-c287-4138-9818-3ec4db276e15" x="7.08" y="19.23" width="4.39" height="2.04"/><rect class="e639957f-c287-4138-9818-3ec4db276e15" x="12.44" y="16.34" width="4.39" height="2.04"/><rect class="e639957f-c287-4138-9818-3ec4db276e15" x="7.08" y="16.34" width="4.39" height="2.04"/><rect class="e639957f-c287-4138-9818-3ec4db276e15" x="17.69" y="16.34" width="4.39" height="2.04"/><rect class="e639957f-c287-4138-9818-3ec4db276e15" x="12.44" y="13.45" width="4.39" height="2.04"/><rect class="e639957f-c287-4138-9818-3ec4db276e15" x="7.08" y="13.45" width="4.39" height="2.04"/><rect class="e639957f-c287-4138-9818-3ec4db276e15" x="17.69" y="13.45" width="4.39" height="2.04"/></svg>