<svg id="Слой_1" data-name="Слой 1" xmlns="http://www.w3.org/2000/svg" viewBox="0 0 26.14 30.02"><defs><style>.cls-1{fill:#999;}.cls-2{font-size:5.29px;fill:#9a9a9a;stroke:#9a9a9a;stroke-miterlimit:10;stroke-width:0.3px;font-family:ArialMT, Arial;}.cls-3{fill:#6fa9db;}</style></defs><title>czi</title><path class="cls-1" d="M34.45,10.2h-16V12h1v-.8h14.3v6.9h6.9V38.7H19.45V17h-1V39.7h23.1V17.4Zm.3,6.9V11.9L40,17.1Z" transform="translate(-15.41 -9.68)"/><text class="cls-2" transform="translate(0.15 6.58)">CZI</text><text x="-15.41" y="-9.68"></text><g id="Microscope"><path class="cls-3" d="M30.54,30.85a.31.31,0,0,0,.31-.31V30.4a.31.31,0,0,0-.31-.31H25.38a.3.3,0,0,0-.3.31v.14a.3.3,0,0,0,.3.31Z" transform="translate(-15.41 -9.68)"/><path class="cls-3" d="M33.78,24.49a5.21,5.21,0,0,0-1.68-1.14h0a.46.46,0,0,0-.56.18l-.36.55a1.35,1.35,0,0,0-.29,0H30.8a1,1,0,0,0-.24,0l.63-1,.2-.31a.47.47,0,0,0-.15-.64L29.56,21a.59.59,0,0,0-.25-.07.44.44,0,0,0-.39.22L26,25.75a.46.46,0,0,0,.14.64l.32.21-.14.22-.15.23-.09.14a.46.46,0,0,0,.14.64l.27.18a.46.46,0,0,0,.64-.14l.09-.14.15-.23.15-.23.31.2a.46.46,0,0,0,.25.08.47.47,0,0,0,.39-.22l1.21-1.88a.88.88,0,0,0,.12.32A.91.91,0,0,0,30,26a1.16,1.16,0,0,0,.89.37A1.18,1.18,0,0,0,32,25.23a1.21,1.21,0,0,0-.07-.43,3.78,3.78,0,0,1,.89.67,3.89,3.89,0,0,1,0,5.5,4,4,0,0,1-1.61,1l-.14,0H29.53a.47.47,0,0,1-.46-.47v-.1H26.86v2.08h6.79a1.13,1.13,0,0,0,.53-2,4.76,4.76,0,0,0,.73-1.23,5.15,5.15,0,0,0,.42-2.05,5.23,5.23,0,0,0-.42-2.06A5,5,0,0,0,33.78,24.49Zm-3,1.13a.43.43,0,0,1-.41-.31.41.41,0,0,1,0-.11.43.43,0,0,1,.35-.42h.07a.41.41,0,0,1,.42.42A.42.42,0,0,1,30.8,25.62Zm2.81,7.1a.41.41,0,0,1-.16,0,.41.41,0,0,1-.36-.22.47.47,0,0,1,0-.17.4.4,0,0,1,.4-.4.29.29,0,0,1,.16,0l.08,0a.42.42,0,0,1,.15.32A.39.39,0,0,1,33.61,32.72Z" transform="translate(-15.41 -9.68)"/><path class="cls-3" d="M26.86,34A2,2,0,0,0,25.05,36h8.1a.46.46,0,0,0,.46-.46V34H26.86Z" transform="translate(-15.41 -9.68)"/></g></svg>