<svg id="5881026e-d047-444a-868d-61d191f25408" data-name="31c0447e-f6fc-4442-9ac6-51376a42e5df" xmlns="http://www.w3.org/2000/svg" viewBox="0 0 26.41 29.5"><defs><style>.\36 df31670-6081-4451-8042-a2739d820126{fill:#999;}.bda6b89d-0c3d-40c0-8a17-5f9af5f34132{font-size:5.29px;fill:#9a9a9a;stroke:#9a9a9a;stroke-miterlimit:10;stroke-width:0.3px;font-family:Arial;}.\32 a5fa9cd-51d2-4fd8-8cbf-d97eaa70a30d{fill:#7fa7ff;}</style></defs><title>doc</title><path class="6df31670-6081-4451-8042-a2739d820126" d="M19.2,0H3.2V1.8h1V1H18.5V7.9h6.9V28.5H4.2V6.8h-1V29.5H26.3V7.2Zm0.3,6.9V1.7l5.25,5.2H19.5Z" transform="translate(0.11)"/><text class="bda6b89d-0c3d-40c0-8a17-5f9af5f34132" transform="translate(0.15 6.08)">DOC</text><path class="2a5fa9cd-51d2-4fd8-8cbf-d97eaa70a30d" d="M20.65,10.89h-12a1.53,1.53,0,0,0-1.52,1.52v12a1.53,1.53,0,0,0,1.52,1.52h12a1.53,1.53,0,0,0,1.52-1.52v-12A1.53,1.53,0,0,0,20.65,10.89Zm-2.4,11.93H16.41L14.7,16.4,13,22.82H11.12l-2-8.59h1.77l1.3,5.9,1.57-5.9h2.06l1.51,6,1.31-6h1.75Z" transform="translate(0.11)"/></svg>