<svg id="353d52da-5517-4c37-8ca0-37c43f69d2e7" data-name="31c0447e-f6fc-4442-9ac6-51376a42e5df" xmlns="http://www.w3.org/2000/svg" viewBox="0 0 26.41 29.5"><defs><style>.f66b917e-fa95-4fc1-a2b0-a72602e1a5a1{fill:#999;}.ef758ab5-4fcf-4e33-b05a-f44faa83e109{font-size:5.29px;fill:#9a9a9a;stroke:#9a9a9a;stroke-miterlimit:10;stroke-width:0.3px;font-family:Arial;}.a5db7811-b2cd-4b8a-8de6-6b99cf498227{fill:#7fa7ff;}</style></defs><title>docx</title><path class="f66b917e-fa95-4fc1-a2b0-a72602e1a5a1" d="M19.2,0H3.2V1.8h1V1H18.5V7.9h6.9V28.5H4.2V6.8h-1V29.5H26.3V7.2Zm0.3,6.9V1.7l5.25,5.2H19.5Z" transform="translate(0.11)"/><text class="ef758ab5-4fcf-4e33-b05a-f44faa83e109" transform="translate(0.15 6.08)">DOCX</text><path class="a5db7811-b2cd-4b8a-8de6-6b99cf498227" d="M20.65,10.89h-12a1.53,1.53,0,0,0-1.52,1.52v12a1.53,1.53,0,0,0,1.52,1.52h12a1.53,1.53,0,0,0,1.52-1.52v-12A1.53,1.53,0,0,0,20.65,10.89Zm-2.4,11.93H16.41L14.7,16.4,13,22.82H11.12l-2-8.59h1.77l1.3,5.9,1.57-5.9h2.06l1.51,6,1.31-6h1.75Z" transform="translate(0.11)"/></svg>