<svg id="768af02f-b9d4-4008-918a-a13262faf27f" data-name="31c0447e-f6fc-4442-9ac6-51376a42e5df" xmlns="http://www.w3.org/2000/svg" viewBox="0 0 26.03 29.5"><defs><style>.e90efa13-51b3-4bbe-9b0f-9926b2738b08{fill:#c3d880;}.\39 9837ee8-1a77-4233-a8e3-c8f6e79a42d1{fill:#999;}.\31 079e87c-0223-43a6-b57f-db0ec69a0d09{font-size:5.29px;fill:#9a9a9a;stroke:#9a9a9a;stroke-miterlimit:10;stroke-width:0.3px;font-family:Arial;}</style></defs><title>dx</title><path class="e90efa13-51b3-4bbe-9b0f-9926b2738b08" d="M20.35,12a2,2,0,0,0-1.29,3.53l-1.64,4a2,2,0,0,0-1.34.58l-2.27-1.15a2,2,0,1,0-3.52,1l-0.64,1a2,2,0,1,0,1,.67l0.64-1A2,2,0,0,0,13.26,20l2.26,1.14a2,2,0,1,0,3.1-1.33L20.2,16h0.15A2,2,0,1,0,20.35,12ZM9.15,23.6a0.77,0.77,0,1,1,.77-0.77A0.77,0.77,0,0,1,9.15,23.6Zm2.69-4.21a0.77,0.77,0,1,1,.77-0.77A0.77,0.77,0,0,1,11.84,19.39Zm5.65,2.88a0.77,0.77,0,1,1,.77-0.77A0.77,0.77,0,0,1,17.49,22.27Zm2.86-7.53A0.77,0.77,0,1,1,21.12,14,0.77,0.77,0,0,1,20.35,14.73Z" transform="translate(-0.27)"/><path class="99837ee8-1a77-4233-a8e3-c8f6e79a42d1" d="M19.2,0H3.2V1.8h1V1H18.5V7.9h6.9V28.5H4.2V6.8h-1V29.5H26.3V7.2Zm0.3,6.9V1.7l5.25,5.2H19.5Z" transform="translate(-0.27)"/><text class="1079e87c-0223-43a6-b57f-db0ec69a0d09" transform="translate(0.15 6.06)">DX</text></svg>