<?xml version="1.0" encoding="utf-8"?>
<!-- Generator: Adobe Illustrator 19.2.1, SVG Export Plug-In . SVG Version: 6.00 Build 0)  -->
<svg version="1.1" id="Слой_1" xmlns="http://www.w3.org/2000/svg" xmlns:xlink="http://www.w3.org/1999/xlink" x="0px" y="0px"
	 viewBox="0 0 60 60" style="enable-background:new 0 0 60 60;" xml:space="preserve">
<style type="text/css">
	.st0{fill:#333333;}
	.st1{fill:#999999;}
</style>
<path class="st0" d="M36.1,21H23.9c-0.3,0-0.5,0.2-0.5,0.5s0.2,0.5,0.5,0.5h12.3c0.3,0,0.5-0.2,0.5-0.5S36.4,21,36.1,21z"/>
<path class="st0" d="M23.9,18.1h4.9c0.3,0,0.5-0.2,0.5-0.5c0-0.3-0.2-0.5-0.5-0.5h-4.9c-0.3,0-0.5,0.2-0.5,0.5
	C23.4,17.8,23.6,18.1,23.9,18.1z"/>
<path class="st0" d="M36.1,25H23.9c-0.3,0-0.5,0.2-0.5,0.5c0,0.3,0.2,0.5,0.5,0.5h12.3c0.3,0,0.5-0.2,0.5-0.5
	C36.6,25.2,36.4,25,36.1,25z"/>
<path class="st0" d="M36.1,28.9H23.9c-0.3,0-0.5,0.2-0.5,0.5s0.2,0.5,0.5,0.5h12.3c0.3,0,0.5-0.2,0.5-0.5S36.4,28.9,36.1,28.9z"/>
<path class="st0" d="M36.1,32.8H23.9c-0.3,0-0.5,0.2-0.5,0.5s0.2,0.5,0.5,0.5h12.3c0.3,0,0.5-0.2,0.5-0.5S36.4,32.8,36.1,32.8z"/>
<path class="st1" d="M34.4,10.2H18.4v29.5h23.1V17.4L34.4,10.2z M34.7,11.9l5.2,5.2h-5.2V11.9z M19.4,38.7V11.2h14.3v6.9h6.9v20.6
	H19.4z"/>
</svg>
