<svg id="bf5045cf-2dc1-41f8-bbae-bf928ea4cd7f" data-name="31c0447e-f6fc-4442-9ac6-51376a42e5df" xmlns="http://www.w3.org/2000/svg" viewBox="0 0 26.03 29.5"><defs><style>.\39 f3dc308-479e-40b8-894d-288c8def5f69{fill:#999;}.\34 2fc063f-e592-4415-9a3c-478465040616{font-size:5.29px;fill:#9a9a9a;stroke:#9a9a9a;stroke-miterlimit:10;stroke-width:0.3px;font-family:Arial;}.\33 3c94e10-d5a2-4ea8-8ca8-02d03edef9dd{fill:#aad0ff;}</style></defs><title>flac</title><path class="9f3dc308-479e-40b8-894d-288c8def5f69" d="M19.2,0H3.2V1.8h1V1H18.5V7.9h6.9V28.5H4.2V6.8h-1V29.5H26.3V7.2Zm0.3,6.9V1.7l5.25,5.2H19.5Z" transform="translate(-0.27)"/><text class="42fc063f-e592-4415-9a3c-478465040616" transform="translate(0.15 6.06)">FLAC</text><path class="33c94e10-d5a2-4ea8-8ca8-02d03edef9dd" d="M22.13,11.27v9.85a2.76,2.76,0,1,1-2.76-2.76,2.68,2.68,0,0,1,1.18.27V14l-7.88,1.68v7a2.76,2.76,0,1,1-2.76-2.76,2.68,2.68,0,0,1,1.18.27V13.63Z" transform="translate(-0.27)"/></svg>