<svg id="7378153d-1d38-4aed-a240-e5e53a3c65a6" data-name="31c0447e-f6fc-4442-9ac6-51376a42e5df" xmlns="http://www.w3.org/2000/svg" viewBox="0 0 26.03 29.5"><defs><style>.ff9257f0-5351-4735-90ba-6abe588628f5{fill:#999;}.e365528f-ba68-492a-8836-9d52450794ff{font-size:5.29px;fill:#9a9a9a;stroke:#9a9a9a;stroke-miterlimit:10;stroke-width:0.3px;font-family:Arial;}.\30 9fc2c43-1043-4e88-ba40-304b89067899{fill:#d6e2a0;}</style></defs><title>html</title><path class="ff9257f0-5351-4735-90ba-6abe588628f5" d="M19.2,0H3.2V1.8h1V1H18.5V7.9h6.9V28.5H4.2V6.8h-1V29.5H26.3V7.2Zm0.3,6.9V1.7l5.25,5.2H19.5Z" transform="translate(-0.27)"/><text class="e365528f-ba68-492a-8836-9d52450794ff" transform="translate(0.15 6.06)">HTM<tspan x="11.45" y="0">L</tspan></text><path class="09fc2c43-1043-4e88-ba40-304b89067899" d="M15.51,11.82L17,12.11l-2.76,13-1.45-.3,2.76-13m4.95,6.65L17.8,15.81V13.72l4.74,4.74L17.8,23.2V21.11l2.65-2.64m-13.31,0,4.74-4.74v2.09L9.24,18.47l2.65,2.64V23.2Z" transform="translate(-0.27)"/></svg>