<svg id="f76ee7c6-707c-4ee0-bdb3-39c3c2991f84" data-name="31c0447e-f6fc-4442-9ac6-51376a42e5df" xmlns="http://www.w3.org/2000/svg" viewBox="0 0 26.03 29.5"><defs><style>.\37 b977fe6-152e-4dd7-bed4-885f0c062d2f{fill:#c3d880;}.\32 f1a29fd-6e36-438c-a60c-e252559cbd73{fill:#999;}.\33 112aad0-2d6e-4e0c-a012-67eaf8dc5fff{font-size:5.29px;fill:#9a9a9a;stroke:#9a9a9a;stroke-miterlimit:10;stroke-width:0.3px;font-family:Arial;}</style></defs><title>jdx</title><path class="7b977fe6-152e-4dd7-bed4-885f0c062d2f" d="M20.35,12a2,2,0,0,0-1.29,3.53l-1.64,4a2,2,0,0,0-1.34.58l-2.27-1.15a2,2,0,1,0-3.52,1l-0.64,1a2,2,0,1,0,1,.67l0.64-1A2,2,0,0,0,13.26,20l2.26,1.14a2,2,0,1,0,3.1-1.33L20.2,16h0.15A2,2,0,1,0,20.35,12ZM9.15,23.6a0.77,0.77,0,1,1,.77-0.77A0.77,0.77,0,0,1,9.15,23.6Zm2.69-4.21a0.77,0.77,0,1,1,.77-0.77A0.77,0.77,0,0,1,11.84,19.39Zm5.65,2.88a0.77,0.77,0,1,1,.77-0.77A0.77,0.77,0,0,1,17.49,22.27Zm2.86-7.53A0.77,0.77,0,1,1,21.12,14,0.77,0.77,0,0,1,20.35,14.73Z" transform="translate(-0.27)"/><path class="2f1a29fd-6e36-438c-a60c-e252559cbd73" d="M19.2,0H3.2V1.8h1V1H18.5V7.9h6.9V28.5H4.2V6.8h-1V29.5H26.3V7.2Zm0.3,6.9V1.7l5.25,5.2H19.5Z" transform="translate(-0.27)"/><text class="3112aad0-2d6e-4e0c-a012-67eaf8dc5fff" transform="translate(0.15 6.06)">JDX</text></svg>