<svg id="ae507aef-1bb0-4bc2-bc89-2d544adca03d" data-name="31c0447e-f6fc-4442-9ac6-51376a42e5df" xmlns="http://www.w3.org/2000/svg" viewBox="0 0 26.03 29.5"><defs><style>.\38 8e38893-1bee-4ae6-ba68-f424c67727da{fill:#999;}.a2f3f2f2-aad1-4a4b-9226-60812206486a{font-size:5.29px;fill:#9a9a9a;stroke:#9a9a9a;stroke-miterlimit:10;stroke-width:0.3px;font-family:Arial;}.\39 144f519-dff6-4b39-96e1-37883444ecd2{fill:#97ca9f;}</style></defs><title>jpg</title><path class="88e38893-1bee-4ae6-ba68-f424c67727da" d="M19.2,0H3.2V1.8h1V1H18.5V7.9h6.9V28.5H4.2V6.8h-1V29.5H26.3V7.2Zm0.3,6.9V1.7l5.25,5.2H19.5Z" transform="translate(-0.27)"/><text class="a2f3f2f2-aad1-4a4b-9226-60812206486a" transform="translate(0.15 6.06)">JPG</text><path class="9144f519-dff6-4b39-96e1-37883444ecd2" d="M22.36,25.63V11.24a0.4,0.4,0,0,0-.4-0.4H7.62a0.4,0.4,0,0,0-.4.4V25.63a0.4,0.4,0,0,0,.4.4H22A0.4,0.4,0,0,0,22.36,25.63ZM18.24,13.82a1.54,1.54,0,1,1-1.54,1.54A1.54,1.54,0,0,1,18.24,13.82ZM8.53,24.75c0.08-1.75,1-5.14,2.31-6.39s2.19-.14,3,1a27.69,27.69,0,0,0,1.9,2.57c0.88,0.89,1.64-.46,2.56-0.9,1.35-.64,2.46,2.71,2.75,3.73H8.53Z" transform="translate(-0.27)"/></svg>