<svg id="965ca316-03ad-4fb8-8e84-b5660ada4956" data-name="Слой 1" xmlns="http://www.w3.org/2000/svg" viewBox="0 0 26.14 29.5"><defs><style>.\35 c0feda5-3d0b-493b-9867-ff5bdf72f18f{fill:#999;}.\31 b65523c-7ff3-4dab-8204-f59ce85fe99b{font-size:5.29px;fill:#9a9a9a;stroke:#9a9a9a;stroke-width:0.3px;font-family:ArialMT, Arial;}.\31 b65523c-7ff3-4dab-8204-f59ce85fe99b,.\36 86127a6-56ba-451e-a137-3be197526ee6{stroke-miterlimit:10;}.d54d66d5-b7ee-4b23-84bf-b6ae1ccf6c4b{letter-spacing:-0.07em;}.\36 86127a6-56ba-451e-a137-3be197526ee6,.ac934a13-cafc-4f71-8c13-de9351012d63{fill:#9fd5ff;}.\36 86127a6-56ba-451e-a137-3be197526ee6{stroke:#9fd5ff;stroke-width:0.25px;}</style></defs><title>model.sav</title><path class="5c0feda5-3d0b-493b-9867-ff5bdf72f18f" d="M34.45,10.2h-16V12h1v-.8h14.3v6.9h6.9V38.7H19.45V17h-1V39.7h23.1V17.4Zm.3,6.9V11.9L40,17.1Z" transform="translate(-15.41 -10.2)"/><text class="1b65523c-7ff3-4dab-8204-f59ce85fe99b" transform="translate(0.15 6.06)">S<tspan class="d54d66d5-b7ee-4b23-84bf-b6ae1ccf6c4b" x="3.53" y="0">A</tspan><tspan x="6.66" y="0">V</tspan></text><circle class="ac934a13-cafc-4f71-8c13-de9351012d63" cx="9.29" cy="15.84" r="1.43"/><circle class="ac934a13-cafc-4f71-8c13-de9351012d63" cx="19.88" cy="12.14" r="1.43"/><circle class="ac934a13-cafc-4f71-8c13-de9351012d63" cx="19.88" cy="24.46" r="1.43"/><circle class="ac934a13-cafc-4f71-8c13-de9351012d63" cx="19.88" cy="18.38" r="1.43"/><circle class="ac934a13-cafc-4f71-8c13-de9351012d63" cx="9.29" cy="21.01" r="1.43"/><line class="686127a6-56ba-451e-a137-3be197526ee6" x1="10.73" y1="15.84" x2="17.69" y2="12.5"/><path class="ac934a13-cafc-4f71-8c13-de9351012d63" d="M32.94,22.78l-.36-.24h0l.65-.05.63-.14c-.17.13-.35.26-.51.4l-.44.47h0Z" transform="translate(-15.41 -10.2)"/><line class="686127a6-56ba-451e-a137-3be197526ee6" x1="10.73" y1="21.01" x2="17.88" y2="13.29"/><path class="ac934a13-cafc-4f71-8c13-de9351012d63" d="M33.17,23.62l-.43-.08v0l.58-.28.54-.37c-.12.19-.22.37-.33.56l-.24.6h0Z" transform="translate(-15.41 -10.2)"/><line class="686127a6-56ba-451e-a137-3be197526ee6" x1="10.73" y1="15.84" x2="17.63" y2="17.49"/><path class="ac934a13-cafc-4f71-8c13-de9351012d63" d="M32.86,27.65l-.13-.41h0l.53.38.58.28h-.64l-.64.09h0Z" transform="translate(-15.41 -10.2)"/><line class="686127a6-56ba-451e-a137-3be197526ee6" x1="10.73" y1="21.01" x2="17.64" y2="19.17"/><path class="ac934a13-cafc-4f71-8c13-de9351012d63" d="M32.87,29.42l-.31-.3h0l.65.07.64,0-.58.3-.52.39h0Z" transform="translate(-15.41 -10.2)"/><line class="686127a6-56ba-451e-a137-3be197526ee6" x1="10.73" y1="21.01" x2="17.68" y2="24.12"/><path class="ac934a13-cafc-4f71-8c13-de9351012d63" d="M32.93,34.24l-.06-.43h0l.45.46.52.38-.63-.13-.65,0h0Z" transform="translate(-15.41 -10.2)"/><line class="686127a6-56ba-451e-a137-3be197526ee6" x1="10.73" y1="15.84" x2="17.86" y2="23.2"/><path class="ac934a13-cafc-4f71-8c13-de9351012d63" d="M33.15,33.27l.11-.42h0l.25.6c.12.19.22.37.34.55l-.54-.35-.59-.27h0Z" transform="translate(-15.41 -10.2)"/></svg>