<svg id="a94458df-3b74-4929-8429-6bf88f1bec9b" data-name="Слой 1" xmlns="http://www.w3.org/2000/svg" viewBox="0 0 26.18 29.5"><defs><style>.\39 89b2a28-e5e9-4a5f-93c3-5b081c73f0cb{fill:#999;}.\30 59ead42-4843-4769-bc1c-f4fb62e6a0ed{font-size:5.29px;fill:#9a9a9a;stroke:#9a9a9a;stroke-width:0.3px;font-family:ArialMT, Arial;}.\30 59ead42-4843-4769-bc1c-f4fb62e6a0ed,.\36 c4d78c3-7b63-4867-a614-21d6c7c0afa2{stroke-miterlimit:10;}.\33 3dc8f83-5178-4621-a91c-7f285134ec61{letter-spacing:-0.02em;}.\36 c4d78c3-7b63-4867-a614-21d6c7c0afa2,.d78146b5-e91c-4c1e-a67a-3b7f932ec979{fill:#9fd5ff;}.\36 c4d78c3-7b63-4867-a614-21d6c7c0afa2{stroke:#9fd5ff;stroke-width:0.25px;}</style></defs><title>model.zip</title><path class="989b2a28-e5e9-4a5f-93c3-5b081c73f0cb" d="M34.45,10.2h-16V12h1v-.8h14.3v6.9h6.9V38.7H19.45V17h-1V39.7h23.1V17.4Zm.3,6.9V11.9L40,17.1Z" transform="translate(-15.37 -10.2)"/><text class="059ead42-4843-4769-bc1c-f4fb62e6a0ed" transform="translate(0.19 6.06)">ZI<tspan class="33dc8f83-5178-4621-a91c-7f285134ec61" x="4.7" y="0">P</tspan></text><circle class="d78146b5-e91c-4c1e-a67a-3b7f932ec979" cx="9.34" cy="15.84" r="1.43"/><circle class="d78146b5-e91c-4c1e-a67a-3b7f932ec979" cx="19.93" cy="12.14" r="1.43"/><circle class="d78146b5-e91c-4c1e-a67a-3b7f932ec979" cx="19.93" cy="24.46" r="1.43"/><circle class="d78146b5-e91c-4c1e-a67a-3b7f932ec979" cx="19.93" cy="18.38" r="1.43"/><circle class="d78146b5-e91c-4c1e-a67a-3b7f932ec979" cx="9.34" cy="21.01" r="1.43"/><line class="6c4d78c3-7b63-4867-a614-21d6c7c0afa2" x1="10.77" y1="15.84" x2="17.74" y2="12.5"/><path class="d78146b5-e91c-4c1e-a67a-3b7f932ec979" d="M32.94,22.78l-.36-.24h0l.65-.05.63-.14c-.17.13-.35.26-.51.4l-.44.47h0Z" transform="translate(-15.37 -10.2)"/><line class="6c4d78c3-7b63-4867-a614-21d6c7c0afa2" x1="10.77" y1="21.01" x2="17.93" y2="13.29"/><path class="d78146b5-e91c-4c1e-a67a-3b7f932ec979" d="M33.17,23.62l-.43-.08v0l.58-.28.54-.37c-.12.19-.22.37-.33.56l-.24.6h0Z" transform="translate(-15.37 -10.2)"/><line class="6c4d78c3-7b63-4867-a614-21d6c7c0afa2" x1="10.77" y1="15.84" x2="17.68" y2="17.49"/><path class="d78146b5-e91c-4c1e-a67a-3b7f932ec979" d="M32.86,27.65l-.13-.41h0l.53.38.58.28h-.64l-.64.09h0Z" transform="translate(-15.37 -10.2)"/><line class="6c4d78c3-7b63-4867-a614-21d6c7c0afa2" x1="10.77" y1="21.01" x2="17.68" y2="19.17"/><path class="d78146b5-e91c-4c1e-a67a-3b7f932ec979" d="M32.87,29.42l-.31-.3h0l.65.07.64,0-.58.3-.52.39h0Z" transform="translate(-15.37 -10.2)"/><line class="6c4d78c3-7b63-4867-a614-21d6c7c0afa2" x1="10.77" y1="21.01" x2="17.73" y2="24.12"/><path class="d78146b5-e91c-4c1e-a67a-3b7f932ec979" d="M32.93,34.24l-.06-.43h0l.45.46.52.38-.63-.13-.65,0h0Z" transform="translate(-15.37 -10.2)"/><line class="6c4d78c3-7b63-4867-a614-21d6c7c0afa2" x1="10.77" y1="15.84" x2="17.91" y2="23.2"/><path class="d78146b5-e91c-4c1e-a67a-3b7f932ec979" d="M33.15,33.27l.11-.42h0l.25.6c.12.19.22.37.34.55l-.54-.35-.59-.27h0Z" transform="translate(-15.37 -10.2)"/></svg>