<svg id="b17676fd-ecf6-4d47-a0dd-2e6f7d4ad2dc" data-name="31c0447e-f6fc-4442-9ac6-51376a42e5df" xmlns="http://www.w3.org/2000/svg" viewBox="0 0 26.03 29.5"><defs><style>.\34 bba8d30-0b02-4d8b-a314-b015d06fbf8e{fill:#8ab9db;}.\31 ebb1b33-727e-4546-8762-ef9b2df4bb68{fill:#999;}.dcad5023-ab22-4a07-a44c-271b68fcdfaa{font-size:5.29px;fill:#9a9a9a;stroke:#9a9a9a;stroke-miterlimit:10;stroke-width:0.3px;font-family:Arial;}</style></defs><title>mol</title><path class="4bba8d30-0b02-4d8b-a314-b015d06fbf8e" d="M17.75,19.8l-1.6-1A2.24,2.24,0,0,0,16,17l1.31-1.17a1.87,1.87,0,1,0-.7-0.78l-1.31,1.17A2.24,2.24,0,0,0,13.18,16l-1.52-2.09a1.82,1.82,0,1,0-.85.62l1.52,2.09a2.23,2.23,0,0,0,.12,3l0,0L11,22.22a1.87,1.87,0,1,0,.91.52l1.47-2.58a2.23,2.23,0,0,0,2.15-.53l1.6,1A1.48,1.48,0,1,0,17.75,19.8ZM9.91,23.63l-0.1.11a0.42,0.42,0,0,1-.17.11,0.24,0.24,0,0,1-.24-0.07A0.58,0.58,0,0,1,9.56,23a0.58,0.58,0,0,1,.79-0.16,0.24,0.24,0,0,1,.07.24,0.42,0.42,0,0,1-.11.17l-0.11.1L10,23.49Zm7.35-10.47A0.58,0.58,0,0,1,18.05,13a0.24,0.24,0,0,1,.07.24,0.42,0.42,0,0,1-.11.17l-0.11.1-0.14.13-0.13.14-0.1.11a0.42,0.42,0,0,1-.17.11,0.24,0.24,0,0,1-.24-0.07A0.58,0.58,0,0,1,17.27,13.16Zm-7.72-.8-0.1.11a0.41,0.41,0,0,1-.16.11A0.23,0.23,0,0,1,9,12.52a0.56,0.56,0,0,1,.15-0.76A0.56,0.56,0,0,1,10,11.6a0.23,0.23,0,0,1,.06.24,0.41,0.41,0,0,1-.11.16l-0.11.1-0.14.13Zm3.24,4.41a0.69,0.69,0,0,1,.94-0.19,0.29,0.29,0,0,1,.08.29,0.51,0.51,0,0,1-.13.2l-0.13.12-0.17.16-0.16.17-0.12.13a0.5,0.5,0,0,1-.2.13,0.29,0.29,0,0,1-.29-0.08A0.69,0.69,0,0,1,12.79,16.77Zm5.21,4a0.34,0.34,0,0,1-.13.09,0.19,0.19,0,0,1-.19-0.05A0.57,0.57,0,0,1,18.42,20a0.19,0.19,0,0,1,.05.19,0.33,0.33,0,0,1-.09.13l-0.09.08-0.11.1-0.1.11Z" transform="translate(-0.27)"/><path class="1ebb1b33-727e-4546-8762-ef9b2df4bb68" d="M19.2,0H3.2V1.8h1V1H18.5V7.9h6.9V28.5H4.2V6.8h-1V29.5H26.3V7.2Zm0.3,6.9V1.7l5.25,5.2H19.5Z" transform="translate(-0.27)"/><text class="dcad5023-ab22-4a07-a44c-271b68fcdfaa" transform="translate(0.15 6.06)">MO<tspan x="8.52" y="0">L</tspan></text></svg>