<svg id="70c3c437-93ea-4e20-bada-ab6ffedf5004" data-name="31c0447e-f6fc-4442-9ac6-51376a42e5df" xmlns="http://www.w3.org/2000/svg" viewBox="0 0 26.03 29.5"><defs><style>.a7e50092-fe38-421e-9d8d-609590313ce7{fill:#999;}.baf4fc9e-e16e-4423-88f3-15e1987ca15b{font-size:5.29px;fill:#9a9a9a;stroke:#9a9a9a;stroke-miterlimit:10;stroke-width:0.3px;font-family:Arial;}.\39 9a899b1-d674-4123-bed5-7ac5070d2506{fill:#d7db9e;}</style></defs><title>mp4</title><path class="a7e50092-fe38-421e-9d8d-609590313ce7" d="M19.2,0H3.2V1.8h1V1H18.5V7.9h6.9V28.5H4.2V6.8h-1V29.5H26.3V7.2Zm0.3,6.9V1.7l5.25,5.2H19.5Z" transform="translate(-0.27)"/><text class="baf4fc9e-e16e-4423-88f3-15e1987ca15b" transform="translate(0.15 6.06)">MP4</text><path class="99a899b1-d674-4123-bed5-7ac5070d2506" d="M19,17.13v-3a0.84,0.84,0,0,0-.84-0.84H8a0.84,0.84,0,0,0-.84.84v8.44a0.84,0.84,0,0,0,.84.84H18.13A0.84,0.84,0,0,0,19,22.62v-3L22.35,23V13.76Z" transform="translate(-0.27)"/></svg>