<svg id="bad7aff8-3d66-4fcb-b3c5-f685eabceb2d" data-name="31c0447e-f6fc-4442-9ac6-51376a42e5df" xmlns="http://www.w3.org/2000/svg" viewBox="0 0 26.03 29.5"><defs><style>.\38 f7acf32-48e5-4e74-bfaf-150a4e05435b{fill:#999;}.\37 ba54a2e-58f9-4466-9f22-305e812329dc{font-size:5.29px;fill:#9a9a9a;stroke:#9a9a9a;stroke-miterlimit:10;stroke-width:0.3px;font-family:Arial;}.d022639c-c6f9-4842-a822-962eaa2044d2{fill:#d7db9e;}</style></defs><title>mpeg</title><path class="8f7acf32-48e5-4e74-bfaf-150a4e05435b" d="M19.2,0H3.2V1.8h1V1H18.5V7.9h6.9V28.5H4.2V6.8h-1V29.5H26.3V7.2Zm0.3,6.9V1.7l5.25,5.2H19.5Z" transform="translate(-0.27)"/><text class="7ba54a2e-58f9-4466-9f22-305e812329dc" transform="translate(0.15 6.06)">MPEG</text><path class="d022639c-c6f9-4842-a822-962eaa2044d2" d="M19,17.13v-3a0.84,0.84,0,0,0-.84-0.84H8a0.84,0.84,0,0,0-.84.84v8.44a0.84,0.84,0,0,0,.84.84H18.13A0.84,0.84,0,0,0,19,22.62v-3L22.35,23V13.76Z" transform="translate(-0.27)"/></svg>