<svg id="f76233a4-745a-4688-aa12-14b9ca13d728" data-name="31c0447e-f6fc-4442-9ac6-51376a42e5df" xmlns="http://www.w3.org/2000/svg" viewBox="0 0 26.03 29.5"><defs><style>.\37 542dc62-74f0-4c9b-a293-afe38563cefc{fill:#999;}.be71dfba-3926-4646-8ae2-9bb23db216b1{font-size:5.29px;fill:#9a9a9a;stroke:#9a9a9a;stroke-miterlimit:10;stroke-width:0.3px;font-family:Arial;}.\39 3c55254-b325-4d01-9a5d-8b5c6eefed52{fill:#d7db9e;}</style></defs><title>mpg</title><path class="7542dc62-74f0-4c9b-a293-afe38563cefc" d="M19.2,0H3.2V1.8h1V1H18.5V7.9h6.9V28.5H4.2V6.8h-1V29.5H26.3V7.2Zm0.3,6.9V1.7l5.25,5.2H19.5Z" transform="translate(-0.27)"/><text class="be71dfba-3926-4646-8ae2-9bb23db216b1" transform="translate(0.15 6.06)">MPG</text><path class="93c55254-b325-4d01-9a5d-8b5c6eefed52" d="M19,17.13v-3a0.84,0.84,0,0,0-.84-0.84H8a0.84,0.84,0,0,0-.84.84v8.44a0.84,0.84,0,0,0,.84.84H18.13A0.84,0.84,0,0,0,19,22.62v-3L22.35,23V13.76Z" transform="translate(-0.27)"/></svg>