<svg id="cecc02d9-eb20-44a3-bd49-4a12cc61956f" data-name="31c0447e-f6fc-4442-9ac6-51376a42e5df" xmlns="http://www.w3.org/2000/svg" viewBox="0 0 26.03 29.5"><defs><style>.bd4394d4-6175-4df1-ac5d-654c96949c5d{fill:#999;}.\35 0833355-116a-4286-adcc-1103351ecffb{font-size:5.29px;fill:#9a9a9a;stroke:#9a9a9a;stroke-miterlimit:10;stroke-width:0.3px;font-family:Arial;}.\30 f6254e9-ea8c-4e1f-bb04-3cf4f9876077{fill:#aad0ff;}</style></defs><title>ogg</title><path class="bd4394d4-6175-4df1-ac5d-654c96949c5d" d="M19.2,0H3.2V1.8h1V1H18.5V7.9h6.9V28.5H4.2V6.8h-1V29.5H26.3V7.2Zm0.3,6.9V1.7l5.25,5.2H19.5Z" transform="translate(-0.27)"/><text class="50833355-116a-4286-adcc-1103351ecffb" transform="translate(0.15 6.06)">OGG</text><path class="0f6254e9-ea8c-4e1f-bb04-3cf4f9876077" d="M22.13,11.27v9.85a2.76,2.76,0,1,1-2.76-2.76,2.68,2.68,0,0,1,1.18.27V14l-7.88,1.68v7a2.76,2.76,0,1,1-2.76-2.76,2.68,2.68,0,0,1,1.18.27V13.63Z" transform="translate(-0.27)"/></svg>