<svg id="b821207b-f994-45f7-a45f-2b7917c088c0" data-name="6897bbea-1def-4fd8-9c7a-cbad5da2441b" xmlns="http://www.w3.org/2000/svg" viewBox="0 0 25.64 29.5"><defs><style>.\38 4d5cb66-534d-4e5d-a7c4-f8d44ec51124{fill:#9e9e9e;}.ea2503ff-6bce-42f4-b47d-dc2c67654257{fill:#f19c7f;}.\31 116ab8f-af55-48aa-86a0-95ec1effdbbe{font-size:5.29px;fill:#9c9c9c;stroke:#9a9a9a;stroke-miterlimit:10;stroke-width:0.3px;font-family:Arial;}</style></defs><title>pdf</title><path class="84d5cb66-534d-4e5d-a7c4-f8d44ec51124" d="M18.6,0H2.6V1.8h1V1H17.9V7.9h6.9V28.5H3.6V6.8h-1V29.5H25.7V7.2Zm0.3,6.9V1.7l5.25,5.2H18.9Z" transform="translate(-0.06)"/><path class="ea2503ff-6bce-42f4-b47d-dc2c67654257" d="M8.79,25.8h0a0.91,0.91,0,0,1-.55-0.19,1.36,1.36,0,0,1-.63-1.27c0.1-.92,1.25-1.89,3.4-2.88a38.12,38.12,0,0,0,2.14-6.1c-0.57-1.23-1.12-2.83-.72-3.77a1.09,1.09,0,0,1,.64-0.69,2.79,2.79,0,0,1,.58-0.1,1.23,1.23,0,0,1,.72.6c0.17,0.21.55,0.67-.21,3.86a18.14,18.14,0,0,0,2.89,4.29,11,11,0,0,1,1.91-.2,1.69,1.69,0,0,1,1.65.63,1.15,1.15,0,0,1-.22,1.23,1.51,1.51,0,0,1-1.26.68,3.77,3.77,0,0,1-2.39-1.3,27.21,27.21,0,0,0-5,1.6,16.11,16.11,0,0,1-1.35,2.41A2.21,2.21,0,0,1,8.79,25.8Zm1.51-2.91c-1.21.68-1.71,1.24-1.74,1.56a0.42,0.42,0,0,0,.24.39C8.88,24.8,9.38,24.59,10.3,22.89ZM18,20.37a1.56,1.56,0,0,0,.88.54,0.86,0.86,0,0,0,.69-0.25,0.9,0.9,0,0,0,.13-0.24,1.13,1.13,0,0,0-.67-0.11A8.3,8.3,0,0,0,18,20.37ZM13.8,16.63a40.48,40.48,0,0,1-1.52,4.3A28.37,28.37,0,0,1,16,19.8,19.44,19.44,0,0,1,13.8,16.63ZM13.46,11.8a1.36,1.36,0,0,0,0,1.83A1.59,1.59,0,0,0,13.46,11.8Z" transform="translate(-0.06)"/><text class="1116ab8f-af55-48aa-86a0-95ec1effdbbe" transform="translate(0.15 6.16)">PDF</text></svg>