<svg id="5e2564dd-d0c1-4bf5-9e48-0f4aae8a8c18" data-name="31c0447e-f6fc-4442-9ac6-51376a42e5df" xmlns="http://www.w3.org/2000/svg" viewBox="0 0 26.03 29.5"><defs><style>.\31 9276bd6-029b-47ab-ba83-8f0267c20400{fill:#999;}.\30 23e4328-1e7a-42c1-a424-f29f3b1ebcda{font-size:5.29px;fill:#9a9a9a;stroke:#9a9a9a;stroke-miterlimit:10;stroke-width:0.3px;font-family:Arial;}.\36 ed07330-251d-48e8-b3eb-1ccdcef2b499{fill:#97ca9f;}</style></defs><title>png</title><path class="19276bd6-029b-47ab-ba83-8f0267c20400" d="M19.2,0H3.2V1.8h1V1H18.5V7.9h6.9V28.5H4.2V6.8h-1V29.5H26.3V7.2Zm0.3,6.9V1.7l5.25,5.2H19.5Z" transform="translate(-0.27)"/><text class="023e4328-1e7a-42c1-a424-f29f3b1ebcda" transform="translate(0.15 6.06)">PNG</text><path class="6ed07330-251d-48e8-b3eb-1ccdcef2b499" d="M22.36,25.63V11.24a0.4,0.4,0,0,0-.4-0.4H7.62a0.4,0.4,0,0,0-.4.4V25.63a0.4,0.4,0,0,0,.4.4H22A0.4,0.4,0,0,0,22.36,25.63ZM18.24,13.82a1.54,1.54,0,1,1-1.54,1.54A1.54,1.54,0,0,1,18.24,13.82ZM8.53,24.75c0.08-1.75,1-5.14,2.31-6.39s2.19-.14,3,1a27.69,27.69,0,0,0,1.9,2.57c0.88,0.89,1.64-.46,2.56-0.9,1.35-.64,2.46,2.71,2.75,3.73H8.53Z" transform="translate(-0.27)"/></svg>