<svg id="2834de60-86d3-414c-bfb3-f06aaf190900" data-name="31c0447e-f6fc-4442-9ac6-51376a42e5df" xmlns="http://www.w3.org/2000/svg" viewBox="0 0 26.41 29.5"><defs><style>.b752fa65-11b6-439b-8a4f-02b6655d87c7{fill:#999;}.\39 e3bda46-6d13-4c25-aa1b-8b38c3184d78{font-size:5.29px;fill:#9a9a9a;stroke:#9a9a9a;stroke-miterlimit:10;stroke-width:0.3px;font-family:Arial;}.a67cd0e5-4e8e-4660-b7fa-3978c819c7db{fill:#f19c7f;}</style></defs><title>pptx</title><path class="b752fa65-11b6-439b-8a4f-02b6655d87c7" d="M19.2,0H3.2V1.8h1V1H18.5V7.9h6.9V28.5H4.2V6.8h-1V29.5H26.3V7.2Zm0.3,6.9V1.7l5.25,5.2H19.5Z" transform="translate(0.11)"/><text class="9e3bda46-6d13-4c25-aa1b-8b38c3184d78" transform="translate(0.15 6.08)">PPTX</text><path class="a67cd0e5-4e8e-4660-b7fa-3978c819c7db" d="M16.5,15.89a1.16,1.16,0,0,1,.28.78,1.2,1.2,0,0,1-.2.67,1.14,1.14,0,0,1-.54.42,4.53,4.53,0,0,1-1.37.13h-1V15.46h0.83a8.53,8.53,0,0,1,1.25,0A1.21,1.21,0,0,1,16.5,15.89Z" transform="translate(0.11)"/><path class="a67cd0e5-4e8e-4660-b7fa-3978c819c7db" d="M20.65,10.89h-12a1.53,1.53,0,0,0-1.52,1.52v12a1.53,1.53,0,0,0,1.52,1.52h12a1.53,1.53,0,0,0,1.52-1.52v-12A1.53,1.53,0,0,0,20.65,10.89ZM18.28,18a2.38,2.38,0,0,1-.74.85,2.46,2.46,0,0,1-.89.41,10.25,10.25,0,0,1-1.8.12H13.72v3.24H12V14h2.79a9.76,9.76,0,0,1,2.06.13,2.25,2.25,0,0,1,1.23.84,2.61,2.61,0,0,1,.5,1.67A2.79,2.79,0,0,1,18.28,18Z" transform="translate(0.11)"/></svg>