<svg id="db4c42c4-c8ca-41b3-9058-69095588a469" data-name="31c0447e-f6fc-4442-9ac6-51376a42e5df" xmlns="http://www.w3.org/2000/svg" viewBox="0 0 26.53 29.5"><defs><style>.\31 18f23c7-3550-4b84-8214-0157bac82f2b{fill:#999;}.\30 6d3a049-4f45-4a63-b22d-72fbc0f1233f{font-size:5.29px;fill:#9a9a9a;stroke:#9a9a9a;stroke-miterlimit:10;stroke-width:0.3px;font-family:Arial;}.\38 e6cad7c-c82a-424f-9de4-f447083ee630{fill:#ffd57f;}</style></defs><title>rar</title><path class="118f23c7-3550-4b84-8214-0157bac82f2b" d="M19.2,0H3.2V1.8h1V1H18.5V7.9h6.9V28.5H4.2V6.8h-1V29.5H26.3V7.2Zm0.3,6.9V1.7l5.25,5.2H19.5Z" transform="translate(0.23)"/><text class="06d3a049-4f45-4a63-b22d-72fbc0f1233f" transform="translate(0.15 6)">RAR</text><polyline class="8e6cad7c-c82a-424f-9de4-f447083ee630" points="16.95 22.79 14.42 22.79 14.42 20.79 11.89 20.79 11.89 18.79 14.42 18.79 14.42 20.79 16.95 20.79"/><polyline class="8e6cad7c-c82a-424f-9de4-f447083ee630" points="16.95 14.8 14.42 14.8 14.42 16.8 16.95 16.8 16.95 18.79 14.42 18.79 14.42 16.8 11.89 16.8 11.89 14.8 14.42 14.8 14.42 12.8 11.89 12.8 11.89 10.8 14.42 10.8 14.42 12.8 16.95 12.8"/><path class="8e6cad7c-c82a-424f-9de4-f447083ee630" d="M16.09,23.47H12.37a0.71,0.71,0,0,0-.72.71v1.1a0.72,0.72,0,0,0,.72.72h3.72a0.71,0.71,0,0,0,.71-0.72v-1.1A0.71,0.71,0,0,0,16.09,23.47Zm-0.86,1.79h-2a0.53,0.53,0,0,1-.53-0.53,0.53,0.53,0,0,1,.53-0.53h2a0.53,0.53,0,0,1,.53.53A0.53,0.53,0,0,1,15.23,25.26Z" transform="translate(0.23)"/></svg>