<svg id="63fc248c-0c1a-42b7-ab6b-a7620b865192" data-name="31c0447e-f6fc-4442-9ac6-51376a42e5df" xmlns="http://www.w3.org/2000/svg" viewBox="0 0 26.03 29.5"><defs><style>.\37 26f62f8-49d0-4277-82a2-ba2560cd119b{fill:#999;}.a2d91590-0a58-4563-840d-2bf0a40b9c79{font-size:5.29px;fill:#9a9a9a;stroke:#9a9a9a;stroke-miterlimit:10;stroke-width:0.3px;font-family:Arial;}.f6fd7b21-f3f4-40fa-a265-cee07ee03bab{fill:#fcb9ce;}</style></defs><title>rdf</title><path class="726f62f8-49d0-4277-82a2-ba2560cd119b" d="M19.2,0H3.2V1.8h1V1H18.5V7.9h6.9V28.5H4.2V6.8h-1V29.5H26.3V7.2Zm0.3,6.9V1.7l5.25,5.2H19.5Z" transform="translate(-0.27)"/><text class="a2d91590-0a58-4563-840d-2bf0a40b9c79" transform="translate(0.15 6.06)">RDF</text><path class="f6fd7b21-f3f4-40fa-a265-cee07ee03bab" d="M11.87,26a3.87,3.87,0,0,1,.31-4.45,7.1,7.1,0,0,0,1.07-2.48,2.91,2.91,0,0,1,.4,2.23,5.64,5.64,0,0,0,1.23-4.22A7.29,7.29,0,0,1,17.15,26c8.2-4.64,2-11.58,1-12.36a2.54,2.54,0,0,1-.3,2.75c-1.22-4.64-4.24-5.59-4.24-5.59,0.36,2.39-1.3,5-2.89,7a5.17,5.17,0,0,0-.62-2.52C10,17,8.64,18.38,8.28,20.11,7.79,22.46,8.64,24.18,11.87,26Z" transform="translate(-0.27)"/></svg>