<svg id="d2b93c66-8a19-4698-be59-ab4737266332" data-name="Слой 1" xmlns="http://www.w3.org/2000/svg" viewBox="0 0 26.48 29.5"><defs><style>.\39 86dc29b-3108-4702-b014-817bb9121d01{fill:#999;}.\38 a87243a-ea07-4ca9-a003-539e7e26249f{font-size:4px;fill:#9a9a9a;stroke:#9a9a9a;stroke-miterlimit:10;stroke-width:0.3px;font-family:Arial;}.a1903423-12a2-47ba-bbf4-5c69f4a00394{fill:#65efeb;}</style></defs><title>record</title><path class="986dc29b-3108-4702-b014-817bb9121d01" d="M34.45,10.2h-16V12h1V11.2h14.3v6.9h6.9V38.7H19.45V17h-1V39.7h23.1V17.4Zm0.3,6.9V11.9L40,17.1h-5.2Z" transform="translate(-15.07 -10.2)"/><text class="8a87243a-ea07-4ca9-a003-539e7e26249f" transform="translate(0.15 5.69)">RECORD</text><path class="a1903423-12a2-47ba-bbf4-5c69f4a00394" d="M30.53,28.36l-1.75-3.22A0.29,0.29,0,0,0,28.52,25H25a0.29,0.29,0,0,0-.26.15L23,28.36a0.29,0.29,0,0,0,0,.28l1.75,3.22A0.29,0.29,0,0,0,25,32h3.51a0.29,0.29,0,0,0,.26-0.15l1.75-3.22A0.29,0.29,0,0,0,30.53,28.36Zm-2.18,3.06H25.19L23.59,28.5l1.59-2.92h3.16l1.59,2.92Z" transform="translate(-15.07 -10.2)"/><path class="a1903423-12a2-47ba-bbf4-5c69f4a00394" d="M24.85,28.36a0.29,0.29,0,1,0-.51.28l1.12,2A0.29,0.29,0,1,0,26,30.41Z" transform="translate(-15.07 -10.2)"/><path class="a1903423-12a2-47ba-bbf4-5c69f4a00394" d="M27.83,26.16H25.71a0.29,0.29,0,1,0,0,.58h2.12A0.29,0.29,0,0,0,27.83,26.16Z" transform="translate(-15.07 -10.2)"/><path class="a1903423-12a2-47ba-bbf4-5c69f4a00394" d="M31.19,28.06a0.29,0.29,0,0,0,.25.15H35a0.29,0.29,0,0,0,.25-0.15L37,25a0.29,0.29,0,0,0,0-.29l-1.75-3.07A0.29,0.29,0,0,0,35,21.48H31.45a0.29,0.29,0,0,0-.25.15L29.44,24.7a0.29,0.29,0,0,0,0,.29Zm0.42-6h3.17l1.59,2.78-1.59,2.78H31.62L30,24.85Z" transform="translate(-15.07 -10.2)"/><path class="a1903423-12a2-47ba-bbf4-5c69f4a00394" d="M35.21,28.94A0.29,0.29,0,0,0,35,28.79H31.45a0.29,0.29,0,0,0-.25.15L29.44,32a0.29,0.29,0,0,0,0,.29l1.75,3.07a0.29,0.29,0,0,0,.25.15H35a0.29,0.29,0,0,0,.25-0.15L37,32.3A0.29,0.29,0,0,0,37,32Zm-0.42,6H31.62L30,32.15l1.59-2.78h3.17l1.59,2.78Z" transform="translate(-15.07 -10.2)"/><path class="a1903423-12a2-47ba-bbf4-5c69f4a00394" d="M34.27,33.76H32.12a0.29,0.29,0,1,0,0,.58h2.15A0.29,0.29,0,0,0,34.27,33.76Z" transform="translate(-15.07 -10.2)"/><path class="a1903423-12a2-47ba-bbf4-5c69f4a00394" d="M34.13,30a0.29,0.29,0,0,0-.11.4l1.09,1.9a0.29,0.29,0,0,0,.25.15,0.29,0.29,0,0,0,.15,0,0.29,0.29,0,0,0,.11-0.4l-1.09-1.9A0.29,0.29,0,0,0,34.13,30Z" transform="translate(-15.07 -10.2)"/></svg>