<svg id="f6e5567b-d411-4ccf-b481-b78eb7d8e427" data-name="31c0447e-f6fc-4442-9ac6-51376a42e5df" xmlns="http://www.w3.org/2000/svg" viewBox="0 0 26.06 29.5"><defs><style>.\31 1a45a4b-e7e4-4f1d-9d9b-2946099c3f08{fill:#999;}.b94edb07-84bb-4b92-8d77-74502fff2bcb{font-size:5.29px;fill:#9a9a9a;stroke:#9a9a9a;stroke-miterlimit:10;stroke-width:0.3px;font-family:Arial;}.f067e9ab-c956-47cf-81aa-c5923ab5c1e3{fill:#97ca9f;}</style></defs><title>tif</title><path class="11a45a4b-e7e4-4f1d-9d9b-2946099c3f08" d="M19.2,0H3.2V1.8h1V1H18.5V7.9h6.9V28.5H4.2V6.8h-1V29.5H26.3V7.2Zm0.3,6.9V1.7l5.25,5.2H19.5Z" transform="translate(-0.24)"/><text class="b94edb07-84bb-4b92-8d77-74502fff2bcb" transform="translate(0.18 6.06)">TIF</text><path class="f067e9ab-c956-47cf-81aa-c5923ab5c1e3" d="M22.36,25.63V11.24a0.4,0.4,0,0,0-.4-0.4H7.62a0.4,0.4,0,0,0-.4.4V25.63a0.4,0.4,0,0,0,.4.4H22A0.4,0.4,0,0,0,22.36,25.63ZM18.24,13.82a1.54,1.54,0,1,1-1.54,1.54A1.54,1.54,0,0,1,18.24,13.82ZM8.53,24.75c0.08-1.75,1-5.14,2.31-6.39s2.19-.14,3,1a27.69,27.69,0,0,0,1.9,2.57c0.88,0.89,1.64-.46,2.56-0.9,1.35-.64,2.46,2.71,2.75,3.73H8.53Z" transform="translate(-0.24)"/></svg>