<svg id="db75e1a6-9e9f-45d7-96eb-0b1a404ccbed" data-name="31c0447e-f6fc-4442-9ac6-51376a42e5df" xmlns="http://www.w3.org/2000/svg" viewBox="0 0 26.06 29.5"><defs><style>.d0897a9f-31c7-4349-8391-6930cab1bdaa{fill:#999;}.\34 9b283f3-a092-4f90-b24a-b59572b977bb{font-size:5.29px;fill:#9a9a9a;stroke:#9a9a9a;stroke-miterlimit:10;stroke-width:0.3px;font-family:Arial;}.\33 4d5bebb-d82f-4d17-a8c4-c136ca611941{fill:#a3efc2;}</style></defs><title>tsv</title><path class="d0897a9f-31c7-4349-8391-6930cab1bdaa" d="M19.2,0H3.2V1.8h1V1H18.5V7.9h6.9V28.5H4.2V6.8h-1V29.5H26.3V7.2Zm0.3,6.9V1.7l5.25,5.2H19.5Z" transform="translate(-0.24)"/><text class="49b283f3-a092-4f90-b24a-b59572b977bb" transform="translate(0.18 6.06)">TSV</text><rect class="34d5bebb-d82f-4d17-a8c4-c136ca611941" x="12.47" y="22.23" width="4.39" height="2.04"/><rect class="34d5bebb-d82f-4d17-a8c4-c136ca611941" x="7.11" y="22.23" width="4.39" height="2.04"/><rect class="34d5bebb-d82f-4d17-a8c4-c136ca611941" x="12.47" y="19.23" width="4.39" height="2.04"/><rect class="34d5bebb-d82f-4d17-a8c4-c136ca611941" x="7.11" y="19.23" width="4.39" height="2.04"/><rect class="34d5bebb-d82f-4d17-a8c4-c136ca611941" x="12.47" y="16.34" width="4.39" height="2.04"/><rect class="34d5bebb-d82f-4d17-a8c4-c136ca611941" x="7.11" y="16.34" width="4.39" height="2.04"/><rect class="34d5bebb-d82f-4d17-a8c4-c136ca611941" x="17.72" y="16.34" width="4.39" height="2.04"/><rect class="34d5bebb-d82f-4d17-a8c4-c136ca611941" x="12.47" y="13.45" width="4.39" height="2.04"/><rect class="34d5bebb-d82f-4d17-a8c4-c136ca611941" x="7.11" y="13.45" width="4.39" height="2.04"/><rect class="34d5bebb-d82f-4d17-a8c4-c136ca611941" x="17.72" y="13.45" width="4.39" height="2.04"/></svg>