<svg id="7c52bbdc-bc28-4aa7-a320-422695041065" data-name="31c0447e-f6fc-4442-9ac6-51376a42e5df" xmlns="http://www.w3.org/2000/svg" viewBox="0 0 26.12 29.5"><defs><style>.\35 1dbe255-6faa-4090-889c-f240d1e3413a{fill:#999;}.\37 bae97f8-358d-485b-9d42-633076316c91{font-size:5.29px;fill:#9a9a9a;stroke:#9a9a9a;stroke-miterlimit:10;stroke-width:0.3px;font-family:Arial;}.\36 26f7bb0-0ecc-4a37-833c-01285d2c66f0{fill:#aad0ff;}</style></defs><title>wav</title><path class="51dbe255-6faa-4090-889c-f240d1e3413a" d="M19.2,0H3.2V1.8h1V1H18.5V7.9h6.9V28.5H4.2V6.8h-1V29.5H26.3V7.2Zm0.3,6.9V1.7l5.25,5.2H19.5Z" transform="translate(-0.18)"/><text class="7bae97f8-358d-485b-9d42-633076316c91" transform="translate(0.24 6.06)">W<tspan x="4.79" y="0">A</tspan><tspan x="7.93" y="0">V</tspan></text><path class="626f7bb0-0ecc-4a37-833c-01285d2c66f0" d="M22.13,11.27v9.85a2.76,2.76,0,1,1-2.76-2.76,2.68,2.68,0,0,1,1.18.27V14l-7.88,1.68v7a2.76,2.76,0,1,1-2.76-2.76,2.68,2.68,0,0,1,1.18.27V13.63Z" transform="translate(-0.18)"/></svg>