<svg id="e08fce5c-a3f2-40bc-8836-42f1bc981b32" data-name="31c0447e-f6fc-4442-9ac6-51376a42e5df" xmlns="http://www.w3.org/2000/svg" viewBox="0 0 26.12 29.5"><defs><style>.bbfe1725-67c9-4ba9-ac7a-02a15ec3a2df{fill:#999;}.\32 f591ac9-a9ae-45a1-8f97-05eff1258f0f{font-size:5.29px;fill:#9a9a9a;stroke:#9a9a9a;stroke-miterlimit:10;stroke-width:0.3px;font-family:Arial;}.\39 7a8dd9a-39e7-4aa3-abb6-dfc26c1a5150{fill:#aad0ff;}</style></defs><title>wma</title><path class="bbfe1725-67c9-4ba9-ac7a-02a15ec3a2df" d="M19.2,0H3.2V1.8h1V1H18.5V7.9h6.9V28.5H4.2V6.8h-1V29.5H26.3V7.2Zm0.3,6.9V1.7l5.25,5.2H19.5Z" transform="translate(-0.18)"/><text class="2f591ac9-a9ae-45a1-8f97-05eff1258f0f" transform="translate(0.24 6.06)">WM<tspan x="9.39" y="0">A</tspan></text><path class="97a8dd9a-39e7-4aa3-abb6-dfc26c1a5150" d="M22.13,11.27v9.85a2.76,2.76,0,1,1-2.76-2.76,2.68,2.68,0,0,1,1.18.27V14l-7.88,1.68v7a2.76,2.76,0,1,1-2.76-2.76,2.68,2.68,0,0,1,1.18.27V13.63Z" transform="translate(-0.18)"/></svg>