<svg id="37d08966-ada3-4abe-8733-21893e2e6244" data-name="31c0447e-f6fc-4442-9ac6-51376a42e5df" xmlns="http://www.w3.org/2000/svg" viewBox="0 0 26.54 29.5"><defs><style>.\30 f188a42-090a-4e6b-82ef-0bb66a67f3c0{fill:#999;}.\39 98e581a-c17f-4edf-a9a6-045bbee6733e{fill:#97ca9f;}.\30 e2b61fa-82fe-4e0a-9c32-fa56cb6aa149{font-size:5.29px;fill:#9a9a9a;stroke:#9a9a9a;stroke-miterlimit:10;stroke-width:0.3px;font-family:Arial;}</style></defs><title>xls</title><path class="0f188a42-090a-4e6b-82ef-0bb66a67f3c0" d="M19.2,0H3.2V1.8h1V1H18.5V7.9h6.9V28.5H4.2V6.8h-1V29.5H26.3V7.2Zm0.3,6.9V1.7l5.25,5.2H19.5Z" transform="translate(0.24)"/><path class="998e581a-c17f-4edf-a9a6-045bbee6733e" d="M18.39,22.75h-1.7l-1.87-3.21-1.87,3.21h-1.7L14,18.52,11.25,14.3h1.7l1.87,3.21,1.87-3.21h1.7l-2.72,4.22m5.1-7.6H8.87a1.69,1.69,0,0,0-1.7,1.69V24.44a1.69,1.69,0,0,0,1.7,1.69H20.76a1.69,1.69,0,0,0,1.7-1.69V12.61A1.69,1.69,0,0,0,20.76,10.92Z" transform="translate(0.24)"/><text class="0e2b61fa-82fe-4e0a-9c32-fa56cb6aa149" transform="translate(0.28 6.08)">XLS</text></svg>