<svg id="64669f90-fce4-464d-84e2-c072a184d227" data-name="31c0447e-f6fc-4442-9ac6-51376a42e5df" xmlns="http://www.w3.org/2000/svg" viewBox="0 0 26.54 29.5"><defs><style>.e6bc31b8-5a61-4409-af2f-2d1bb4ccce43{fill:#999;}.\31 d1e9278-540d-4442-a381-e6caad6763b8{fill:#97ca9f;}.\37 d09a488-77c0-4e58-8cd6-3fadd28bfb7f{font-size:5.29px;fill:#9a9a9a;stroke:#9a9a9a;stroke-miterlimit:10;stroke-width:0.3px;font-family:Arial;}</style></defs><title>xlsx</title><path class="e6bc31b8-5a61-4409-af2f-2d1bb4ccce43" d="M19.2,0H3.2V1.8h1V1H18.5V7.9h6.9V28.5H4.2V6.8h-1V29.5H26.3V7.2Zm0.3,6.9V1.7l5.25,5.2H19.5Z" transform="translate(0.24)"/><path class="1d1e9278-540d-4442-a381-e6caad6763b8" d="M18.39,22.75h-1.7l-1.87-3.21-1.87,3.21h-1.7L14,18.52,11.25,14.3h1.7l1.87,3.21,1.87-3.21h1.7l-2.72,4.22m5.1-7.6H8.87a1.69,1.69,0,0,0-1.7,1.69V24.44a1.69,1.69,0,0,0,1.7,1.69H20.76a1.69,1.69,0,0,0,1.7-1.69V12.61A1.69,1.69,0,0,0,20.76,10.92Z" transform="translate(0.24)"/><text class="7d09a488-77c0-4e58-8cd6-3fadd28bfb7f" transform="translate(0.28 6.08)">XLSX</text></svg>