<svg id="dce53c74-d215-4ef7-85ac-5078c6ee726d" data-name="31c0447e-f6fc-4442-9ac6-51376a42e5df" xmlns="http://www.w3.org/2000/svg" viewBox="0 0 26.16 29.5"><defs><style>.\31 f41ade9-0ec1-4838-9da8-53607e0efb75{fill:#999;}.b2888d55-ab2c-43db-be85-3ef220932c74{font-size:5.29px;fill:#9a9a9a;stroke:#9a9a9a;stroke-miterlimit:10;stroke-width:0.3px;font-family:Arial;}.\34 3fa490d-56b9-450f-9dc5-8f72a593b901{fill:#d6e2a0;}</style></defs><title>xml</title><path class="1f41ade9-0ec1-4838-9da8-53607e0efb75" d="M19.2,0H3.2V1.8h1V1H18.5V7.9h6.9V28.5H4.2V6.8h-1V29.5H26.3V7.2Zm0.3,6.9V1.7l5.25,5.2H19.5Z" transform="translate(-0.14)"/><text class="b2888d55-ab2c-43db-be85-3ef220932c74" transform="translate(0.28 6.06)">XM<tspan x="7.93" y="0">L</tspan></text><path class="43fa490d-56b9-450f-9dc5-8f72a593b901" d="M15.51,11.82L17,12.11l-2.76,13-1.45-.3,2.76-13m4.95,6.65L17.8,15.81V13.72l4.74,4.74L17.8,23.2V21.11l2.65-2.64m-13.31,0,4.74-4.74v2.09L9.24,18.47l2.65,2.64V23.2Z" transform="translate(-0.14)"/></svg>