<svg id="8dcfd394-45a0-4619-8a72-33d360a0b9c2" data-name="31c0447e-f6fc-4442-9ac6-51376a42e5df" xmlns="http://www.w3.org/2000/svg" viewBox="0 0 26.08 29.5"><defs><style>.\39 9c04ba3-e84a-4d6b-a06d-9cfee8c94900{fill:#999;}.a819c640-90f8-41d2-aeab-29d3777e8d8c{font-size:5.29px;fill:#9a9a9a;stroke:#9a9a9a;stroke-miterlimit:10;stroke-width:0.3px;font-family:Arial;}.faef9749-81aa-42cb-a273-e3a576afc74c{fill:#ffd57f;}</style></defs><title>zip</title><path class="99c04ba3-e84a-4d6b-a06d-9cfee8c94900" d="M19.2,0H3.2V1.8h1V1H18.5V7.9h6.9V28.5H4.2V6.8h-1V29.5H26.3V7.2Zm0.3,6.9V1.7l5.25,5.2H19.5Z" transform="translate(-0.22)"/><text class="a819c640-90f8-41d2-aeab-29d3777e8d8c" transform="translate(0.19 6.06)">ZI<tspan x="4.7" y="0">P</tspan></text><polyline class="faef9749-81aa-42cb-a273-e3a576afc74c" points="16.5 22.79 13.96 22.79 13.96 20.79 11.43 20.79 11.43 18.79 13.96 18.79 13.96 20.79 16.5 20.79"/><polyline class="faef9749-81aa-42cb-a273-e3a576afc74c" points="16.5 14.8 13.96 14.8 13.96 16.8 16.5 16.8 16.5 18.79 13.96 18.79 13.96 16.8 11.43 16.8 11.43 14.8 13.96 14.8 13.96 12.8 11.43 12.8 11.43 10.8 13.96 10.8 13.96 12.8 16.5 12.8"/><path class="faef9749-81aa-42cb-a273-e3a576afc74c" d="M16.09,23.47H12.37a0.71,0.71,0,0,0-.72.71v1.1a0.72,0.72,0,0,0,.72.72h3.72a0.71,0.71,0,0,0,.71-0.72v-1.1A0.71,0.71,0,0,0,16.09,23.47Zm-0.86,1.79h-2a0.53,0.53,0,0,1-.53-0.53,0.53,0.53,0,0,1,.53-0.53h2a0.53,0.53,0,0,1,.53.53A0.53,0.53,0,0,1,15.23,25.26Z" transform="translate(-0.22)"/></svg>