<svg version="1.1" xmlns="http://www.w3.org/2000/svg" xmlns:xlink="http://www.w3.org/1999/xlink" x="0px" y="0px" viewBox="0 0 1000 1000" xml:space="preserve">
    <path d="M926.1,389.3c74.8,51.5,85.6,167.2,23.6,229.2c-7.5,7.5-10.2,5.5-15-2.4c-24.8-40.3-60.5-65-107.6-72.4c-7.6-1.2-18.2-5.2-19.7,7c-1.3,11.1,9.1,9.9,16.4,10.8c57.2,7.3,106.5,56.9,115.1,116.1c9.5,64.8-21.4,126.8-75.7,151.6c-4.5-4.6-1.6-10.2-1.7-15.1c-0.5-44.2-19.6-79.7-51.2-109.3c-5-4.6-10.7-9.2-16.7-2.1c-5.2,6.3-0.4,11,4.3,15.2c75.6,67.3,55.9,176.9-42.7,222.5c-68.8,31.8-158.8,17.1-209.9-34.6c-23.2-23.5-35.9-51.4-35.6-85c0.4-48,0.4-96.1-0.1-144.1c-0.1-11.3,3-13.6,14.1-11.5c38.2,7.2,66.2,34.7,75.6,74.5c1.8,7.5-1.6,23,13,19.2c12-3.2,5.9-15.9,4.1-24.1c-10.4-48.4-46.6-81.1-97.3-87.9c-6.8-0.9-9.4-2.8-9.4-9.8c0.2-50.8,0.3-101.5,0-152.3c-0.1-11.1,5.5-7.2,11.4-5.8c42.6,10.4,81.1,2.8,114-27.4c2.4-2.2,4.7-4.6,6.8-7c4.1-4.6,5.5-9.7,0.5-14.4c-5.5-5.3-10-1.9-13.9,2.4c-17.3,19.1-38.9,29.4-64.2,32.5c-3.8,0.5-7.6,0.7-11.4,0.6c-38.7-0.9-43.2-5.5-43.2-43.3c0-72.6-0.8-145.2,0.3-217.7C511.4,91.4,628.2,13.3,733.7,53.7c66.4,25.4,95.9,91.8,97.7,148c0.5,14.7-7.6,9.1-14.7,7c-72.4-21.5-147.9,5.6-187.7,67.4c-18.3,28.4-26.2,59.6-23.8,93.4c0.3,4.3,1.2,8.6,2.3,12.8c1.3,5,5.1,6.9,10,6c4.3-0.7,6.7-3.5,6.8-7.9c0.1-3.3-0.3-6.5-0.5-9.8c-5.5-74.6,48.3-141.2,121.1-149.8c81-9.6,147.7,37.8,161.6,113.8c7.6,41.5-1,78.9-24.3,113.5c-3.9,5.7-10.8,12.1-2.5,18.1c9.3,6.7,13.3-2.8,17.6-8.6C912.5,437.8,920.5,414.7,926.1,389.3L926.1,389.3z M184.3,710c5.6-5.6,12.2-16.9,21.2-8c9.8,9.7-3.2,15-8.6,20.4c-52.4,52.4-54.5,126.4-4.6,180.6c66.8,72.5,202.2,71.1,267.4-2.9c17.8-20.2,30.2-43.3,30.3-70.6c0.5-117.3,0.2-234.7,0.6-352c0-12.2-5.2-12.2-13.9-9.4c-24.1,7.9-40,23.5-45.9,48.7c-1.6,7-3,15.3-13.1,12.3c-8.9-2.6-6.4-10.3-4.8-16.5c9.1-33.4,30-55.3,64.3-62.3c10.9-2.2,13.7-6.4,13.6-17c-0.5-69.3-0.7-138.6,0-207.9c0.4-39.4-11.9-73.8-35.8-104.5c-43.5-55.9-117.1-75.4-182.1-48.3c-65.4,27.3-102.1,90.6-93.7,161.6c7.6,64.1,63.9,118.3,132.4,128.7c7.7,1.2,23-2.9,20.9,11.2c-2,14.2-16.4,7.8-24.5,6.3C234.3,366.7,184.7,325,164.4,252c-4.1-14.8-8.4-11.3-16.4-4.9c-44.7,35.8-63,82.1-55.5,138.6c3,23.1,12.1,44,25.5,63c4,5.7,10.5,12,1.7,18c-8.6,5.8-12.4-2.8-16.5-8.2c-3-3.9-5.6-8.1-8.1-12.3c-10.6-17.4-16.1-36.7-21.2-56.4C2.5,435.8-15,550.1,52.1,619.8c8.9,9.2,10.3-0.1,13.4-4.8c26.2-41,63.4-65.1,111.5-72.4c6.5-1,14.2-2.1,15.9,6.9c1.8,9.2-5.6,10.3-12.3,11.5c-72.4,12.8-116,61.4-121.3,134.9c-3.9,54.2,30.7,113.4,80,133.7C135.2,781.5,151.7,742.5,184.3,710L184.3,710z M656.6,672.2c-5.9,3.4-14.7,5.6-10,15c4.7,9.3,11.9,4.5,18.1,1.2c50.7-26.6,80.2-91.1,67-146.9c-1.4-6.1-2.5-14.2-11.7-12.5c-9.2,1.7-7.9,9.2-6.2,15.6c2.1,8,2.4,16.1,2.7,24.4C714.9,613.9,696.6,649.3,656.6,672.2L656.6,672.2z M291.7,674.8c4.3,5.8,9.2,12.8,17.2,7c7.4-5.4,1.8-11.3-2-16.8c-39.4-56.2-39.4-117.6,0-173.3c3.8-5.3,9.7-11.1,2.4-16.8c-7.8-6.1-12.9,0.6-17.2,6.5c-21.2,28.4-32.3,60.2-31.8,94.2C259.3,613.4,270.1,645.8,291.7,674.8L291.7,674.8z" />
</svg>
