<svg version="1.1" xmlns="http://www.w3.org/2000/svg" xmlns:xlink="http://www.w3.org/1999/xlink" x="0px" y="0px" viewBox="0 0 1000 1000" xml:space="preserve">
    <path d="M945.2,391.3c-49.1-49.3-122.9-57.4-181-25.6L633.8,235.1c31.6-58.1,23.6-132-25.6-181.2C548.3-5.8,451.3-5.8,391.5,54c-49.3,49.3-57.3,123.6-25.3,181.8l-130,130.1c-58.1-32-132.2-24-181.4,25.4c-59.7,60-59.7,157.2,0,217.1c49,49.2,122.6,57.3,180.6,25.8l130.5,130.6c-31.7,58.1-23.6,132.1,25.6,181.2c59.8,59.8,156.9,59.8,216.7,0c49-49,57.2-122.6,25.9-180.6l131-131.1c57.9,31.2,131.3,23,180.1-26C1004.9,548.4,1004.9,451.2,945.2,391.3L945.2,391.3z M408.8,715.4L284.9,591.2c38.5-51.8,40.7-122.1,5.7-175.6l125.1-125.3c52.4,34.5,121.2,33,172.6-3.6l124.4,124.6c-39.2,55.5-37.1,130.6,5.8,184.2L595.3,719C541,675.3,464.4,674,408.8,715.4L408.8,715.4z" />
</svg>
