<svg id="177b0c6a-c522-45fa-ad6f-a09838328444" data-name="Слой 1" xmlns="http://www.w3.org/2000/svg" viewBox="0 0 282 700"><title>digit-3</title><path d="M258,115V251c0,19.3-2.7,33.5-8,42.5s-17,13.8-35,14.5H152c-10.7,0-17.8,1.8-21.5,5.5S125,324.3,125,335v31h84c20.7,0,35.3,4.3,44,13s13,23.3,13,44V585c0,20.7-2.7,35.3-8,44s-18.3,13-39,13H72q6,28.95,18.5,43.5c8.3,9.7,22.2,14.5,41.5,14.5H251q52.05,0,73.5-21.5T346,605V423q0-76.95-55-91v-1q28.95-7.05,38-28t9-62V95q0-52.05-21.5-73.5T243,0H124C104.7,0,90.8,4.8,82.5,14.5S68,38.7,64,58H211c20.7,0,33.7,4.3,39,13S258,94.3,258,115Z" transform="translate(-64)"/></svg>