<svg id="fcf7b62f-c2e2-4ed6-8ef2-41d7d8677da1" data-name="Слой 1" xmlns="http://www.w3.org/2000/svg" viewBox="0 0 291 700"><title>digit-5</title><path d="M162,58H334c10.7,0,17.5-1.8,20.5-5.5S359,41.7,359,31V0H113C102.3,0,95.2,1.8,91.5,5.5S86,16.3,86,27V339c0,10.7,1.8,17.8,5.5,21.5S102.3,366,113,366H245c20.7,0,33.7,4.3,39,13s8,23.3,8,44V585c0,20.7-2.7,35.3-8,44s-18.3,13-39,13H81q6,28.95,18.5,43.5c8.3,9.7,22.2,14.5,41.5,14.5H277q52.05,0,73.5-21.5T372,605V403q0-52.05-21.5-73.5T277,308H161Z" transform="translate(-81)"/></svg>