<svg id="8c72ee98-c9d7-4661-85fb-f0f02f6e02ef" data-name="Слой 1" xmlns="http://www.w3.org/2000/svg" viewBox="0 0 306 700"><title>digit-8</title><path d="M315,423V585c0,20.7-2.7,35.3-8,44s-18.3,13-39,13H216c-20.7,0-33.7-4.3-39-13s-8-23.3-8-44V423c0-20.7,2.7-35.3,8-44s18.3-13,39-13h52c20.7,0,33.7,4.3,39,13S315,402.3,315,423Zm0-312V251c0,20.7-2.7,35.3-8,44s-18.3,13-39,13H216c-20.7,0-33.7-4.3-39-13s-8-23.3-8-44V111c0-20.7,2.7-35.3,8-44s18.3-13,39-13h52c20.7,0,33.7,4.3,39,13S315,90.3,315,111ZM89,423V605q0,52.05,19,73.5c12.7,14.3,36.3,21.5,71,21.5H308c34.7,0,57.8-7.2,69.5-21.5S395,639.7,395,605V423q0-76.95-55-91v-1q28.95-7.05,42-28t13-62V95q0-52.05-19-73.5C363.3,7.2,339.7,0,305,0H179c-34.7,0-58.3,7.2-71,21.5S89,60.3,89,95V241q0,40.95,13,62t42,28v1Q89,345.95,89,423Z" transform="translate(-89)"/></svg>