<svg id="79ec471b-b0d2-4286-9d58-74195b6cacb9" data-name="Слой 1" xmlns="http://www.w3.org/2000/svg" viewBox="0 0 299 700"><title>digit-9</title><path d="M173,392h59c10.7,0,17.5-1.8,20.5-5.5S257,375.7,257,365V334H205c-20.7,0-33.7-4.3-39-13s-8-23.3-8-44V111c0-20.7,2.7-35.3,8-44s18.3-13,39-13h45c20.7,0,33.7,4.3,39,13s8,23.3,8,44V585c0,20.7-2.7,35.3-8,44s-18.3,13-39,13H92q6,28.95,18.5,43.5c8.3,9.7,22.2,14.5,41.5,14.5H282q52.05,0,73.5-21.5T377,605V95q0-52.05-21.5-73.5T282,0H173Q121,0,99.5,21.5T78,95V297q0,52.05,21.5,73.5T173,392Z" transform="translate(-78)"/></svg>