<svg id="de7da75d-7280-4f81-8b2a-6e5964df9820" data-name="Слой 1" xmlns="http://www.w3.org/2000/svg" viewBox="0 0 280 700"><title>digit-2</title><path d="M360,271V95q0-52.05-21.5-73.5T265,0H146c-19.3,0-33.2,4.8-41.5,14.5S90,38.7,86,58H233c20.7,0,33.7,4.3,39,13s8,23.3,8,44V251a223.4,223.4,0,0,1-1.5,29c-1,7.3-3.2,13-6.5,17s-8.2,6.8-14.5,8.5S243,308,233,308H175c-18.7,0-34,1.3-46,4s-21.7,7.5-29,14.5-12.5,16.7-15.5,29S80,383.7,80,403V605q0,52.05,21.5,73.5T175,700H333c10.7,0,17.8-1.8,21.5-5.5S360,683.7,360,673V642H207c-20.7,0-33.7-4.3-39-13s-8-23.3-8-44V423a223.4,223.4,0,0,1,1.5-29c1-7.3,3.2-13,6.5-17s8.2-6.8,14.5-8.5S197,366,207,366h58c18.7,0,34-1.3,46-4s21.7-7.5,29-14.5,12.5-16.7,15.5-29S360,290.3,360,271Z" transform="translate(-80)"/></svg>