<svg id="49eb9970-2fe1-40e2-8e06-e45741beb7cb" data-name="Слой 1" xmlns="http://www.w3.org/2000/svg" viewBox="0 0 205.89 256.61"><title>all</title><path d="M60.86,119.53c-6.85,0-6.85,10.65,0,10.65h81.88c6.87,0,6.87-10.65,0-10.65H60.86Z" transform="translate(-25.36)"/><path d="M142.73,161H60.86c-6.85,0-6.85,10.63,0,10.63h81.87C149.6,171.65,149.6,161,142.73,161Z" transform="translate(-25.36)"/><path d="M141.17,202.93H59.28c-6.85,0-6.85,10.63,0,10.63h81.89C148,213.57,148,202.93,141.17,202.93Z" transform="translate(-25.36)"/><path d="M25.36,58.09V256.61H178.24v-171L149.83,58.09H25.36ZM165,243.39H38.58V71.31H143v21h22V243.39h0Z" transform="translate(-25.36)"/><polygon points="25.84 27.67 25.84 50.65 39.06 50.65 39.06 40.88 143.51 40.88 143.51 61.85 165.51 61.85 165.51 212.97 159.7 212.97 159.7 226.19 178.72 226.19 178.72 55.2 150.32 27.67 25.84 27.67"/><polygon points="177.47 0 53 0 53 22.98 66.22 22.98 66.22 13.22 170.67 13.22 170.67 34.19 192.66 34.19 192.66 185.31 186.86 185.31 186.86 198.52 205.89 198.52 205.89 27.54 177.47 0"/></svg>