<?xml version="1.0" encoding="iso-8859-1"?>
<!DOCTYPE svg PUBLIC "-//W3C//DTD SVG 1.1//EN" "http://www.w3.org/Graphics/SVG/1.1/DTD/svg11.dtd">
<svg version="1.1"  xmlns="http://www.w3.org/2000/svg" xmlns:xlink="http://www.w3.org/1999/xlink" x="0px" y="0px"
	 viewBox="0 0 94.5 94.5" style="enable-background:new 0 0 94.5 94.5;" xml:space="preserve">
<g>
	<g>
		<path d="M92.334,10.583h-5.916v73.67c0,1.195-0.971,2.165-2.166,2.165h-73.67v5.917c0,1.195,0.971,2.165,2.166,2.165h79.586
			c1.195,0,2.166-0.97,2.166-2.165V12.748C94.5,11.551,93.529,10.583,92.334,10.583z"/>
		<path d="M81.418,79.251V2.166C81.418,0.971,80.447,0,79.252,0H2.166C0.971,0,0,0.971,0,2.166v77.087
			c0,1.195,0.971,2.165,2.166,2.165h77.086C80.447,81.417,81.418,80.448,81.418,79.251z M59.262,15.995
			c4.568,0,8.273,3.703,8.273,8.273c0,4.569-3.705,8.272-8.273,8.272s-8.273-3.703-8.273-8.272
			C50.988,19.698,54.693,15.995,59.262,15.995z M7.068,74.55c0.426-9.354,5.314-27.529,12.436-34.225
			c6.377-5.952,11.799-0.744,16.051,5.314c3.932,5.632,7.355,10.616,10.238,13.748c4.748,4.746,8.803-2.449,13.781-4.82
			c7.256-3.453,13.234,14.51,14.775,20.005L7.068,74.55z"/>
	</g>
</g>
<g>
</g>
<g>
</g>
<g>
</g>
<g>
</g>
<g>
</g>
<g>
</g>
<g>
</g>
<g>
</g>
<g>
</g>
<g>
</g>
<g>
</g>
<g>
</g>
<g>
</g>
<g>
</g>
<g>
</g>
</svg>
