<svg id="72550bf9-ae3a-49c5-941d-907dd5f31bb0" data-name="b09cb858-56b8-41a8-9374-584b283107a3" xmlns="http://www.w3.org/2000/svg" viewBox="0 0 275.8 311.2"><title>models</title><circle cx="29.4" cy="105.1" r="29.4"/><circle cx="246.4" cy="29.4" r="29.4"/><circle cx="246.4" cy="281.8" r="29.4"/><circle cx="246.4" cy="157.3" r="29.4"/><circle cx="29.4" cy="211.1" r="29.4"/><rect x="56.05" y="73.45" width="158.2" height="5" transform="translate(-24.54 60.78) rotate(-25.57)"/><path d="M203.1,43.4l-7.4-4.9,0.2-.3,13.3-.9,12.9-3c-3.4,2.7-7,5.4-10.4,8.2l-9,9.8h-0.3Z" transform="translate(-5 -5)"/><rect x="29.3" y="134.55" width="215.61" height="5" transform="translate(-61.62 139.37) rotate(-47.15)"/><path d="M207.8,60.7l-8.7-1.8,0.1-.3,12-5.7c3.6-2.5,7.2-5,10.9-7.6-2.3,3.8-4.5,7.6-6.7,11.4l-4.8,12.4-0.3.1Z" transform="translate(-5 -5)"/><rect x="132.05" y="54.3" width="5" height="145.5" transform="translate(-25.35 223.3) rotate(-76.53)"/><path d="M201.6,143.1l-2.7-8.4,0.3-.1,10.9,7.7c4,1.9,7.9,3.9,11.9,5.8l-13.2-.3-13.1,1.9-0.3-.2Z" transform="translate(-5 -5)"/><rect x="61.33" y="194.75" width="146.53" height="5" transform="translate(-51.21 36.26) rotate(-14.9)"/><path d="M201.8,179.4l-6.4-6.1,0.2-.3,13.2,1.6L222,174c-4,2-7.8,4-11.8,6.1L199.5,188l-0.3-.1Z" transform="translate(-5 -5)"/><rect x="132.55" y="169.9" width="5" height="156.09" transform="translate(-151.43 265.05) rotate(-65.91)"/><path d="M202.9,278.3l-1.1-8.8,0.3-.1,9.3,9.5c3.5,2.6,7.1,5.2,10.6,7.8L209,284l-13.3-.6-0.2-.3Z" transform="translate(-5 -5)"/><rect x="134.4" y="80.5" width="5" height="210.11" transform="translate(-95.53 142.55) rotate(-44.09)"/><path d="M207.4,258.3l2.3-8.6,0.3,0.1,5,12.3c2.4,3.8,4.6,7.5,7,11.3-3.7-2.4-7.3-4.9-11-7.3l-12.1-5.5-0.1-.3Z" transform="translate(-5 -5)"/></svg>