<svg id="7c0fbbc3-0054-435e-b678-e98cce5e110a" data-name="Слой 1" xmlns="http://www.w3.org/2000/svg" xmlns:xlink="http://www.w3.org/1999/xlink" viewBox="0 0 18 18"><defs><style>.ca99ce6b-de73-4898-966b-3a287ae23d1e{fill:none;}.\38 a416352-7b0f-4004-9c6f-f631a88d2558{clip-path:url(#ed9062da-8cde-4de0-8186-027b127fd084);}</style><clipPath id="ed9062da-8cde-4de0-8186-027b127fd084" transform="translate(-3 -3)"><rect class="ca99ce6b-de73-4898-966b-3a287ae23d1e" width="24" height="24"/></clipPath></defs><title>ic_zoom_out_map_black_24px</title><g class="8a416352-7b0f-4004-9c6f-f631a88d2558"><path d="M15,3l2.3,2.3L14.41,8.17l1.42,1.42L18.7,6.7,21,9V3H15ZM3,9L5.3,6.7,8.17,9.59,9.59,8.17,6.7,5.3,9,3H3V9ZM9,21L6.7,18.7l2.89-2.87L8.17,14.41,5.3,17.3,3,15v6H9Zm12-6-2.3,2.3-2.87-2.89-1.42,1.42L17.3,18.7,15,21h6V15Z" transform="translate(-3 -3)"/></g></svg>